<svg width="1040" height="800" xmlns="http://www.w3.org/2000/svg" xmlns:xlink="http://www.w3.org/1999/xlink">
 <!-- Created with Method Draw - http://github.com/duopixel/Method-Draw/ -->

 <g>
  <title>Layer 1</title>


  <defs>
   <linearGradient y2="2.136314" x2="1.38767" y1="-1.285103" x1="-0.445781" id="svg_134">
    <stop offset="0.01"/>
    <stop stop-opacity="0.69" offset="0.13"/>
    <stop stop-opacity="0.32" offset="0.25"/>
    <stop stop-opacity="0" offset="1"/>
   </linearGradient>
   <linearGradient xlink:href="#svg_134" y2="119.68" x2="222.2" y1="154.2" x1="203.44" id="svg_133"/>
   <linearGradient xlink:href="#svg_134" y2="205.71" x2="160.14" y1="173.68" x1="279.66" id="svg_132"/>
   <linearGradient xlink:href="#svg_134" y2="145.9" x2="88.74" y1="187.57" x1="306.85" id="svg_131"/>
   <linearGradient xlink:href="#svg_134" y2="138.48" x2="253.61" y1="175.07" x1="221.09" id="svg_130"/>
  </defs>
  <!-- Created with Method Draw - http://github.com/duopixel/Method-Draw/ -->
  <g stroke="null" id="svg_178">
   <path stroke="null" id="svg_136" opacity="0.18" fill="#3649ef" d="m471.246578,550.298995c-20.850951,1.906539 -41.232755,10.918503 -55.176828,26.03643c-8.774775,9.515895 -14.769423,21.047514 -21.476479,32.033207a297.77764,287.870524 0 0 1 -38.556883,49.989945c-11.52015,11.976758 -24.23923,23.18922 -32.666489,37.366476c-7.141451,11.993555 -10.920685,26.03643 -9.556686,39.785344s8.05368,27.195471 19.113371,35.947071c16.680761,13.169394 39.964322,14.278042 61.492929,14.739979l106.235594,2.410469c25.003765,0.571122 50.085721,1.133845 74.933104,-1.570585c10.382036,-1.125446 20.850951,-2.880805 30.26863,-7.281801c17.619053,-8.247669 29.408528,-24.785001 38.617698,-41.473513c3.075515,-5.576835 5.994648,-11.388838 6.776559,-17.637581c1.607261,-12.934226 -6.185782,-25.297331 -15.52527,-34.687243s-20.520811,-17.108454 -28.548427,-27.598615c-14.647793,-19.082183 -16.924022,-44.791058 -30.338133,-64.671132c-19.851843,-29.496755 -70.719475,-46.580012 -105.59269,-43.38845z"/>
   <path stroke="null" id="svg_137" fill="url(#svg_134)" d="m492.219159,754.676569l46.549747,34.393284s54.785873,0.445139 76.192849,-14.613996l-102.934193,-29.479957l-2.111159,3.737487l28.148783,18.309489l-37.045189,-14.597198l-8.800839,2.250891z"/>
   <polygon stroke="null" id="svg_138" fill="#fff" points="409.86663818359375,728.95947265625 501.51519775390625,678.2218017578125 501.51519775390625,558.5130004882812 409.86663818359375,609.2505493164062 409.86663818359375,728.95947265625 "/>
   <polygon stroke="null" id="svg_139" opacity="0.38" fill="#3649ef" points="468.1014404296875,605.2108154296875 468.1014404296875,640.6790161132812 493.96551513671875,625.0150756835938 493.96551513671875,590.5462036132812 468.1014404296875,605.2108154296875 "/>
   <path stroke="null" id="svg_140" opacity="0.18" fill="#3649ef" d="m475.382016,637.210277c0.807974,3.275551 2.840942,6.131159 4.908661,8.843987s4.239693,5.425656 5.429935,8.592022c1.390063,3.72069 1.311872,7.785732 1.216305,11.758388l-0.295388,12.111139a4.144126,4.006251 0 0 1 -0.269325,1.578983a3.952993,3.821476 0 0 1 -1.615949,1.444602c-4.074623,2.47766 -8.323004,5.039309 -13.101347,5.593633c-1.503006,0.184775 -3.101579,0.184775 -4.430827,0.890278a4.257069,4.115436 0 0 0 -2.180662,4.123834a3.744483,3.619904 0 0 0 3.527286,3.006788c1.850522,0 3.327464,-1.38581 4.813094,-2.460863a32.62305,31.537675 0 0 1 8.036304,-3.821476l15.116939,-5.610431c1.69414,-0.629914 3.518598,-1.369012 4.343948,-2.922799a6.246597,6.038772 0 0 0 0.564713,-1.998926c0.99042,-7.432981 -2.901757,-14.580401 -6.672304,-21.139901l-8.462011,-14.798771c-2.68456,-4.661361 -5.030292,-10.179404 -8.392508,-14.387227c-2.945197,1.67977 -3.249273,6.324333 -2.536866,9.196739z"/>
   <path stroke="null" id="svg_141" fill="#3649ef" d="m508.465525,660.038347l-6.52461,6.836662l-0.382267,-0.151179c-1.607261,-0.65511 -7.775667,-3.183163 -9.139667,-4.115436s-10.781679,-20.157236 -12.632201,-23.928319l-0.321452,-0.65511l5.117171,-3.040383l12.588761,20.157236l11.294265,4.896529z"/>
   <path stroke="null" id="svg_142" fill="url(#svg_133)" d="m505.381322,662.675585l-3.822674,4.006251c-1.607261,-0.65511 -7.775667,-3.183163 -9.139667,-4.115436s-10.781679,-20.157236 -12.632201,-23.928319l1.737579,-1.016261l12.588761,20.157236l11.268201,4.896529z"/>
   <path stroke="null" id="svg_143" fill="#ffbbab" d="m492.219159,647.960803a1.6507,1.595781 0 0 0 0.260637,0.839885a6.52461,6.307535 0 0 1 0.668968,2.704429a5.047668,4.879731 0 0 0 0.269325,2.242492a5.499438,5.316471 0 0 0 1.459567,1.360613a5.412559,5.232482 0 0 1 1.468254,1.931735c0.278013,0.629914 0.642904,1.469798 1.355312,1.402608a1.077299,1.041457 0 0 0 0.634216,-0.319156a4.144126,4.006251 0 0 0 0.964356,-1.74696c1.042548,-3.107574 2.02428,-7.2902 1.216305,-10.540555c-0.651592,-2.586845 -3.544662,-2.570048 -5.16061,-0.839885a8.305629,8.029299 0 0 1 -1.737579,1.814151c-0.460458,0.29396 -1.303184,0.461937 -1.398751,1.150642z"/>
   <path stroke="null" id="svg_144" fill="#ffbbab" d="m480.655569,693.33978a13.361984,12.917429 0 0 1 -4.343948,0.890278a2.484738,2.402071 0 0 0 -1.094675,0.327555a0.929605,0.898677 0 0 0 -0.434395,0.957469c0.112943,0.327555 0.477834,0.554324 0.53865,0.890278a0.729783,0.705503 0 0 1 -0.086879,0.470336c-0.321452,0.621515 -1.129426,0.797891 -1.737579,1.16744a2.232789,2.158504 0 0 0 -0.964356,1.142243a1.85921,1.797354 0 0 0 0.130318,1.453001a2.224101,2.150105 0 0 0 1.112051,0.839885a6.724432,6.500709 0 0 0 2.241477,0.335954a5.082419,4.913326 0 0 0 4.126751,-1.024659a6.594113,6.374726 0 0 0 0.99042,-0.839885c0.807974,-0.890278 1.007796,-2.166903 1.737579,-3.141169a2.606369,2.519654 0 0 0 0.642904,-1.09185a1.459567,1.411007 0 0 0 -0.16507,-0.764295a3.631541,3.510719 0 0 0 -2.701936,-1.67977"/>
   <path stroke="null" id="svg_145" fill="#3649ef" d="m498.457068,748.822572s-7.367336,0.587919 -7.541094,3.603106s7.584533,5.593633 11.885042,4.644563s1.954777,-7.214611 1.954777,-7.214611l-6.298725,-1.033058z"/>
   <path stroke="null" id="svg_146" fill="#3649ef" d="m509.464633,740.381729s-3.327464,-1.453001 -3.327464,1.67977s1.120739,5.140095 3.779235,6.626691s5.499438,0.377948 5.65582,-0.369549s0.191134,-5.039309 0.191134,-5.039309l-6.298725,-2.897603z"/>
   <path stroke="null" id="svg_147" fill="#ffbbab" d="m504.755793,730.655863l0,17.469604a2.667184,2.578446 0 0 1 -2.658496,2.570048l-1.077299,0a2.701936,2.612042 0 0 1 -2.562929,-1.872943a2.493426,2.410469 0 0 1 -0.095567,-0.621515l-0.243261,-7.676547l-0.217197,-6.996241l0,-1.142243l-0.043439,-1.730163l6.89819,0z"/>
   <path stroke="null" id="svg_148" fill="#fff" d="m504.755793,748.125467l0,1.730163a2.667184,2.578446 0 0 1 -2.658496,2.570048l-1.077299,0a2.606369,2.519654 0 0 1 -2.510802,-2.570048l-0.052127,-1.033058a2.701936,2.612042 0 0 0 2.562929,1.872943l1.077299,0a2.667184,2.578446 0 0 0 2.658496,-2.570048z"/>
   <path stroke="null" id="svg_149" fill="#fff" d="m515.763358,740.66729l0,1.730163a2.667184,2.578446 0 0 1 -2.658496,2.570048l-1.077299,0a2.606369,2.519654 0 0 1 -2.510802,-2.570048l-0.052127,-1.033058a2.693248,2.603643 0 0 0 2.606369,1.872943l0.999108,0a2.667184,2.578446 0 0 0 2.693248,-2.570048z"/>
   <path stroke="null" id="svg_150" fill="#ffbbab" d="m508.839104,723.516842l0.529962,17.217639a2.988636,2.889204 0 0 0 2.988636,2.805215l0.417019,0a2.988636,2.889204 0 0 0 2.988636,-2.872406l0,-17.150448l-6.924253,0z"/>
   <path stroke="null" id="svg_151" fill="#3649ef" d="m520.645955,721.48432c-0.503898,2.864007 -2.884382,3.981054 -4.83047,5.812003c-1.476942,1.394209 -2.423923,2.729626 -4.343948,3.661898a16.037856,15.504274 0 0 1 -5.942521,1.67977a13.249042,12.808244 0 0 1 -9.608813,-3.115973a6.003336,5.803604 0 0 1 -1.850522,-2.150105a7.037196,6.803067 0 0 1 -0.417019,-2.208897c-0.677656,-10.767323 0.981732,-21.534647 0.920917,-32.318768a46.349926,44.807855 0 0 0 -0.634216,-7.869721c-0.556025,-2.931198 -1.598573,-5.76161 -2.224101,-8.684409c-0.781911,-3.636701 -1.424815,-7.558963 -0.86879,-11.279653c0.651592,-4.199424 4.257069,-6.080766 7.88861,-7.72694l1.085987,-0.487133a6.950317,6.719079 0 0 1 1.989528,-0.65511a4.917349,4.753748 0 0 1 1.876586,0.167977a11.294265,10.918503 0 0 1 5.568941,3.577909a25.785676,24.927782 0 0 1 3.527286,5.602032a18.244582,17.637581 0 0 1 1.911337,6.324333c0,0.21837 0,0.43674 0,0.663509c0,1.847747 -0.599465,3.535915 -0.86879,5.366864c-0.286701,2.091313 -0.564713,4.199424 -0.86879,6.282338a26.663153,25.776065 0 0 0 -0.295388,6.374726a28.357293,27.413841 0 0 0 1.659388,5.770009a156.5472,151.338847 0 0 1 5.98596,21.551445a10.825119,10.464965 0 0 1 0.338828,3.661898z"/>
   <path stroke="null" id="svg_152" fill="url(#svg_132)" d="m520.645955,721.48432c-0.503898,2.864007 -2.884382,3.981054 -4.83047,5.812003c-1.476942,1.394209 -2.423923,2.729626 -4.343948,3.661898a16.037856,15.504274 0 0 1 -5.942521,1.67977a2.423923,2.343279 0 0 1 -0.564713,-0.453538a4.00512,3.871869 0 0 1 -0.747159,-2.662435c0.060815,-3.703892 1.476942,-7.248206 2.085095,-10.918503c0.668968,-4.065043 0.33014,-8.214074 0,-12.32111q-0.807974,-9.751063 -1.624637,-19.493727a16.680761,16.125789 0 0 0 -0.799286,-4.384199a28.45286,27.506228 0 0 0 -2.171974,-3.796279c-2.284917,-3.897066 -1.789707,-7.651351 -2.797503,-11.758388c-0.86879,-3.451927 -1.737579,-6.05557 -0.130318,-9.566288l1.085987,-0.487133a6.950317,6.719079 0 0 1 1.989528,-0.65511a4.917349,4.753748 0 0 1 1.876586,0.167977a11.294265,10.918503 0 0 1 5.568941,3.577909a25.785676,24.927782 0 0 1 3.527286,5.602032a18.244582,17.637581 0 0 1 1.911337,6.324333c0,0.21837 0,0.43674 0,0.663509c0,1.847747 -0.599465,3.535915 -0.86879,5.366864c-0.286701,2.091313 -0.564713,4.199424 -0.86879,6.282338a26.663153,25.776065 0 0 0 -0.295388,6.374726a28.357293,27.413841 0 0 0 1.659388,5.770009a156.5472,151.338847 0 0 1 5.98596,21.551445a10.825119,10.464965 0 0 1 0.295388,3.661898z"/>
   <path stroke="null" id="svg_153" fill="#3649ef" d="m500.828864,663.397886s-2.927821,19.947265 -4.474267,23.516775s-12.006672,10.71693 -12.006672,10.71693l-3.475158,-3.048782l-1.615949,-1.419405s8.01024,-6.551102 10.008456,-7.558963s3.231897,-15.630257 3.214522,-20.434398s5.03898,-4.543777 5.03898,-4.543777c3.770547,-1.327018 3.310088,2.77162 3.310088,2.77162z"/>
   <path stroke="null" id="svg_154" fill="#fc682d" d="m530.107074,679.800837a6.568049,6.349529 0 0 1 -3.249273,4.342205a10.842494,10.481763 0 0 1 -6.342164,1.67977a8.687896,8.398848 0 0 1 -5.933833,-2.637238a20.312301,19.636507 0 0 0 -1.615949,-1.772157c-1.642012,-1.402608 -4.074623,-1.469798 -6.081527,-2.385273c-2.884382,-1.335417 -4.552458,-4.3758 -5.143235,-7.407784s-0.295388,-6.156356 -0.304076,-9.238733a6.455107,6.240344 0 0 0 -0.668968,-3.233557c-1.03386,-1.67977 -2.823566,-2.292886 -3.475158,-4.308609a0.469146,0.453538 0 0 1 0,-0.209971a0.425707,0.411544 0 0 1 0.304076,-0.209971a3.405655,3.292349 0 0 0 1.251057,-0.579521a1.181554,1.142243 0 0 0 0.382267,-1.217833a0.721095,0.697104 0 0 0 -1.138114,-0.260364c0.338828,-0.907076 -0.408331,-1.805752 -0.86879,-2.637238l-0.191134,-0.344353a6.159718,5.954783 0 0 1 -0.356204,-4.283413a2.163286,2.091313 0 0 0 0.147694,-0.680307a3.214522,3.107574 0 0 0 -0.199822,-0.713902c-0.356204,-1.159041 0.425707,-2.368475 1.381375,-3.149568a8.740024,8.449241 0 0 1 10.051896,-0.445139c2.745375,1.74696 3.666292,5.173691 4.178878,8.306461a2.085095,2.015724 0 0 0 0.347516,0.965868a1.998216,1.931735 0 0 0 0.668968,0.445139c1.633324,0.7307 3.475158,1.049856 4.934725,2.099712c2.606369,1.872943 2.97126,5.400459 2.962573,8.508033s-0.104255,6.525905 1.928713,8.927976a27.679637,26.758731 0 0 0 3.249273,2.77162a12.249934,11.842376 0 0 1 3.388279,4.879731c0.043439,0.109185 0.078191,0.226769 0.121631,0.335954a6.168406,5.963182 0 0 1 0.269325,2.452464z"/>
   <path stroke="null" id="svg_155" fill="#ffbbab" d="m482.228079,628.962608a9.0441,8.743201 0 0 0 -0.668968,-2.452464a2.68456,2.595244 0 0 0 -1.98084,-1.503394c-1.329248,-0.125983 -2.449987,1.133845 -2.606369,2.418868a9.956329,9.62508 0 0 0 0.564713,3.813077c0.199822,0.755896 0.286701,1.67977 -0.37358,2.150105a3.579413,3.460325 0 0 0 -0.547337,0.327555c-0.460458,0.43674 0,1.234631 0.556025,1.503394s1.285809,0.268763 1.841834,0.579521a11.832915,11.439231 0 0 1 1.094675,0.839885c1.068611,0.764295 3.648916,0.461937 3.831362,-1.09185c0.104255,-0.839885 -0.668968,-2.242492 -0.86879,-3.099175c-0.408331,-1.117047 -0.642904,-2.284487 -0.842726,-3.485522z"/>
   <path stroke="null" id="svg_156" fill="url(#svg_131)" d="m500.828864,663.397886s-2.927821,19.947265 -4.474267,23.516775s-12.006672,10.71693 -12.006672,10.71693l-3.475158,-3.048782c2.363108,-1.830949 9.739132,-7.50857 11.702596,-8.684409c2.345732,-1.394209 4.943413,-25.30573 4.943413,-25.30573c3.770547,-1.293423 3.310088,2.805215 3.310088,2.805215z"/>
   <path stroke="null" id="svg_157" fill="url(#svg_130)" d="m530.107074,679.800837a6.568049,6.349529 0 0 1 -3.249273,4.342205a10.842494,10.481763 0 0 1 -6.342164,1.67977a8.687896,8.398848 0 0 1 -5.933833,-2.637238a20.312301,19.636507 0 0 0 -1.615949,-1.772157c-1.642012,-1.402608 -4.074623,-1.469798 -6.081527,-2.385273c-2.884382,-1.335417 -4.552458,-4.3758 -5.143235,-7.407784s-0.295388,-6.156356 -0.304076,-9.238733a6.455107,6.240344 0 0 0 -0.668968,-3.233557c-1.03386,-1.67977 -2.823566,-2.292886 -3.475158,-4.308609a0.469146,0.453538 0 0 1 0,-0.209971c1.146802,1.159041 3.032076,1.738562 4.283133,2.897603c1.737579,1.637775 2.076407,4.199424 2.35442,6.551102s0.773223,4.938523 2.719311,6.366327l0.99042,-1.419405a10.425475,10.078618 0 0 0 7.271769,7.432981l1.737579,-3.13277c0.069503,2.444065 0.668968,5.123297 2.68456,6.584697c2.814878,2.032521 8.601017,1.721764 10.07796,-1.52859c0.112943,-0.251965 0.243261,-0.621515 0.408331,-1.033058a6.168406,5.963182 0 0 1 0.286701,2.452464z"/>
   <polygon stroke="#fff" id="svg_158" stroke-miterlimit="10" fill="none" points="394.784423828125,718.7125854492188 352.3526916503906,736.7199096679688 352.3526916503906,702.6876831054688 394.784423828125,684.68896484375 394.784423828125,718.7125854492188 "/>
   <path stroke="null" id="svg_159" fill="#fff" d="m389.875743,709.38158a5.151922,4.980517 0 0 1 -0.964356,2.729626a5.377808,5.198887 0 0 1 -2.337044,1.889741l-22.675409,8.734802c-1.824458,0.697104 -3.310088,-0.243567 -3.310088,-2.099712a5.16061,4.988916 0 0 1 0.973044,-2.754822a5.377808,5.198887 0 0 1 2.337044,-1.889741l0.764535,-0.29396a6.229222,6.021974 0 0 1 -0.243261,-1.67977a10.24303,9.902242 0 0 1 1.911337,-5.434055a10.57317,10.221398 0 0 1 4.613273,-3.72069l1.920025,-0.739099c2.51949,-0.974266 4.700152,-0.36115 5.786139,1.352215a5.560254,5.375263 0 0 1 1.737579,-1.117047l0.49521,-0.193174c2.163286,-0.839885 3.918241,0.277162 3.918241,2.519654l0,0.193174a5.273553,5.098101 0 0 1 -0.147694,1.16744l1.876586,-0.722301c1.867898,-0.739099 3.34484,0.201572 3.34484,2.057718z"/>
   <g stroke="null" transform="matrix(0.8687896135009989,0,0,0.8398848254834981,-255.29984597159466,-151.10178250073523) " id="svg_160" opacity="0.43">
    <path stroke="null" id="svg_161" fill="#3649ef" d="m825.494307,950.335423c-1.92,-11.19 -7,-16.88 -14.91,-18.39c-9,-1.73 -18.8,4.64 -23.94,15.49a32.25,32.25 0 0 0 -3,18.74c0.72,5 4.37,7.85 8.42,6.66s7.11,-5.65 7.31,-10.58a17.82,17.82 0 0 0 -0.15,-2.43a8,8 0 0 1 4.12,-8c2.69,-1.26 5.43,0 6.25,3.1a20.54,20.54 0 0 1 0.33,7.73a27.12,27.12 0 0 1 -9.12,17.73c-0.3,0.26 -0.61,0.49 -0.9,0.77a2.06,2.06 0 0 0 -0.46,2.36a1,1 0 0 0 1.68,0.33c7.47,-5.8 11.93,-15.93 11.52,-25.79a16.33,16.33 0 0 0 -1,-5.74c-1.67,-3.93 -5.81,-5.39 -9.38,-3.32a12.19,12.19 0 0 0 -5.54,12c0.51,3.68 -1.41,7.3 -4.5,8.49c-2.92,1.14 -5.64,-0.77 -6.06,-4.41a28.52,28.52 0 0 1 7.25,-23.09c6.95,-7.87 16.85,-9.21 23.55,-3.37c3.22,2.8 5.1,6.81 5.85,11.86a43,43 0 0 1 0.15,11.17c0,0.23 -0.07,0.47 -0.08,0.7c0,1 0.4,1.61 1.1,1.61a1.61,1.61 0 0 0 1.42,-1.62a52.49,52.49 0 0 0 0.38,-5.27c-0.02,-2.61 -0.22,-5.19 -0.29,-6.73z"/>
   </g>
   <g stroke="null" transform="matrix(0.8687896135009989,0,0,0.8398848254834981,-255.29984597159466,-151.10178250073523) " id="svg_162" opacity="0.43">
    <path stroke="null" id="svg_163" fill="#3649ef" d="m819.044307,953.835423c-1.17,-9.64 -7.31,-15.16 -14.42,-13.77c-6.47,1.27 -11.93,7 -14,14.81a22.23,22.23 0 0 0 -0.54,8.75c0.17,1.2 0.91,1.67 1.75,1.16a2.06,2.06 0 0 0 0.82,-2c-0.07,-0.91 -0.2,-1.81 -0.19,-2.73c0.09,-6.21 3.45,-12.45 8.11,-15.09c4.51,-2.56 8.63,-2.36 12.25,1a11.65,11.65 0 0 1 3.3,6.55a35.47,35.47 0 0 1 -2.89,21.16c-0.28,0.62 -0.58,1.22 -0.85,1.83a1.85,1.85 0 0 0 0.3,2.34c0.65,0.45 1.39,0.11 1.88,-0.88c3.85,-7.72 5.52,-15.69 4.48,-23.13z"/>
   </g>
   <g stroke="null" transform="matrix(0.8687896135009989,0,0,0.8398848254834981,-255.29984597159466,-151.10178250073523) " id="svg_164" opacity="0.43">
    <path stroke="null" id="svg_165" fill="#3649ef" d="m797.724307,926.425423c-6.3,2.79 -12.62,8.92 -17,18.45c-0.58,1.29 -1.07,2.65 -1.57,4c-0.41,1.14 -0.2,2 0.5,2.35s1.43,-0.16 1.84,-1.36c2.56,-7.41 6.55,-13.3 12.06,-17.32c8.84,-6.45 17.5,-7.58 25.75,-2.07a25.41,25.41 0 0 1 2.88,2.45a1.16,1.16 0 0 0 2,-0.23a1.9,1.9 0 0 0 -0.24,-2.47a20.53,20.53 0 0 0 -12.78,-6.45c-3.95,-0.37 -7.91,0.31 -13.44,2.65z"/>
   </g>
   <g stroke="null" transform="matrix(0.8687896135009989,0,0,0.8398848254834981,-255.29984597159466,-151.10178250073523) " id="svg_166" opacity="0.43">
    <path stroke="null" id="svg_167" fill="#3649ef" d="m797.494307,918.335423c-4.79,1.92 -9.48,5.73 -13.71,10.7a2,2 0 0 0 -0.34,2.53c0.5,0.71 1.21,0.65 1.92,-0.18a37.81,37.81 0 0 1 8.86,-7.92c6.12,-3.72 12.3,-5.12 18.55,-3.86c0.21,0 0.42,0.1 0.64,0.13a1.58,1.58 0 0 0 1.6,-1.43c0.18,-0.89 -0.17,-1.72 -0.9,-1.83a40.72,40.72 0 0 0 -4.93,-0.61a26.57,26.57 0 0 0 -11.69,2.47z"/>
   </g>
   <g stroke="null" transform="matrix(0.8687896135009989,0,0,0.8398848254834981,-255.29984597159466,-151.10178250073523) " id="svg_168" opacity="0.43">
    <path stroke="null" id="svg_169" fill="#3649ef" d="m794.814307,979.705423c7.37,-3.11 11,-11.53 11.27,-18.21a30.63,30.63 0 0 0 -0.18,-4c-0.1,-1.09 -0.74,-1.59 -1.48,-1.32a2,2 0 0 0 -1,2.24a18.5,18.5 0 0 1 -3.58,13.69a12.78,12.78 0 0 1 -6.48,4.66c-0.61,0.21 -1.24,0.33 -1.86,0.52a1.84,1.84 0 0 0 -1.23,1.94c0,0.9 0.6,1.48 1.4,1.3c1.02,-0.2 2.08,-0.53 3.14,-0.82z"/>
   </g>
   <g stroke="null" transform="matrix(0.8687896135009989,0,0,0.8398848254834981,-255.29984597159466,-151.10178250073523) " id="svg_170" opacity="0.43">
    <path stroke="null" id="svg_171" fill="#3649ef" d="m793.414307,999.065423a2,2 0 0 0 1.09,-1.44a1.67,1.67 0 0 0 -0.95,-2.13c-8.21,-1.82 -12.93,-9.06 -14,-21.5a78.49,78.49 0 0 1 0.87,-18.86a1.63,1.63 0 0 0 -1,-2.05c-0.77,-0.11 -1.55,0.61 -1.74,1.62a81.93,81.93 0 0 0 -0.95,20.08c1.22,13.86 6.77,22.29 16.07,24.35a1,1 0 0 0 0.61,-0.07z"/>
   </g>
   <g stroke="null" transform="matrix(0.8687896135009989,0,0,0.8398848254834981,-255.29984597159466,-151.10178250073523) " id="svg_172" opacity="0.43">
    <path stroke="null" id="svg_173" fill="#3649ef" d="m797.354307,998.105423c2,-0.82 10,-4.64 14,-13.29a2,2 0 0 0 -0.44,-2.46c-0.67,-0.43 -1.55,0 -2,0.9c-3.75,8.17 -12.36,11.45 -12.45,11.48a2.19,2.19 0 0 0 -1.19,2.3c0.13,1 0.86,1.53 1.64,1.24l0.44,-0.17z"/>
   </g>
   <g stroke="null" transform="matrix(0.8687896135009989,0,0,0.8398848254834981,-255.29984597159466,-151.10178250073523) " id="svg_174" opacity="0.43">
    <path stroke="null" id="svg_175" fill="#3649ef" d="m809.684307,996.355423a1.21,1.21 0 0 0 0.38,-0.24c10.57,-8.8 14.78,-26.5 14.95,-27.24a1.69,1.69 0 0 0 -0.94,-2.14c-0.76,-0.17 -1.56,0.51 -1.79,1.51c-0.06,0.24 -4.07,17 -13.55,24.85a2.31,2.31 0 0 0 -0.6,2.57a1.15,1.15 0 0 0 1.55,0.69z"/>
   </g>
   <g stroke="null" transform="matrix(0.8687896135009989,0,0,0.8398848254834981,-255.29984597159466,-151.10178250073523) " id="svg_176" opacity="0.43">
    <path stroke="null" id="svg_177" fill="#3649ef" d="m794.904307,988.575423a12.53,12.53 0 0 0 2.17,-1.17a2.3,2.3 0 0 0 0.81,-2.51a1.18,1.18 0 0 0 -1.86,-0.72a8.06,8.06 0 0 1 -9.68,-0.18c-0.62,-0.52 -1.52,-0.24 -2,0.63a2.1,2.1 0 0 0 0.22,2.53a10.23,10.23 0 0 0 10.34,1.42z"/>
   </g>
  </g>

  <defs>
   <linearGradient y2="0.331678" x2="0.466147" y1="0.717752" x1="0.970808" id="svg_241">
    <stop offset="0.01"/>
    <stop stop-opacity="0.69" offset="0.13"/>
    <stop stop-opacity="0" offset="1"/>
   </linearGradient>
   <linearGradient xlink:href="#svg_241" y2="299.25" x2="187.8" y1="301.6" x1="213.91" id="svg_240"/>
   <linearGradient xlink:href="#svg_241" y2="308.16" x2="206.62" y1="304.5" x1="241.08" id="svg_239"/>
   <linearGradient xlink:href="#svg_241" y2="217.69" x2="204.02" y1="222.91" x1="257.81" id="svg_238"/>
   <linearGradient xlink:href="#svg_241" y2="232.16" x2="231.03" y1="225.37" x1="270.72" id="svg_237"/>
  </defs>
  <g stroke="null" id="svg_283">
   <ellipse stroke="null" transform="matrix(0.8788166787259768,0,0,0.7208453229432012,-108.34561791860324,421.6672989065178) " id="svg_243" opacity="0.18" fill="#3649ef" ry="18.8" rx="104.45" cy="382.942351" cx="1076.578435"/>
   <path stroke="null" id="svg_244" opacity="0.18" fill="#3649ef" d="m951.585015,553.641356c0.492137,-15.281921 -7.645705,-29.756495 -15.695666,-43.546266c-9.359398,-16.024392 -19.333967,-32.560583 -36.295129,-43.654393c-20.537946,-13.465391 -48.835843,-16.911031 -74.822452,-13.638394s-50.24195,12.585959 -73.600897,22.490374c-13.797422,5.853264 -27.51575,11.987658 -39.766455,19.823246c-7.628129,4.880123 -14.843214,10.632469 -18.45515,18.021133c-3.154952,6.408315 -3.321927,13.501433 -3.444961,20.407131l-1.300649,72.380079c-0.070305,3.935815 -0.123034,7.986966 1.564294,11.670486c2.276135,4.952207 7.355696,8.614102 12.250705,12.059742c9.930628,6.9922 20.599463,14.272737 33.544433,15.858597c13.639235,1.672361 27.190588,-3.315888 40.979222,-3.604227c16.565694,-0.32438 32.041656,6.098351 47.913085,10.01975a133.782263,109.734284 0 0 0 61.306252,3.013133c14.605933,-2.09766 29.299748,-6.487608 39.617056,-15.202628c5.940801,-5.045917 10.159121,-11.252395 13.507412,-17.689544a126.0311,103.376428 0 0 0 9.148482,-27.766962c1.019427,-6.660611 5.061984,-13.696061 5.343205,-20.234128c0.298798,-6.660611 -2.021278,-13.472599 -1.792786,-20.407131z"/>
   <path stroke="null" id="svg_245" fill="#3649ef" d="m804.049271,576.477735a50.857121,41.715319 0 0 0 -10.791869,-6.948949a13.305285,10.913598 0 0 0 -4.84228,-1.593068a7.584188,6.220895 0 0 0 -7.970867,8.592476a13.858939,11.367731 0 0 0 4.174379,4.036734a73.486651,60.277086 0 0 0 19.096686,9.428657a10.106392,8.289721 0 0 0 3.919522,0.800138c2.056431,0 3.910734,-1.001975 5.501392,-2.076035c4.543482,-3.085218 7.90935,-7.208453 10.932479,-11.331688c2.320076,-3.128469 4.55227,-6.350647 5.773826,-9.875581c0.694265,-2.00395 1.05458,-4.072776 1.502777,-6.119977s0.940334,-3.928607 1.537929,-5.874889c0.509714,-1.650736 2.284923,-4.38274 2.117948,-6.047892c-0.395468,-3.798855 -6.722948,0.317172 -8.419064,1.311938a59.689229,48.959814 0 0 0 -16.381143,15.10171a81.299331,66.685401 0 0 0 -6.151717,10.596426z"/>
   <path stroke="null" id="svg_246" fill="url(#svg_241)" d="m804.049271,576.477735a50.857121,41.715319 0 0 0 -10.791869,-6.948949a13.305285,10.913598 0 0 0 -4.84228,-1.593068a7.584188,6.220895 0 0 0 -7.970867,8.592476a13.858939,11.367731 0 0 0 4.174379,4.036734a73.486651,60.277086 0 0 0 19.096686,9.428657a10.106392,8.289721 0 0 0 3.919522,0.800138c2.056431,0 3.910734,-1.001975 5.501392,-2.076035c4.543482,-3.085218 7.90935,-7.208453 10.932479,-11.331688c2.320076,-3.128469 4.55227,-6.350647 5.773826,-9.875581c0.694265,-2.00395 1.05458,-4.072776 1.502777,-6.119977s0.940334,-3.928607 1.537929,-5.874889c0.509714,-1.650736 2.284923,-4.38274 2.117948,-6.047892c-0.395468,-3.798855 -6.722948,0.317172 -8.419064,1.311938a59.689229,48.959814 0 0 0 -16.381143,15.10171a81.299331,66.685401 0 0 0 -6.151717,10.596426z"/>
   <path stroke="null" id="svg_247" fill="#f3c091" d="m783.317986,567.366251a43.395968,35.595342 0 0 0 -3.339503,-3.806063c-0.166975,-0.173003 -0.395468,-0.360423 -0.667901,-0.317172s-0.413044,0.338797 -0.571231,0.555051c-0.641536,0.872223 -2.311288,0.555051 -3.277986,-0.086501s-1.845515,-1.549817 -3.093435,-1.607485a2.803425,2.299497 0 0 0 -2.63645,2.032784a6.907499,5.665844 0 0 0 0.782147,3.157303a30.292811,24.847538 0 0 0 1.643387,2.695962a13.410743,11.0001 0 0 0 3.005553,3.049176a11.26643,9.241237 0 0 0 4.033769,1.636319a8.928777,7.323788 0 0 0 4.394083,0.237879a4.692881,3.849314 0 0 0 3.365868,-2.162536c1.239132,-2.486916 -2.328864,-3.618644 -3.638301,-5.384715z"/>
   <path stroke="null" id="svg_248" fill="#ffcd90" d="m817.486378,682.881714a3.585572,2.941049 0 0 0 0.19334,1.174978c0.483349,0.908265 1.986126,1.153353 3.128587,0.843389a4.200744,3.445641 0 0 0 2.566145,-1.917449a7.18872,5.896515 0 0 0 0.369103,-2.70317a24.404739,20.017875 0 0 0 -0.43062,-2.616669a2.759484,2.263454 0 0 0 -1.072156,-1.600277c-1.397319,-0.648761 -4.016192,0.764096 -4.543482,1.874198c-0.667901,1.376815 -0.19334,3.481683 -0.210916,4.944999z"/>
   <path stroke="null" id="svg_249" fill="#2e2e3f" d="m822.381387,682.788004a6.274751,5.146836 0 0 1 -1.379742,0.821764a4.455601,3.654686 0 0 1 -2.117948,0.194628a3.673454,3.013133 0 0 0 -1.757633,0a3.515267,2.883381 0 0 0 -0.878817,0.562259a11.907966,9.767454 0 0 1 -1.977338,1.081268l-2.917671,1.319147a12.725266,10.43784 0 0 0 -2.434322,1.347981c-0.448197,0.346006 -0.834876,0.720845 -1.283072,1.102893a2.197042,1.802113 0 0 0 -0.536078,0.526217a1.274284,1.045226 0 0 0 0.342739,1.110102a2.724332,2.234621 0 0 0 1.327013,0.504592a6.555972,5.377506 0 0 0 1.757633,0.136961a20.291877,16.644319 0 0 0 2.513416,-0.273921a42.23593,34.643826 0 0 0 5.545333,-0.857806c1.827939,-0.454133 3.611937,-1.009183 5.395934,-1.564234a3.998616,3.279846 0 0 0 1.704904,-0.828972a3.576784,2.93384 0 0 0 0.33395,-2.573418a17.312689,14.200653 0 0 0 -0.667901,-1.787696c-0.263645,-0.569468 -0.685477,-1.196603 -1.414895,-1.30473a1.880668,1.542609 0 0 0 -1.397319,0.367631l-0.158187,0.115335z"/>
   <path stroke="null" id="svg_250" fill="#2e2e3f" d="m805.815693,638.001884a291.415611,239.032309 0 0 0 7.162356,34.34828c0.52729,1.744446 1.116097,3.546559 2.487051,4.952207s3.770124,2.292288 5.817766,1.643527a5.404723,4.433199 0 0 0 3.058282,-3.510517a17.418147,14.287154 0 0 0 -0.281221,-4.490866c-2.153101,-12.146244 -0.940334,-24.508741 1.080945,-36.683818a81.967232,67.233243 0 0 1 2.882519,-11.64886c0.975487,-2.51575 2.293712,-4.98825 2.504628,-7.626544c0.606384,-7.741879 -8.72665,-13.429348 -17.655427,-11.771404c-8.269665,1.535401 -7.619341,12.823838 -7.856621,18.150885a153.142594,125.614506 0 0 0 0.799723,16.63711z"/>
   <path stroke="null" id="svg_251" fill="url(#svg_240)" d="m805.815693,638.001884a291.415611,239.032309 0 0 0 7.162356,34.34828c0.52729,1.744446 1.116097,3.546559 2.487051,4.952207s3.770124,2.292288 5.817766,1.643527a5.404723,4.433199 0 0 0 3.058282,-3.510517a17.418147,14.287154 0 0 0 -0.281221,-4.490866c-2.153101,-12.146244 -0.940334,-24.508741 1.080945,-36.683818a81.967232,67.233243 0 0 1 2.882519,-11.64886c0.975487,-2.51575 2.293712,-4.98825 2.504628,-7.626544c0.606384,-7.741879 -8.72665,-13.429348 -17.655427,-11.771404c-8.269665,1.535401 -7.619341,12.823838 -7.856621,18.150885a153.142594,125.614506 0 0 0 0.799723,16.63711z"/>
   <path stroke="null" id="svg_252" fill="#ffcd90" d="m857.138587,689.030524a3.647089,2.991508 0 0 0 0.782147,0.994767c0.878817,0.648761 2.390381,0.346006 3.277986,-0.32438a4.297414,3.524934 0 0 0 1.327013,-2.638294a7.197509,5.903723 0 0 0 -1.080945,-2.587835a23.72805,19.462824 0 0 0 -1.757633,-2.220204a2.73312,2.241829 0 0 0 -1.757633,-1.07406c-1.608235,-0.100918 -3.251622,2.090451 -3.146164,3.279846c0.070305,1.499358 1.590658,3.236596 2.355229,4.570159z"/>
   <path stroke="null" id="svg_253" fill="#2e2e3f" d="m862.859683,687.596042c-0.395468,-0.180211 -0.878817,-0.151378 -1.511565,0.295547a13.560141,11.122643 0 0 1 -1.370954,1.059643c-0.834876,0.439716 -1.924609,0.410882 -2.838578,0.720845a6.564761,5.384715 0 0 0 -1.493988,0.865014a25.907516,21.25052 0 0 0 -4.569847,3.798855c-0.878817,1.016392 -2.92646,2.695962 -1.458836,3.964649c0.711842,0.612719 1.924609,0.569468 2.92646,0.353214a21.768289,17.855339 0 0 0 3.014341,-0.915474c2.284923,-0.79293 4.561059,-1.58586 6.775677,-2.494125a7.030533,5.766763 0 0 0 2.284923,-1.283105a4.631364,3.798855 0 0 0 0.782147,-3.640269a6.573549,5.391923 0 0 0 -0.931546,-1.009183c-0.536078,-0.540634 -0.95791,-1.412857 -1.608235,-1.715612z"/>
   <path stroke="null" id="svg_254" fill="#2e2e3f" d="m822.161683,608.764397c-1.274284,3.604227 -0.175763,7.439124 0.790935,11.101018a240.98911,197.670204 0 0 1 4.982891,29.302362a26.469958,21.711861 0 0 0 0.738206,4.577368a23.675321,19.419573 0 0 0 2.223406,4.022317q8.43664,12.636419 17.963013,24.753828c1.493988,1.903032 3.444961,4.0079 6.204446,4.051151c3.515267,0.064876 5.694732,-3.438432 5.114713,-6.271354s-2.900095,-5.182878 -4.631364,-7.684211c-2.63645,-3.784438 -3.98104,-8.066259 -5.2729,-12.290413s-2.63645,-8.549226 -3.005553,-12.931965c-0.790935,-10.091835 3.647089,-19.837663 6.265963,-29.68441a20.124902,16.507358 0 0 0 0.62396,-5.557717c-0.580019,-3.798855 -4.200744,-6.984991 -8.524522,-8.426682c-7.074474,-2.342747 -20.889472,-2.241829 -23.473193,5.038709z"/>
   <path stroke="null" id="svg_255" fill="url(#svg_239)" d="m822.161683,608.764397c-1.274284,3.604227 -0.175763,7.439124 0.790935,11.101018a240.98911,197.670204 0 0 1 4.982891,29.302362a26.469958,21.711861 0 0 0 0.738206,4.577368a23.675321,19.419573 0 0 0 2.223406,4.022317q8.43664,12.636419 17.963013,24.753828c1.493988,1.903032 3.444961,4.0079 6.204446,4.051151c3.515267,0.064876 5.694732,-3.438432 5.114713,-6.271354s-2.900095,-5.182878 -4.631364,-7.684211c-2.63645,-3.784438 -3.98104,-8.066259 -5.2729,-12.290413s-2.63645,-8.549226 -3.005553,-12.931965c-0.790935,-10.091835 3.647089,-19.837663 6.265963,-29.68441a20.124902,16.507358 0 0 0 0.62396,-5.557717c-0.580019,-3.798855 -4.200744,-6.984991 -8.524522,-8.426682c-7.074474,-2.342747 -20.889472,-2.241829 -23.473193,5.038709z"/>
   <path stroke="null" id="svg_256" fill="#3649ef" d="m825.712102,553.90086c-2.680391,3.568184 -4.279837,7.59771 -5.852919,11.576776c-1.212767,3.063593 -2.425534,6.134394 -3.313139,9.277279c-1.617023,5.716303 -2.153101,11.627235 -4.130438,17.264245c-1.810362,5.175669 -4.84228,10.53155 -2.996765,15.700011a17.664215,14.488991 0 0 0 3.699818,5.283796a28.614271,23.470724 0 0 0 29.598546,6.999408a20.335818,16.680361 0 0 0 5.694732,-2.227412c4.622576,-2.674336 7.197509,-7.208453 8.366335,-11.735362s1.133674,-9.22682 1.652175,-13.847439c0.878817,-7.871631 3.374656,-15.61351 3.515267,-23.513974s-2.63645,-16.392023 -10.132756,-21.322605c-9.561525,-6.24252 -20.634616,-0.720845 -26.100855,6.545276z"/>
   <path stroke="null" id="svg_257" fill="url(#svg_238)" d="m825.712102,553.90086c-2.680391,3.568184 -4.279837,7.59771 -5.852919,11.576776c-1.212767,3.063593 -2.425534,6.134394 -3.313139,9.277279c-1.617023,5.716303 -2.153101,11.627235 -4.130438,17.264245c-1.810362,5.175669 -4.84228,10.53155 -2.996765,15.700011a17.664215,14.488991 0 0 0 3.699818,5.283796a28.614271,23.470724 0 0 0 29.598546,6.999408a20.335818,16.680361 0 0 0 5.694732,-2.227412c4.622576,-2.674336 7.197509,-7.208453 8.366335,-11.735362s1.133674,-9.22682 1.652175,-13.847439c0.878817,-7.871631 3.374656,-15.61351 3.515267,-23.513974s-2.63645,-16.392023 -10.132756,-21.322605c-9.561525,-6.24252 -20.634616,-0.720845 -26.100855,6.545276z"/>
   <path stroke="null" id="svg_258" fill="#f3c091" d="m828.480375,527.344918c-0.834876,2.385998 -1.476412,4.89454 -1.001851,7.352622s2.240983,4.865706 5.053196,5.766763c1.160038,0.382048 2.513416,0.540634 3.330715,1.311938a4.728034,3.878148 0 0 1 0.738206,2.804088a35.152667,28.833813 0 0 1 -0.377891,2.941049a5.554121,4.555742 0 0 0 -0.087882,1.650736a3.216469,2.638294 0 0 0 2.434322,1.917449a5.378358,4.411573 0 0 0 3.462538,-0.360423c3.234045,-1.174978 5.2729,-3.921399 6.151717,-6.732695s0.8173,-5.766763 1.098521,-8.650144a39.907065,32.733586 0 0 0 0.281221,-4.89454a14.939884,12.25437 0 0 0 -6.151717,-9.010567c-2.530992,-1.49215 -7.988444,-3.387973 -11.011573,-1.809322c-1.063368,0.555051 -1.450048,1.578651 -1.845515,2.501333c-0.746994,1.72282 -1.467624,3.467266 -2.074007,5.211712z"/>
   <path stroke="null" id="svg_259" fill="#452d21" d="m834.131166,510.477138a4.394083,3.604227 0 0 0 -3.005553,2.357164a8.155419,6.689445 0 0 0 -0.158187,3.517725a15.308987,12.557126 0 0 0 4.455601,6.718278c1.432471,1.11731 3.146164,2.032784 4.148015,3.416807a9.306669,7.633752 0 0 1 1.089733,2.883381c0.052729,0.309963 0.131823,0.670386 0.474561,0.814555s0.878817,-0.115335 1.24792,-0.382048c0.685477,-0.540634 1.555506,-1.110102 2.478263,-0.915474s1.423683,1.239854 1.423683,2.104868a3.647089,2.991508 0 0 1 -1.458836,2.652711c-0.316374,0.158586 -0.729418,0.288338 -0.826088,0.576676c-0.149399,0.425299 0.43062,0.720845 0.738206,1.110102a3.778912,3.099635 0 0 1 0.395468,1.62911a1.863091,1.528192 0 0 0 0.878817,1.405648a1.757633,1.441691 0 0 0 1.520353,-0.259504c1.757633,-0.88664 2.689179,-2.501333 4.174379,-3.654686c0.95791,-0.720845 2.135525,-1.297522 3.137376,-2.011158a9.271516,7.604918 0 0 0 3.26041,-6.112768a7.856621,6.444357 0 0 0 -4.499541,-5.442382c-1.406107,-0.504592 -2.996765,-0.634344 -4.306202,-1.275896c-1.810362,-0.88664 -2.759484,-2.551792 -3.840429,-4.029525a7.839045,6.42994 0 0 0 -5.018043,-3.258221c-2.232194,-0.475758 -3.840429,-2.277871 -6.309904,-1.845364z"/>
   <path stroke="null" id="svg_260" fill="#3649ef" d="m855.864303,550.959811s12.092517,12.888714 16.01204,39.646493s-0.729418,35.487215 -0.729418,35.487215s-8.348758,3.539351 -10.299731,-0.32438s-2.39917,-39.012149 -9.666983,-46.609859s-1.950973,-26.56315 4.684093,-28.199469z"/>
   <path stroke="null" id="svg_261" fill="url(#svg_237)" d="m855.864303,550.959811s12.092517,12.888714 16.01204,39.646493s-0.729418,35.487215 -0.729418,35.487215s-8.348758,3.539351 -10.299731,-0.32438s-2.39917,-39.012149 -9.666983,-46.609859s-1.950973,-26.56315 4.684093,-28.199469z"/>
   <path stroke="null" id="svg_262" fill="#f3c091" d="m859.889283,633.028051c-0.228492,0.540634 -0.281221,1.347981 0.404256,1.441691s1.265496,-0.41809 1.643387,-0.064876a0.8173,0.670386 0 0 1 0.149399,0.425299a11.424617,9.370989 0 0 1 -1.045792,4.490866a2.153101,1.766071 0 0 0 -0.33395,1.196603c0.254857,0.720845 1.520353,0.800138 2.407958,0.569468c3.207681,-0.814555 5.527757,-3.229387 6.52082,-5.860472s0.878817,-5.449591 0.456985,-8.181594a4.710457,3.863731 0 0 0 -1.072156,-2.385998c-1.58187,-1.261479 -4.455601,-0.60551 -5.448663,0.79293c-1.617023,2.28508 -2.627662,5.089168 -3.682242,7.576084z"/>
   <circle stroke="null" transform="matrix(0.8788166787259768,0,0,0.7208453229432012,-108.34561791860324,421.6672989065178) " id="svg_263" fill="#3649ef" r="39.959999" cy="83.902351" cx="929.768435"/>
   <circle stroke="null" transform="matrix(0.8788166787259768,0,0,0.7208453229432012,-108.34561791860324,421.6672989065178) " id="svg_264" fill="#3649ef" r="39.959999" cy="48.382351" cx="1059.998435"/>
   <circle stroke="null" transform="matrix(0.8788166787259768,0,0,0.7208453229432012,-108.34561791860324,421.6672989065178) " id="svg_265" fill="#3649ef" r="39.959999" cy="129.032351" cx="1199.848435"/>
   <circle stroke="null" transform="matrix(0.8788166787259768,0,0,0.7208453229432012,-108.34561791860324,421.6672989065178) " id="svg_266" fill="#3649ef" r="39.959999" cy="254.082351" cx="921.628435"/>
   <circle stroke="null" transform="matrix(0.8788166787259768,0,0,0.7208453229432012,-108.34561791860324,421.6672989065178) " id="svg_267" fill="#3649ef" r="39.959999" cy="271.402351" cx="1195.648435"/>
   <path stroke="null" id="svg_268" fill="#fff" d="m934.518395,503.117307c0,-0.591093 -0.043941,-1.254271 0,-1.91024c0.158187,-1.780488 1.274284,-2.883381 3.436173,-2.948257c4.165591,-0.108127 8.348758,-0.115335 12.51435,0c2.232194,0.050459 3.374656,1.182186 3.515267,3.02755c0.043941,0.619927 0,1.239854 0,2.061618l6.705371,0c0.650324,0 1.300649,0 1.950973,0c1.67854,0.064876 2.416746,0.612719 2.425534,1.953491c0,4.051151 0,8.095093 0,12.146244c0,0.382048 -0.061517,0.92989 -0.360315,1.110102c-1.239132,0.720845 -0.984275,1.780488 -0.984275,2.775254c0,1.823739 0,3.647477 0,5.471216c0,1.506567 -0.755782,2.162536 -2.574933,2.162536q-16.846916,0.043251 -33.676255,0c-1.91582,0 -2.63645,-0.641552 -2.63645,-2.227412c0,-2.162536 0,-4.267404 0,-6.401106a6.151717,5.045917 0 0 0 -0.62396,-1.384023a6.766888,5.550509 0 0 1 -0.685477,-1.701195c-0.061517,-3.91419 0,-7.82838 0,-11.74257c0,-1.593068 0.694265,-2.162536 2.689179,-2.162536c2.63645,0 5.2729,0 7.970867,-0.043251c-0.008788,0 0.087882,-0.079293 0.33395,-0.18742zm12.672537,16.831738a3.16374,2.595043 0 0 0 0.562443,0.050459l14.843214,-1.643527c1.001851,-0.108127 1.160038,-0.627135 1.160038,-1.326355c0,-3.741187 0,-7.475166 0,-11.209145c0,-0.944307 -0.33395,-1.355189 -1.58187,-1.355189q-17.892708,0.043251 -35.794203,0c-1.230343,0 -1.599446,0.396465 -1.590658,1.340772c0.043941,3.741187 0,7.475166 0,11.209145a1.432471,1.174978 0 0 0 1.4852,1.376815c3.005553,0.302755 6.011106,0.720845 9.016659,1.016392c2.01249,0.223462 4.02498,0.425299 6.019894,0.634344c0.571231,-2.162536 0.984275,-2.479708 3.040706,-2.465291c1.907032,0.014417 2.311288,0.346006 2.838578,2.371581zm15.106859,-0.425299c-4.543482,0.519009 -8.788167,1.059643 -13.120733,1.441691c-1.414895,0.136961 -2.293712,0.317172 -2.223406,1.737237c0.061517,1.124519 -0.95791,1.62911 -2.258559,1.665153s-2.979189,0.036042 -2.9704,-1.225437c0,-2.198578 -1.713693,-2.162536 -3.45375,-2.299497c-0.755782,-0.072085 -1.502777,-0.165794 -2.258559,-0.252296l-9.798806,-1.059643c0,2.299497 0.087882,4.42599 0,6.545276c-0.070305,1.333564 0.43062,1.751654 2.100372,1.744446c9.438491,-0.064876 18.876982,-0.036042 28.315473,-0.036042c1.467624,0 2.92646,0 4.394083,0c0.878817,0 1.318225,-0.245087 1.309437,-0.994767c-0.043941,-2.32833 -0.035153,-4.678286 -0.035153,-7.258912l0,-0.007208zm-18.042106,-20.183669c-1.898244,0 -3.796488,0 -5.694732,0a3.128587,2.566209 0 0 0 -2.583721,3.654686a0.878817,0.720845 0 0 0 0.659113,0.28113a0.799723,0.655969 0 0 0 0.62396,-0.302755a2.856154,2.342747 0 0 0 0.070305,-0.785721c0.061517,-1.72282 0.061517,-1.72282 2.20583,-1.72282c2.768273,0 5.536545,0 8.296029,0c1.019427,0 2.179465,-0.108127 2.979189,0.259504c0.439408,0.201837 0.237281,1.297522 0.395468,1.982325c0.052729,0.209045 0.298798,0.504592 0.509714,0.540634a0.878817,0.720845 0 0 0 0.808511,-0.252296c1.019427,-1.441691 -0.421832,-3.604227 -2.407958,-3.654686s-3.901946,0.007208 -5.861707,0.007208l0,-0.007208zm5.46624,2.321122l-10.932479,0l0,1.58586l10.932479,0l0,-1.58586zm-6.819617,19.24657l0,0c0,0.302755 0,0.612719 0,0.922682c-0.061517,0.843389 0.070305,1.441691 1.432471,1.441691s1.335801,-0.612719 1.309437,-1.376815s0,-1.499358 0,-2.249037s-0.553655,-1.088476 -1.327013,-0.922682a2.434322,1.996742 0 0 0 -1.34459,0.901057c-0.254857,0.338797 -0.070305,0.857806 -0.070305,1.30473l0,-0.021625z"/>
   <path stroke="null" id="svg_269" fill="#fff" d="m828.954936,458.936697l-13.56893,9.796288c0.544866,2.119285 1.089733,4.130444 1.537929,6.156019a3.515267,2.883381 0 0 1 -0.166975,1.708403a3.875582,3.178928 0 0 1 -1.634599,1.362398c-0.237281,0.09371 -1.098521,-0.547842 -1.432471,-0.987558c-1.24792,-1.643527 -2.390381,-3.337514 -3.515267,-4.995458c-5.044408,0.670386 -6.345056,-0.37484 -4.956526,-4.079985c-2.003702,-0.958724 -4.060133,-1.895823 -6.046259,-2.883381a8.515734,6.984991 0 0 1 -1.458836,-1.275896c0.755782,-0.475758 1.555506,-1.39844 2.258559,-1.347981c2.63645,0.18742 5.185018,0.720845 7.777528,1.081268a5.888072,4.829664 0 0 1 1.045792,0.331589c4.02498,-3.741187 8.041173,-7.475166 12.215552,-11.367731l-7.81268,-3.733979c-2.047643,-0.973141 -4.086498,-1.960699 -6.151717,-2.883381c-0.966698,-0.439716 -1.195191,-1.102893 -0.369103,-1.600277a7.197509,5.903723 0 0 1 3.515267,-1.369606a28.271533,23.189594 0 0 1 16.548118,3.647477c1.432471,-1.110102 2.777061,-2.162536 4.165591,-3.222179a11.178548,9.169153 0 0 1 8.832108,-2.357164c2.469475,0.165794 3.154952,0.756888 3.321927,2.825714a11.802508,9.680953 0 0 1 -4.042557,8.030217c-0.940334,0.720845 -1.924609,1.441691 -2.495839,1.845364c1.353378,3.481683 2.768273,6.696653 3.814064,9.990916a21.0916,17.300288 0 0 1 0.254857,4.779204a4.016192,3.294263 0 0 1 -0.95791,1.81653c-1.212767,1.203812 -1.950973,1.11731 -2.908883,-0.237879c-2.548568,-3.597018 -5.070772,-7.215662 -7.768739,-11.028933zm12.567079,-14.229487c-0.123034,-1.362398 0.175763,-2.551792 -2.082796,-2.616669a10.5458,8.650144 0 0 0 -8.788167,3.049176c-6.42415,6.019058 -12.901029,12.009283 -19.237297,18.093218a57.905231,47.496498 0 0 0 -4.859856,5.701887a2.276135,1.866989 0 0 0 0.09667,1.773279a2.381593,1.953491 0 0 0 2.188254,0.050459a24.35201,19.974624 0 0 0 4.587423,-2.407623q12.461621,-8.758271 24.78263,-17.639085a9.438491,7.741879 0 0 0 3.313139,-6.004642zm-3.304351,24.897997c2.214618,-2.486916 0,-11.187519 -3.515267,-14.669202l-4.543482,3.157303l8.058749,11.5119zm-4.200744,-10.495508a27.94637,22.922881 0 0 0 -15.8187,-3.604227a10.83581,8.888023 0 0 0 -2.44311,0.641552l6.23081,-4.721537l12.031,7.684211zm-9.956993,23.881606a14.113796,11.576776 0 0 0 -8.489369,-1.160561l6.722948,3.193345l1.766422,-2.032784zm21.328881,-1.852572a11.081878,9.08986 0 0 0 -31.672553,-11.346105l-2.372805,1.441691l34.045358,9.904415z"/>
   <path stroke="null" id="svg_270" fill="#fff" d="m839.210727,447.172501a1.907032,1.564234 0 0 1 -0.131823,0.720845a8.172995,6.703862 0 0 1 -1.089733,0.994767a4.244685,3.481683 0 0 1 -0.351527,-1.203812c0.316374,-1.72282 -0.8173,-2.616669 -2.979189,-2.342747a4.095286,3.359139 0 0 1 -1.38853,-0.237879c0.351527,-0.32438 0.62396,-0.79293 1.05458,-0.92989a3.699818,3.034759 0 0 1 4.886221,2.998717z"/>
   <path stroke="null" id="svg_271" fill="#fff" d="m725.439119,484.396954c6.23081,0.720845 6.608701,1.052434 6.608701,6.119977c0,0.850597 0,1.701195 0,2.544584c-0.158187,2.32833 -1.704904,3.560976 -4.543482,3.654686c-0.580019,0 -1.15125,0 -1.87188,0c-0.087882,0.338797 -0.158187,0.634344 -0.237281,0.922682c-0.62396,2.241829 -1.91582,3.157303 -4.728034,3.164511q-12.575867,0 -25.160522,0c-3.075858,0 -4.156803,-0.908265 -4.974102,-3.935815a1.493988,1.225437 0 0 0 -0.509714,-0.129752c-4.086498,0.302755 -6.257175,-1.189395 -5.967165,-5.045917c0.070305,-0.893848 0,-1.794905 0,-2.695962c0,-3.135677 1.423683,-4.325072 5.202595,-4.404365c0.377891,0 0.755782,0 1.38853,-0.057668c0,-3.474474 0,-6.891281 0,-10.308088c0,-0.295547 -0.483349,-0.720845 -0.878817,-0.857806a4.235896,3.474474 0 0 1 -2.320076,-3.236596c0,-1.110102 0,-2.220204 0,-3.337514c0.070305,-2.623877 1.529141,-3.834897 4.780763,-3.899773c2.574933,-0.050459 5.158654,0 7.742375,0c0.984275,0 1.757633,-0.057668 2.082796,-0.994767a1.968549,1.614694 0 0 1 0.571231,-0.627135c2.355229,-2.068826 9.763653,-1.441691 11.670685,0.857806a2.337652,1.917449 0 0 0 1.652175,0.720845c2.63645,0.079293 5.2729,0 7.90935,0.050459c3.339503,0.057668 4.771975,1.275896 4.824704,4.029525a19.043957,15.620718 0 0 1 -0.123034,3.604227a5.624427,4.61341 0 0 1 -1.907032,2.559001a2.407958,1.975116 0 0 0 -1.230343,1.866989c0.043941,3.114052 0.017576,6.235312 0.017576,9.435865zm-32.98199,-10.62526c-0.052729,0.562259 -0.114246,0.973141 -0.114246,1.391231q0,10.639677 0,21.279354c0,2.436457 0.773359,3.034759 3.858005,3.034759l23.613804,0c3.251622,0 3.945887,-0.576676 3.945887,-3.287055q0,-10.387381 0,-20.796388l0,-1.607485l-3.313139,0a17.576334,14.416906 0 0 0 0.070305,3.020342c0.158187,0.612719 1.362166,1.124519 1.353378,1.672361s-0.949122,1.081268 -1.476412,1.643527c-0.184552,0.209045 -0.210916,0.504592 -0.377891,0.720845a2.416746,1.982325 0 0 1 -4.060133,0.050459c-0.659113,-0.850597 -1.24792,-1.737237 -1.933397,-2.695962c2.63645,-0.908265 1.028216,-2.79688 1.450048,-4.38274l-14.76412,0c0.263645,1.672361 -1.098521,3.546559 1.467624,4.476449a17.866343,14.654785 0 0 1 -1.67854,1.946282c-0.694265,0.583885 -1.590658,1.441691 -2.381593,1.441691s-1.617023,-0.908265 -2.328864,-1.49215c-0.272433,-0.216254 -0.175763,-0.872223 -0.413044,-0.944307c-2.908883,-0.872223 -0.641536,-1.218229 0.166975,-1.672361l0,-3.798855l-3.084647,0zm25.93388,-9.443074l-17.681792,0l0,7.929299l14.632298,0l3.049494,-7.929299zm-19.782163,-0.122544c-2.144313,0.338797 -5.044408,-0.973141 -5.967165,1.102893a11.020361,9.0394 0 0 0 0.140611,6.083935c0.931546,1.809322 3.752547,0.720845 5.826555,0.893848l0,-8.080676zm21.926476,0.180211c2.188254,-0.555051 5.105925,0.821764 5.967165,-1.218229a11.257642,9.234029 0 0 0 -0.131823,-6.091143c-0.878817,-1.830947 -3.761335,-0.670386 -5.835343,-0.92989l0,8.239262zm-51.902913,29.662785c-4.130438,-0.295547 -4.84228,0.245087 -4.851068,3.510517l0,2.37879c0,3.178928 0.931546,3.834897 4.851068,3.344722l0,-9.234029zm64.856671,-29.842996l0,9.370989c4.31499,0.216254 4.947738,-0.273921 4.947738,-3.604227l0,19.556534c-8.049961,-3.294263 -8.72665,-3.791646 -12.997699,-3.560976l8.049961,-21.76232zm-26.487535,-21.560484l-0.518502,-0.302755c-0.386679,0.32438 -1.089733,0.641552 -1.107309,0.973141c-0.105458,2.112077 -0.087882,4.224154 0,6.33623c0,0.295547 0.474561,0.583885 0.738206,0.872223c0.298798,-0.309963 0.878817,-0.612719 0.878817,-0.92989c-7.997232,19.477241 -8.041173,17.127285 -8.041173,14.813371l8.049961,-21.76232zm46.340003,21.517233l-35.055997,-0.072085c-0.369103,0.346006 -1.037004,0.684803 -1.05458,1.038017c-0.09667,2.112077 -0.079094,4.224154 0,6.33623c0,0.28113 0.52729,0.555051 0.799723,0.828972c0.281221,-0.273921 0.790935,-0.547842 0.799723,-0.828972c0.008788,-2.393206 -0.017576,-4.735954 -0.017576,-7.100326l34.528707,-0.201837zm-15.467174,-1.672361l-25.151733,0c-1.819151,-1.499358 -7.434789,-1.513775 -9.376974,0.201837l34.528707,-0.201837zm9.39455,14.647577a4.165591,3.416807 0 0 0 0,1.088476a5.360782,4.397156 0 0 0 -49.196158,-0.504592a4.007404,3.287055 0 0 0 0.878817,-0.987558a4.288625,3.517725 0 0 0 0,-1.549817a8.673921,7.114743 0 0 0 -0.8173,-1.441691c-0.281221,0.475758 -0.580019,0.951516 -0.878817,1.441691a1.511565,1.239854 0 0 0 0.026365,0.454133l49.987093,1.499358zm21.539797,0.173003a4.455601,3.654686 0 0 0 0,-1.088476a5.211383,4.274613 0 0 0 -0.799723,-0.987558c-0.281221,0.317172 -0.729418,0.60551 -0.826088,0.958724a5.2729,4.325072 0 0 0 0,1.715612a6.485667,5.319838 0 0 0 -49.213734,-0.18742c0.281221,-0.425299 0.597595,-0.843389 0.878817,-1.283105a2.01249,1.650736 0 0 0 -0.026365,-0.627135l49.987093,1.499358z"/>
   <path stroke="null" id="svg_272" fill="#fff" d="m708.047337,498.093015c-3.418597,0 -6.837194,-0.057668 -10.247002,0c-1.757633,0.043251 -2.232194,-0.475758 -2.179465,-1.845364c0.105458,-2.955466 0.061517,-5.91814 0,-8.880814c0,-1.07406 0.421832,-1.520984 1.757633,-1.520984q10.633682,0.057668 21.276152,0c1.362166,0 1.757633,0.454133 1.757633,1.520984c-0.052729,3.070801 -0.070305,6.134394 0,9.197986c0,1.254271 -0.659113,1.528192 -1.986126,1.520984c-3.418597,-0.014417 -6.898711,0.007208 -10.378825,0.007208zm10.378825,-10.769429l-20.75765,0a6.582337,5.399131 0 0 0 5.747461,5.182878c1.432471,0.129752 3.339503,0.937099 4.227108,-0.951516a1.160038,0.951516 0 0 1 0.808511,0c0.878817,1.895823 2.794637,1.081268 4.227108,0.951516a6.582337,5.399131 0 0 0 5.747461,-5.182878zm0.325162,3.604227c-2.522204,2.429249 -5.501392,3.150094 -8.858472,3.135677c-0.377891,0 -0.703053,0.583885 -1.142462,0.720845a2.144313,1.758863 0 0 1 -1.406107,0c-0.597595,-0.173003 -1.124885,-0.720845 -1.704904,-0.720845c-2.434322,-0.122544 -4.736822,-0.482966 -6.670219,-1.802113c-0.500926,-0.338797 -0.975487,-0.720845 -1.573082,-1.131727l0,5.427965l21.355245,0l0,-5.629802z"/>
   <path stroke="null" id="svg_273" fill="#fff" d="m702.923836,624.932958a23.780779,19.506074 0 0 1 -21.610102,-27.392122a5.765037,4.728745 0 0 1 0.483349,-0.814555a8.023596,6.581318 0 0 0 1.529141,-4.70712c-0.536078,-4.325072 5.316841,-7.208453 10.141544,-5.291005a3.875582,3.178928 0 0 0 2.548568,0.209045a23.640169,19.390739 0 0 1 30.424633,16.579442a23.376524,19.174486 0 0 1 -19.483366,21.01985c-1.335801,0.237879 -2.689179,0.273921 -4.033769,0.396465zm1.757633,-9.702578c-0.272433,2.227412 -0.878817,4.216945 -3.796488,5.262171c-0.52729,0.18742 -0.703053,1.535401 -0.553655,2.28508c0.070305,0.360423 1.265496,0.79293 1.959761,0.814555a21.0916,17.300288 0 0 0 4.569847,-0.259504a21.741925,17.833713 0 0 0 15.142011,-8.722228l-2.63645,-0.965933c-1.476412,1.838156 -2.882519,3.546559 -4.253473,5.283796c-0.8173,1.030809 -1.537929,0.987558 -2.346441,0s-1.757633,-2.162536 -2.785849,-3.330305c-0.580019,0.569468 -1.019427,1.045226 -1.493988,1.484941c-1.15125,1.059643 -2.407958,0.98035 -3.242834,-0.259504a10.87975,8.924065 0 0 1 -0.606384,-1.557026a42.033802,34.478032 0 0 1 -0.52729,-3.532142c0,-1.160561 -0.615172,-1.888615 -1.968549,-2.00395a28.913069,23.715811 0 0 0 -5.2729,-0.136961c-2.53978,0.180211 -4.262261,-0.526217 -4.903797,-2.321122s0.158187,-2.688753 2.777061,-3.748396a31.083746,25.496299 0 0 0 6.652642,-3.380765c2.091584,-1.477733 2.038855,-2.732004 0.325162,-4.498075c-2.267347,-2.335539 -2.715544,-4.779204 -1.160038,-7.475166a4.499541,3.690728 0 0 0 0.149399,-0.720845l-4.868644,0.879431a6.898711,5.658636 0 0 1 0.439408,6.595735c-1.458836,2.162536 -3.058282,4.260196 -4.692881,6.33623c-1.063368,1.340772 -1.537929,1.319147 -2.63645,0c-1.502777,-1.802113 -2.935248,-3.647477 -4.525906,-5.644219c-0.518502,0.828972 -1.203979,1.441691 -1.300649,2.162536c-0.544866,3.957441 -0.509714,7.994175 1.810362,11.533525c2.908883,4.447616 5.571698,4.808038 10.062451,3.193345c0.448197,-0.158586 0.922758,-0.273921 1.370954,-0.439716c3.304351,-1.160561 5.668368,-0.468549 7.346907,2.126494a12.619808,10.351339 0 0 0 0.922758,1.038017l0.043941,0zm18.042106,-1.859781a20.370971,16.709195 0 0 0 2.381593,-7.929299c-0.052729,-2.51575 -1.318225,-4.137652 -4.279837,-4.872914c-1.353378,-0.338797 -2.908883,-0.086501 -4.394083,-0.252296a27.840912,22.83638 0 0 1 -6.055047,-1.001975c-2.117948,-0.720845 -3.031918,-2.811297 -2.530992,-4.764788c0.536078,-2.09766 1.660964,-2.804088 4.490753,-3.07801a14.412594,11.821863 0 0 0 2.979189,-0.901057a21.0916,17.300288 0 0 0 -11.811296,-3.12126c-0.395468,0 -0.949122,0.403673 -1.177614,0.720845a6.687795,5.485633 0 0 0 0.606384,6.602943c2.276135,2.385998 2.197042,4.418782 -0.606384,6.38669c-2.091584,1.441691 -4.701669,2.479708 -7.171144,3.568184c-1.037004,0.461341 -2.126736,0.720845 -1.757633,1.924657a2.381593,1.953491 0 0 0 2.838578,1.636319a22.040722,18.078801 0 0 1 5.325629,0c3.321927,0.403673 4.02498,1.319147 4.112862,4.087193a40.601331,33.303054 0 0 0 0.8173,4.245779c2.759484,-2.018367 2.750696,-2.018367 1.476412,-4.166486c-0.237281,-0.410882 -0.465773,-0.828972 -0.650324,-1.254271a6.881135,5.644219 0 0 1 3.831641,-7.150786a7.118415,5.838847 0 0 1 9.113329,2.775254c1.15125,1.881406 0.755782,3.697937 -0.210916,5.557717l2.671603,0.987558zm-39.581903,12.622002c-0.19334,-1.838156 0.131823,-3.337514 2.214618,-4.245779s2.557357,-2.414832 1.511565,-4.202528s-2.891307,-2.357164 -5.009255,-1.621902c-0.878817,0.317172 -1.801574,0.641552 -2.724332,0.915474c-4.02498,1.203812 -7.100839,0.569468 -9.570314,-2.292288a22.278003,18.273429 0 0 1 -2.63645,-4.584576a36.136942,29.64116 0 0 1 -1.019427,-4.281821c13.129521,5.341464 20.406123,15.692803 32.604099,17.466082l-15.370504,2.847339zm39.775243,-42.479415c-1.529141,0.497383 -2.82979,1.203812 -4.191956,1.290313c-1.950973,0.129752 -2.952824,0.785721 -3.242834,2.299497a3.708606,3.041967 0 0 0 2.451899,3.474474a10.5458,8.650144 0 0 0 3.761335,0.583885c2.908883,-0.201837 5.729885,-0.32438 8.287241,1.239854a20.107326,16.492941 0 0 0 -13.234979,-0.987558l6.169293,-7.900465zm-3.16374,26.418981l0.746994,0.100918c1.617023,-2.472499 3.277986,-4.923374 4.807127,-7.431915a4.033769,3.30868 0 0 0 0.175763,-1.917449a5.211383,4.274613 0 0 0 -4.051345,-3.524934a5.044408,4.137652 0 0 0 -5.360782,1.290313a4.833492,3.964649 0 0 0 -0.878817,4.764788c-4.815915,10.185544 -3.154952,12.384123 -1.608235,14.618743l6.169293,-7.900465zm-23.648957,-17.458874l0.703053,0c1.546717,-2.28508 3.207681,-4.5197 4.587423,-6.862447a5.053196,4.144861 0 0 0 -1.713693,-5.247754a5.527757,4.534117 0 0 0 -6.696583,0.115335a5.053196,4.144861 0 0 0 -1.502777,5.298213c-4.763186,10.163919 -3.075858,12.369706 -1.546717,14.597118l6.169293,-7.900465z"/>
   <path stroke="null" id="svg_274" fill="#fff" d="m710.806822,608.663479a3.190105,2.616669 0 0 1 3.321927,-2.465291a3.084647,2.530167 0 0 1 2.891307,2.623877a3.023129,2.479708 0 0 1 -3.269198,2.443666a3.128587,2.566209 0 0 1 -2.944036,-2.602252zm3.181316,-1.730029c-0.738206,0.857806 -1.502777,1.355189 -1.441259,1.780488s0.878817,0.857806 1.370954,1.283105c0.518502,-0.403673 1.370954,-0.771304 1.458836,-1.232646s-0.676689,-0.951516 -1.38853,-1.830947z"/>
   <path stroke="null" id="svg_275" fill="#fff" d="m690.268876,593.821274a3.26041,2.674336 0 0 1 -3.16374,-2.472499a3.137376,2.573418 0 0 1 3.102223,-2.616669a3.023129,2.479708 0 0 1 3.111011,2.436457a3.128587,2.566209 0 0 1 -3.049494,2.652711zm0.052729,-4.389948c-0.746994,0.828972 -1.520353,1.319147 -1.476412,1.758863s0.878817,1.196603 1.34459,1.196603a2.038855,1.672361 0 0 0 1.493988,-1.110102c0.079094,-0.432507 -0.641536,-0.965933 -1.362166,-1.823739l0,-0.021625z"/>
   <path stroke="null" id="svg_276" fill="#fff" d="m944.141438,637.028743a23.139243,18.979857 0 1 1 23.077726,-18.994274a23.191972,19.023108 0 0 1 -23.077726,18.994274zm-21.706772,-18.979857a21.61889,17.732795 0 1 0 21.706772,-17.725586a21.71556,17.812088 0 0 0 -21.706772,17.725586z"/>
   <path stroke="null" id="svg_277" fill="#fff" d="m944.141438,602.269581a19.246085,15.786513 0 1 1 -19.333967,15.779304a19.210933,15.757679 0 0 1 19.333967,-15.779304zm17.673003,15.808138a17.725732,14.53945 0 1 0 -17.725732,14.517825a17.866343,14.654785 0 0 0 17.69058,-14.517825l0.035153,0z"/>
   <path stroke="null" id="svg_278" fill="#fff" d="m932.787127,627.758672a6.265963,5.139627 0 0 1 0.184552,-1.686778c1.757633,-2.587835 3.69103,-5.089168 5.2729,-7.727462a13.068004,10.71897 0 0 1 6.204446,-5.045917c3.16374,-1.283105 6.151717,-2.883381 9.262728,-4.267404a5.2729,4.325072 0 0 1 1.617023,-0.230671a4.763186,3.906982 0 0 1 -0.263645,1.326355q-3.462538,5.096376 -7.030533,10.135085a3.515267,2.883381 0 0 1 -1.221555,1.038017c-4.209532,2.00395 -8.43664,3.971858 -12.663748,5.946974c-0.254857,0.100918 -0.553655,0.18742 -1.362166,0.5118zm2.917671,-3.092426l0.29001,0.237879l9.420915,-4.454824c-1.450048,-1.275896 -2.785849,-2.443666 -4.209532,-3.705145c-1.880668,2.717587 -3.69103,5.319838 -5.501392,7.92209zm16.697517,-13.220303l-0.29001,-0.230671l-9.376974,4.397156l4.165591,3.72677l5.501392,-7.893256z"/>
   <path stroke="null" id="svg_279" fill="#fff" d="m943.306562,606.536985a2.293712,1.881406 0 0 1 0,-0.720845a7.311755,5.997433 0 0 1 0.790935,-0.951516a3.515267,2.883381 0 0 1 0.650324,0.901057a6.555972,5.377506 0 0 1 0,1.766071c-0.070305,0.346006 -0.500926,0.634344 -0.773359,0.951516a5.2729,4.325072 0 0 1 -0.650324,-0.908265a4.604999,3.777229 0 0 1 -0.017576,-1.038017z"/>
   <path stroke="null" id="svg_280" fill="#fff" d="m930.220982,618.964359l-2.258559,-0.843389a7.5754,6.213687 0 0 1 2.214618,-0.634344a7.434789,6.098351 0 0 1 2.197042,0.504592l-2.153101,0.973141z"/>
   <path stroke="null" id="svg_281" fill="#fff" d="m958.026742,618.668812a0.984275,0.807347 0 0 1 -0.360315,0c-0.650324,-0.194628 -1.291861,-0.403673 -1.942185,-0.612719l1.950973,-0.60551a0.597595,0.490175 0 0 1 0.351527,0l2.117948,0.612719l-1.942185,0.850597l-0.175763,-0.245087z"/>
   <path stroke="null" id="svg_282" fill="#fff" d="m944.791762,629.575202a2.293712,1.881406 0 0 1 0,0.720845a7.733587,6.343439 0 0 1 -0.790935,0.951516c-0.219704,-0.302755 -0.588807,-0.583885 -0.650324,-0.908265a6.503243,5.334255 0 0 1 0,-1.758863c0.079094,-0.346006 0.500926,-0.641552 0.773359,-0.958724a5.395934,4.42599 0 0 1 0.659113,0.915474a4.991679,4.094401 0 0 1 0.008788,1.038017z"/>
  </g>

  <defs>
   <linearGradient y2="-0.883478" x2="-0.520679" y1="0.902596" x1="0.750996" id="svg_393">
    <stop stop-opacity="0" offset="0"/>
    <stop offset="0.99"/>
   </linearGradient>
   <linearGradient xlink:href="#svg_393" y2="335.59" x2="305.38" y1="329.23" x1="243.75" id="svg_392"/>
   <linearGradient xlink:href="#svg_393" y2="108.66" x2="461.85" y1="108.66" x1="121.74" id="svg_391"/>
   <linearGradient xlink:href="#svg_393" y2="415.99" x2="314.02" y1="-46.13" x1="288.59" id="svg_390"/>
   <linearGradient y2="6.105887" x2="0.50003" y1="-0.873039" x1="0.50003" id="svg_389">
    <stop stop-opacity="0" offset="0"/>
    <stop stop-opacity="0.41" offset="0.41"/>
    <stop offset="0.99"/>
   </linearGradient>
   <linearGradient xlink:href="#svg_389" y2="413.1" x2="311.75" y1="392.64" x1="310.64" id="svg_388"/>
   <linearGradient xlink:href="#svg_393" y2="196" x2="208.09" y1="234.78" x1="209.45" id="svg_387"/>
   <linearGradient y2="0.500604" x2="0.999491" y1="0.500604" x1="0.000549" id="svg_386">
    <stop stop-color="#ecc4d7" offset="0"/>
    <stop stop-color="#efd4d1" offset="0.42"/>
    <stop stop-color="#f2eac9" offset="1"/>
   </linearGradient>
   <linearGradient xlink:href="#svg_393" y2="213.3" x2="253.32" y1="330.49" x1="268.52" id="svg_385"/>
   <linearGradient xlink:href="#svg_386" y2="274.73" x2="248.97" y1="274.73" x1="236.72" id="svg_384"/>
   <linearGradient xlink:href="#svg_386" y2="294.68" x2="262.36" y1="294.68" x1="255.75" id="svg_383"/>
   <linearGradient xlink:href="#svg_386" y2="283.76" x2="266.78" y1="283.76" x1="254.41" id="svg_382"/>
  </defs>
  <!-- Created with Method Draw - http://github.com/duopixel/Method-Draw/ -->
  <g stroke="null" id="svg_447">
   <g stroke="null" transform="matrix(0.5869493325251728,0,0,0.5219074238996573,-248.421771412432,-83.11536361908702) " id="svg_395">
    <path stroke="null" id="svg_396" opacity="0.18" fill="#3649ef" d="m1153.53598,733.687584c-49.12,122.23 -6.28,194 -2.17,212.61c6.22,28.25 45.75,154.83 193.74,121.32c30.59,-6.93 76.47,-29.23 107.76,-31.41c26.43,-1.85 52.42,6.33 78.75,9.27s56.17,-0.89 73.3,-21.09c15.05,-17.76 16.24,-43.44 12.86,-66.48s-10.56,-45.77 -9.51,-69c1,-21.16 8.69,-41.33 14.36,-61.74c8.46,-30.45 12.41,-62.88 5.28,-93.66s-26.57,-59.75 -55.27,-73c-55.61,-25.66 -124.61,13.05 -181.2,-10.51c-31,-12.9 -191.74,-31.2 -237.9,83.69z"/>
    <path stroke="null" id="svg_397" fill="#3f3d56" d="m1364.24598,863.147584a3.85,3.85 0 0 0 -0.66,-2.3a1.75,1.75 0 0 0 -2.16,-0.54c-0.39,0.23 -0.65,0.66 -1.06,0.87s-1.09,-0.08 -0.95,-0.52c-1.87,0.29 -3.18,1.92 -4.78,2.92c-1.27,0.78 -2.75,1.18 -4,1.94s-2.42,2.11 -2.26,3.59a5.34,5.34 0 0 1 0.16,1.42a4.83,4.83 0 0 1 -0.38,0.95a4.27,4.27 0 0 0 0.37,3.32c0.5,1 1.19,2 1.6,3a23.68,23.68 0 0 0 1.1,3.2c0.56,1 1.79,1.74 2.81,1.25c-0.85,-1.3 -0.32,-3 0.29,-4.47c1,-2.3 2.15,-4.68 4.28,-6a8.15,8.15 0 0 0 2.32,-1.62a19.57,19.57 0 0 0 1.16,-1.92c1.11,-1.68 2.2,-2.85 2.16,-5.09z"/>
    <path stroke="null" id="svg_398" fill="#3649ef" d="m1345.07598,878.577584a3.63,3.63 0 0 0 -1,-1c-1.23,-0.71 -2.74,0.22 -3.82,1.14a52.16,52.16 0 0 0 -4.22,4.06a3.59,3.59 0 0 0 -1.01,1.67a3.4,3.4 0 0 0 0.29,1.8a25.47,25.47 0 0 0 7.06,10.24a3.28,3.28 0 0 0 1.75,0.94a3.4,3.4 0 0 0 1.84,-0.54l7.83,-4c1.42,-0.73 3.11,-1.83 2.49,-3.7c-0.41,-1.21 -1.7,-1.62 -2.67,-2.31a41.64,41.64 0 0 1 -8.54,-8.3z"/>
    <path stroke="null" id="svg_399" fill="url(#svg_393)" d="m1345.07598,878.667584a3.6,3.6 0 0 0 -1,-1c-1.23,-0.71 -2.74,0.21 -3.82,1.13a52.16,52.16 0 0 0 -4.23,4.05a3.63,3.63 0 0 0 -1.05,1.7a3.45,3.45 0 0 0 0.29,1.81a25.51,25.51 0 0 0 7.06,10.23a3.3,3.3 0 0 0 1.75,0.95a3.5,3.5 0 0 0 1.84,-0.55l7.83,-4c1.42,-0.73 3.11,-1.83 2.49,-3.7c-0.41,-1.2 -1.7,-1.61 -2.67,-2.31a41.39,41.39 0 0 1 -8.49,-8.31z"/>
    <path stroke="null" id="svg_400" fill="#3649ef" d="m1363.63598,897.557584c0.95,3.95 0.66,8.07 0.36,12.12c-0.89,12.3 -1.81,24.74 -5.66,36.45c-1,3.11 -2.38,6.32 -5,8.22c-4.33,3.09 -10.84,1.39 -14.27,-2.67s-4.27,-9.76 -3.82,-15.06s2,-10.43 2.93,-15.67c1.49,-8.82 0,-22.68 6.07,-30c6.48,-7.88 17.39,-1.79 19.39,6.61z"/>
    <path stroke="null" id="svg_401" fill="url(#svg_392)" d="m1363.63598,897.557584c0.95,3.95 0.66,8.07 0.36,12.12c-0.89,12.3 -1.81,24.74 -5.66,36.45c-1,3.11 -2.38,6.32 -5,8.22c-4.33,3.09 -10.84,1.39 -14.27,-2.67s-4.27,-9.76 -3.82,-15.06s2,-10.43 2.93,-15.67c1.49,-8.82 0,-22.68 6.07,-30c6.48,-7.88 17.39,-1.79 19.39,6.61z"/>
    <path stroke="null" id="svg_402" fill="#3f3d56" d="m1357.57598,948.167584a35.06,35.06 0 0 0 -0.48,3.5a99.15,99.15 0 0 1 -7.49,21.7c-1.55,3.24 -3.3,6.43 -4.24,9.9c-1.31,4.79 -1,9.88 -0.37,14.81c0.87,6.79 2.77,11.39 4.22,18.08c-1.18,0.82 -11.41,7.15 -12.85,7.33c-2.9,-1.94 5,-7.84 4.91,-8.85c-0.42,-5.18 -1,-6.47 -2.55,-10.93c-1.3,-3.85 -2.62,-7.7 -3.7,-11.61a38.38,38.38 0 0 1 -1.77,-11.91a46,46 0 0 1 1.39,-8.22l3.21,-13.92l-13,10a5.18,5.18 0 0 0 -1.51,1.55a5,5 0 0 0 -0.3,2.91a82.91,82.91 0 0 0 6.27,24.14l-7.29,7.32a11.46,11.46 0 0 1 -4.47,3.17c-1.2,-1.16 -0.63,-3.21 0.32,-4.58s3.88,-3.39 4,-5.05c0.06,-0.73 -2.72,-4.83 -2.9,-5.53c-2.1,-8.44 -3.35,-12.77 -4.26,-21.42a22.66,22.66 0 0 1 0,-6.21c0.85,-4.71 4.23,-8.51 7.48,-12c4.9,-5.33 8.63,-9.6 12.8,-14.43c2,2.45 4.58,6.88 14.1,9.33c3.78,0.93 6.21,0.4 8.48,0.92z"/>
    <path stroke="null" id="svg_403" fill="url(#svg_391)" d="m1558.87598,753.717584a44.25,44.25 0 0 1 -44.23,44.23l-91.48,0a40.53,40.53 0 0 1 -6,-0.43a59.6,59.6 0 0 1 -7.23,0.43l-128.84,0a62.33,62.33 0 1 1 0,-124.65l25.38,0a81.3,81.3 0 0 1 160.33,-5.85l7.88,0a40.85,40.85 0 0 1 40.86,40.84c0,0.41 0,0.82 0,1.21a44.21,44.21 0 0 1 43.33,44.22z"/>
    <path stroke="null" id="svg_404" fill="#3649ef" d="m1548.92598,743.767584a44.25,44.25 0 0 1 -44.23,44.23l-91.47,0a40.67,40.67 0 0 1 -6,-0.43a59.56,59.56 0 0 1 -7.22,0.43l-128.86,0a62.33,62.33 0 1 1 0,-124.65l25.38,0a81.29,81.29 0 0 1 160.33,-5.85l7.88,0a40.85,40.85 0 0 1 40.86,40.83c0,0.42 0,0.83 0,1.22a44.22,44.22 0 0 1 43.33,44.22z"/>
    <path stroke="null" id="svg_405" fill="url(#svg_390)" d="m1548.92598,743.767584a44.25,44.25 0 0 1 -44.23,44.23l-91.47,0a40.67,40.67 0 0 1 -6,-0.43a59.56,59.56 0 0 1 -7.22,0.43l-125.13,0a62.33,62.33 0 0 1 31.09,-116.36l25.39,0a81.31,81.31 0 0 1 80.67,-71.03l1,0a81.39,81.39 0 0 1 43.86,56.88l7.88,0a40.85,40.85 0 0 1 40.86,40.83c0,0.42 0,0.83 0,1.22a44.22,44.22 0 0 1 43.3,44.23z"/>
    <path stroke="null" id="svg_406" fill="#3649ef" d="m1195.23598,957.147584l-4.91,0l0,-190.2a17.91,17.91 0 0 1 17.89,-17.88l31,0l0,4.91l-31,0a13,13 0 0 0 -13,13l0.02,190.17z"/>
    <path stroke="null" id="svg_407" fill="#3649ef" d="m1597.65598,957.147584l-4.9,0l0,-190.2a13,13 0 0 0 -13,-13l-31,0l0,-4.91l31,0a17.9,17.9 0 0 1 17.88,17.88l0.02,190.23z"/>
    <rect stroke="null" id="svg_408" fill="#3649ef" rx="19.41" height="137.09" width="85.13" y="866.497584" x="1549.605979"/>
    <path stroke="null" id="svg_409" fill="#fff" d="m1628.90598,885.687584l0,86.62a12.46,12.46 0 0 1 -12.46,12.46l-48.85,0a12.46,12.46 0 0 1 -12.47,-12.46l0,-86.62a12.48,12.48 0 0 1 12.47,-12.48l48.85,0a12.47,12.47 0 0 1 12.46,12.48z"/>
    <rect stroke="null" id="svg_410" fill="#fff" rx="4.15" height="8.29" width="28.01" y="990.507584" x="1579.175979"/>
    <rect stroke="null" id="svg_411" fill="#3649ef" rx="13.45" height="96.18" width="167.49" y="903.537584" x="1147.185979"/>
    <rect stroke="null" id="svg_412" fill="#fff" rx="12.31" height="86.22" width="156.58" y="908.247584" x="1152.835979"/>
    <path stroke="null" id="svg_413" fill="#3649ef" d="m1314.66598,1006.037584a6.3,6.3 0 0 1 -6.32,6.32l-154.84,0a6.32,6.32 0 1 1 0,-12.64l154.84,0a6.34,6.34 0 0 1 6.32,6.32z"/>
    <path stroke="null" id="svg_414" fill="url(#svg_389)" d="m1313.47598,1002.357584a5.38,5.38 0 0 1 -0.65,0.78a6.31,6.31 0 0 1 -4.48,1.86l-154.84,0a6.31,6.31 0 0 1 -5.14,-2.64a6.22,6.22 0 0 1 5.14,-2.64l154.84,0a6.28,6.28 0 0 1 5.13,2.64z"/>
    <path stroke="null" id="svg_415" fill="#3649ef" d="m1497.73598,936.387584l-80.16,0c-1.35,0 -3.4,-1.1 -3.4,-2.45s2.05,-2.46 3.4,-2.46l80.16,0a17.64,17.64 0 0 0 17.63,-17.62l0,-72.68a12.59,12.59 0 0 0 -12.58,-12.58l-56.5,0a15.52,15.52 0 0 1 -15.5,-15.5l0,-18.46a2.46,2.46 0 1 1 4.91,0l0,18.46a10.6,10.6 0 0 0 10.59,10.59l56.5,0a17.51,17.51 0 0 1 17.49,17.49l0,72.68a22.56,22.56 0 0 1 -22.54,22.53z"/>
    <rect stroke="null" id="svg_416" opacity="0.18" fill="#3649ef" rx="3.32" height="6.63" width="54.17" y="902.617584" x="1565.915979"/>
    <rect stroke="null" id="svg_417" opacity="0.18" fill="#3649ef" rx="3.32" height="6.63" width="54.17" y="915.697584" x="1565.915979"/>
    <rect stroke="null" id="svg_418" opacity="0.18" fill="#3649ef" rx="3.32" height="6.63" width="54.17" y="928.777584" x="1565.915979"/>
    <rect stroke="null" id="svg_419" opacity="0.18" fill="#3649ef" rx="3.32" height="6.63" width="54.17" y="941.857584" x="1565.915979"/>
    <rect stroke="null" id="svg_420" opacity="0.18" fill="#3649ef" rx="3.32" height="6.63" width="54.17" y="928.317584" x="1172.055979"/>
    <rect stroke="null" id="svg_421" opacity="0.18" fill="#3649ef" rx="3.32" height="6.63" width="54.17" y="941.397584" x="1172.055979"/>
    <rect stroke="null" id="svg_422" opacity="0.18" fill="#3649ef" rx="3.32" height="6.63" width="54.17" y="954.487584" x="1172.055979"/>
    <rect stroke="null" id="svg_423" opacity="0.18" fill="#3649ef" rx="3.32" height="6.63" width="54.17" y="967.567584" x="1172.055979"/>
    <path stroke="null" id="svg_424" opacity="0.18" fill="#3649ef" d="m1304.60598,910.807584l-151.77,54.09l0,-44.33a12.32,12.32 0 0 1 12.32,-12.32l131.94,0a12.21,12.21 0 0 1 7.51,2.56z"/>
    <path stroke="null" id="svg_425" opacity="0.18" fill="#3649ef" d="m1309.41598,957.507584l0,24.64a12.31,12.31 0 0 1 -12.32,12.3l-79.88,0l92.2,-36.94z"/>
    <g stroke="null" id="svg_426">
     <rect stroke="null" id="svg_427" fill="#3649ef" rx="10.91" height="127.14" width="107.24" y="867.607584" x="1386.445979"/>
     <path stroke="null" id="svg_428" fill="#fff" d="m1488.65598,882.177584l0,95.27a9.85,9.85 0 0 1 -9.86,9.86l-77.24,0a9.86,9.86 0 0 1 -9.87,-9.86l0,-95.27a9.87,9.87 0 0 1 9.87,-9.86l77.24,0a9.86,9.86 0 0 1 9.86,9.86z"/>
     <polygon stroke="null" id="svg_429" opacity="0.18" fill="#3649ef" points="1404.865930557251,917.357780456543 1418.8760623931885,911.087760925293 1435.8260135650635,925.457878112793 1453.145959854126,902.617790222168 1470.4661502838135,926.937858581543 1470.4661502838135,943.7477340698242 1405.545862197876,943.7477340698242 1404.865930557251,917.357780456543 "/>
     <rect stroke="null" id="svg_430" fill="url(#svg_388)" rx="1.66" height="3.31" width="11.2" y="989.127584" x="1435.505979"/>
     <polygon stroke="null" id="svg_431" fill="#3649ef" points="1475.805871963501,944.3777389526367 1404.565881729126,944.3777389526367 1404.565881729126,897.087760925293 1405.545862197876,897.087760925293 1405.545862197876,943.3977584838867 1475.805871963501,943.3977584838867 1475.805871963501,944.3777389526367 "/>
     <rect stroke="null" id="svg_432" fill="#3649ef" height="34.96" width="5.67" y="908.787584" x="1415.605979"/>
     <rect stroke="null" id="svg_433" fill="#3649ef" height="43.55" width="5.67" y="900.207584" x="1450.975979"/>
     <rect stroke="null" id="svg_434" fill="#3649ef" height="21.23" width="5.67" y="922.517584" x="1433.015979"/>
     <rect stroke="null" id="svg_435" fill="#3649ef" height="21.23" width="5.67" y="922.517584" x="1466.915979"/>
     <path stroke="null" id="svg_436" opacity="0.18" fill="#3649ef" d="m1488.65598,882.177584l0,8.67l-97,52.89l0,-61.56a9.87,9.87 0 0 1 9.87,-9.86l77.24,0a9.86,9.86 0 0 1 9.89,9.86z"/>
    </g>
    <path stroke="null" id="svg_437" opacity="0.18" fill="#3649ef" d="m1628.90598,921.087584l0,51.22a12.46,12.46 0 0 1 -12.46,12.46l-48.85,0a12.46,12.46 0 0 1 -12.47,-12.46l0,-10.86l73.75,-45.25l0.03,4.89z"/>
    <polygon stroke="null" id="svg_438" fill="#3649ef" points="1345.106164932251,1067.6177291870117 1341.175989151001,1068.4277877807617 1341.175989151001,787.797721862793 1345.106164932251,787.797721862793 1345.106164932251,1067.6177291870117 "/>
    <polygon stroke="null" id="svg_439" fill="url(#svg_387)" points="1345.106164932251,1067.6177291870117 1341.175989151001,1068.4277877807617 1341.175989151001,787.797721862793 1345.106164932251,787.797721862793 1345.106164932251,1067.6177291870117 "/>
    <path stroke="null" id="svg_440" fill="url(#svg_386)" d="m1342.02598,899.697584a2.75,2.75 0 0 0 -1.93,-1c-1.14,0.08 -1.71,1.42 -1.87,2.56a12.48,12.48 0 0 0 0,3.81c0.59,3.61 2.69,6.77 4.75,9.81a111.46,111.46 0 0 0 8.61,11.57a15.64,15.64 0 0 0 4.91,4a6.49,6.49 0 0 0 6.13,-0.12c2.24,-1.44 2.92,-4.35 3.42,-7l1.5,-8.05a3.55,3.55 0 0 0 0,-2.14a3.36,3.36 0 0 0 -1.24,-1.27a4.88,4.88 0 0 0 -2.14,-1c-2.15,-0.23 -3.71,2 -4.26,4.11s-0.73,4.44 -2.24,6l-8.64,-10.01a5.78,5.78 0 0 1 -1.76,-3.36a16.67,16.67 0 0 1 0.52,-2.77c0.13,-0.93 -0.21,-2.08 -1.12,-2.31a3.07,3.07 0 0 1 -0.87,1.24c-1.35,-1.13 -2.44,-2.81 -3.77,-4.07z"/>
    <path stroke="null" id="svg_441" fill="#3649ef" d="m1359.02598,901.207584l-0.95,12.7a1.91,1.91 0 0 0 1.24,2.32l8.43,4.78c2.17,-3.51 2.35,-7.86 2.3,-12a42.75,42.75 0 0 0 -0.84,-9a13.24,13.24 0 0 0 -1.54,-4a9.26,9.26 0 0 0 -3.1,-3.06c-0.87,-0.52 -6,-4 -6.88,-3.26c-1,0.9 2.19,5.38 1.92,6.66a37.24,37.24 0 0 0 -0.58,4.86z"/>
    <path stroke="null" id="svg_442" fill="url(#svg_385)" d="m1359.02598,901.207584l-0.95,12.7a1.91,1.91 0 0 0 1.24,2.32l8.43,4.78c2.17,-3.51 2.35,-7.86 2.3,-12a42.75,42.75 0 0 0 -0.84,-9a13.24,13.24 0 0 0 -1.54,-4a9.26,9.26 0 0 0 -3.1,-3.06c-0.87,-0.52 -6,-4 -6.88,-3.26c-1,0.9 2.19,5.38 1.92,6.66a37.24,37.24 0 0 0 -0.58,4.86z"/>
    <path stroke="null" id="svg_443" fill="url(#svg_384)" d="m1346.02598,857.077584a8.81,8.81 0 0 1 -2.18,5.65a21.45,21.45 0 0 0 -2.32,2.25c-1.2,1.63 -1.07,3.84 -0.9,5.86c0.22,2.61 0.45,5.22 0.67,7.84a27,27 0 0 0 -4,2.74a41.24,41.24 0 0 1 -2.27,-5.12a13.32,13.32 0 0 1 -1.22,-3.92a11,11 0 0 1 0.13,-2.56a28.75,28.75 0 0 1 6.41,-14.15a0.87,0.87 0 0 1 -0.19,-0.46a10.53,10.53 0 0 1 0.17,-3.67a0.69,0.69 0 0 1 0.37,-0.57c0.26,-0.09 0.52,0.15 0.66,0.39a5.82,5.82 0 0 1 0.74,2.39a28,28 0 0 1 3.27,-2.79a26.91,26.91 0 0 1 0.66,6.12z"/>
    <path stroke="null" id="svg_444" fill="url(#svg_383)" d="m1353.19598,891.017584a2.22,2.22 0 0 0 2.64,0.61a9.51,9.51 0 0 0 2.7,-1.69a1.73,1.73 0 0 0 0.49,-0.49a1.68,1.68 0 0 0 0.15,-0.67c0.1,-1.3 0.17,-2.61 0.2,-3.92s-0.05,-3.12 -1.16,-4.07a1.05,1.05 0 0 0 -0.49,-0.28a1.6,1.6 0 0 0 -0.65,0.06a6.53,6.53 0 0 0 -2.41,1c-1.36,1 -1.68,3 -1.74,4.57c-0.05,1.31 -0.43,3.7 0.27,4.88z"/>
    <path stroke="null" id="svg_445" fill="url(#svg_382)" d="m1363.77598,872.447584s0.28,7.74 -0.92,10.22s-6.27,2.49 -8.2,0.46s-4,-7.73 -2.95,-12.62s10.32,-8.43 12.07,1.94z"/>
    <path stroke="null" id="svg_446" fill="#3f3d56" d="m1357.36598,867.087584a5.71,5.71 0 0 0 -2.61,3.52a16.75,16.75 0 0 0 -0.49,4.47l-0.05,2.28a4.77,4.77 0 0 0 -1.95,-1.58a4.38,4.38 0 0 0 0.28,3.33a3.74,3.74 0 0 1 0.47,1a0.87,0.87 0 0 1 -0.37,1c-0.55,0.26 -1.08,-0.39 -1.35,-0.94c-1.07,-2.19 -2.18,-4.57 -1.74,-7a10.08,10.08 0 0 1 0.91,-2.53a12.64,12.64 0 0 1 4.21,-5.4a6,6 0 0 1 5.2,-0.7c2.97,1.13 -1.56,2.04 -2.51,2.55z"/>
   </g>
  </g>

  <ellipse id="svg_508" cy="794" cx="359.5" stroke-width="1.5" stroke="#b1ffff" fill="#aad4ff"/>
  <ellipse id="svg_509" cy="634" cx="152.5" stroke-width="1.5" stroke="#b1ffff" fill="#aad4ff"/>
  <ellipse id="svg_510" cy="794" cx="187.5" stroke-width="1.5" stroke="#b1ffff" fill="#aad4ff"/>
  <ellipse id="svg_511" cy="781" cx="153.5" stroke-width="1.5" stroke="#b1ffff" fill="#aad4ff"/>
  <ellipse id="svg_512" cy="922" cx="881.5" stroke-width="1.5" stroke="#b1ffff" fill="#aad4ff"/>
  <ellipse id="svg_513" cy="918" cx="968.5" stroke-width="1.5" stroke="#b1ffff" fill="#aad4ff"/>

  <defs>
   <linearGradient y2="0.499925" x2="0.999971" y1="0.499925" x1="0" id="svg_627">
    <stop stop-opacity="0" offset="0"/>
    <stop stop-opacity="0.8" offset="0.91"/>
    <stop offset="1"/>
   </linearGradient>
   <linearGradient xlink:href="#svg_627" y2="121.26" x2="252.55" y1="223.05" x1="341.62" id="svg_626"/>
   <linearGradient xlink:href="#svg_627" y2="235.75" x2="645.34" y1="268.86" x1="501.73" id="svg_625"/>
   <linearGradient y2="0.541077" x2="0.51916" y1="0.973765" x1="1.260378" id="svg_624">
    <stop stop-color="#00272e" offset="0.36"/>
    <stop stop-opacity="0" stop-color="#69b9eb" offset="1"/>
   </linearGradient>
   <linearGradient y2="0.500107" x2="1.001837" y1="0.500107" x1="0.001979" id="svg_623">
    <stop stop-color="#ecc4d7" offset="0"/>
    <stop stop-color="#efd4d1" offset="0.42"/>
    <stop stop-color="#f2eac9" offset="1"/>
   </linearGradient>
   <linearGradient xlink:href="#svg_623" y2="328.52" x2="570.22" y1="392.36" x1="608.59" id="svg_622"/>
   <linearGradient xlink:href="#svg_623" y2="406.81" x2="620.78" y1="406.81" x1="574.69" id="svg_621"/>
   <linearGradient xlink:href="#svg_623" y2="295.43" x2="517.27" y1="295.43" x1="469.29" id="svg_620"/>
   <linearGradient xlink:href="#svg_627" y2="204.6" x2="685" y1="248.39" x1="593.34" id="svg_619"/>
   <linearGradient xlink:href="#svg_623" gradientTransform="matrix(1, 0, 0, -1, -0.01, 595.99)" y2="218.82" x2="603.28" y1="218.82" x1="592.55" id="svg_618"/>
   <linearGradient xlink:href="#svg_623" y2="195.3" x2="588.12" y1="195.3" x1="572.21" id="svg_617"/>
   <linearGradient xlink:href="#svg_624" y2="312.68" x2="578.94" y1="255.39" x1="689.7" id="svg_616"/>
   <linearGradient xlink:href="#svg_623" y2="241.02" x2="559.44" y1="241.02" x1="510.36" id="svg_615"/>
   <linearGradient xlink:href="#svg_623" y2="189.41" x2="408.05" y1="189.41" x1="372.6" id="svg_614"/>
   <linearGradient xlink:href="#svg_624" y2="226.95" x2="270.92" y1="236.88" x1="188.42" id="svg_613"/>
   <linearGradient xlink:href="#svg_623" y2="333.49" x2="302.6" y1="333.49" x1="252.52" id="svg_612"/>
   <linearGradient xlink:href="#svg_624" y2="232.93" x2="328.3" y1="160.62" x1="224.92" id="svg_611"/>
   <linearGradient xlink:href="#svg_623" y2="109.91" x2="270.92" y1="109.91" x1="251.27" id="svg_610"/>
   <linearGradient xlink:href="#svg_627" y2="353.1" x2="352.71" y1="350.9" x1="413.15" id="svg_609"/>
   <linearGradient y2="7.104845" x2="0.57689" y1="-3.386364" x1="0.461171" id="svg_608">
    <stop stop-opacity="0" stop-color="#68e1fd" offset="0"/>
    <stop stop-opacity="0.04" stop-color="#66daf6" offset="0.02"/>
    <stop stop-opacity="0.39" stop-color="#58a1bc" offset="0.18"/>
    <stop stop-opacity="0.66" stop-color="#4d758f" offset="0.35"/>
    <stop stop-opacity="0.85" stop-color="#45566f" offset="0.53"/>
    <stop stop-opacity="0.96" stop-color="#40435c" offset="0.73"/>
    <stop stop-color="#3f3d56" offset="0.99"/>
   </linearGradient>
   <linearGradient xlink:href="#svg_608" y2="278.66" x2="415.24" y1="378.47" x1="408.45" id="svg_607"/>
  </defs>
  <g stroke="null" id="svg_682">
   <path stroke="null" id="svg_629" opacity="0.18" fill="#3649ef" d="m1027.136935,222.555817a87.593208,95.059599 0 0 1 -2.125583,20.82117c-12.561641,61.104654 -79.520032,107.738596 -160.216455,107.738596c-33.292387,0 -64.242088,-7.939441 -89.99648,-21.549911c-17.772096,-9.391443 -33.075284,-21.48416 -44.965422,-35.543929a85.396941,92.676123 0 0 1 -13.24829,-17.445949c-34.145649,-57.504784 -21.341662,-160.114797 36.427748,-159.260033a145.882654,158.317601 0 0 0 20.624719,-1.145164c16.232184,-2.273891 26.077521,-7.599727 32.040262,-13.374862a30.328688,32.913886 0 0 0 3.983575,-4.668325a53.583879,58.151336 0 0 1 34.155747,-22.426592c120.49683,-20.947193 164.376741,44.244986 177.978453,99.17452a152.718852,165.736513 0 0 1 5.296287,45.450422c0.035342,0.739699 0.04544,1.484878 0.04544,2.230057z"/>
   <path stroke="null" id="svg_630" opacity="0.05" fill="#000405" d="m784.588217,305.966519l-64.292577,-23.560798s-23.659103,-31.850911 -22.341342,-85.41611l95.676482,42.502583s41.602861,-12.974876 66.387866,-14.27346s134.664018,-13.818682 134.664018,-13.818682s21.205342,26.382614 11.774014,34.453557s-77.313666,9.429798 -77.313666,9.429798l-47.20713,-30.026319l-39.679234,33.291955l-30.293345,30.979709l-27.375086,16.437766z"/>
   <path stroke="null" id="svg_631" fill="#3f3d56" d="m889.988863,187.691316l-1.009778,2.783462s3.029335,2.909485 1.009778,4.158755c0,0 10.511791,-0.706824 0,-6.942216z"/>
   <path stroke="null" id="svg_632" fill="#333" d="m769.845455,277.830544l-1.221832,3.758769l10.017,5.090228s9.310155,1.271187 12.172876,-1.391731a12.283952,13.331028 0 0 0 3.660446,-6.229913l-24.62849,-1.227353z"/>
   <path stroke="null" id="svg_633" fill="#3649ef" d="m796.114834,242.566057s11.804307,-0.224649 15.257748,4.427238s-8.956732,18.426735 -8.956732,18.426735l-28.622162,2.191702l22.321147,-25.045676z"/>
   <path stroke="null" id="svg_634" fill="url(#svg_627)" d="m796.114834,242.566057s11.804307,-0.224649 15.257748,4.427238s-8.956732,18.426735 -8.956732,18.426735l-28.622162,2.191702l22.321147,-25.045676z"/>
   <path stroke="null" id="svg_635" fill="#3649ef" d="m795.690728,262.537942s24.800152,2.42731 29.111905,4.153275c8.14891,3.325908 5.725442,15.752859 2.019556,17.078839c-3.074775,1.123247 -26.461237,10.410585 -33.938645,13.385821a2.574934,2.79442 0 0 1 -3.246437,-1.539671l-2.564837,-6.635378a2.590081,2.810858 0 0 1 1.64089,-3.780686l14.712468,-4.750514s-21.841502,2.388955 -26.254233,1.32598c-9.769604,-2.323204 -19.402888,-15.88984 -14.273215,-27.73599s32.792546,8.498325 32.792546,8.498325z"/>
   <path stroke="null" id="svg_636" fill="url(#svg_626)" d="m795.690728,262.537942s24.800152,2.42731 29.111905,4.153275c8.14891,3.325908 5.725442,15.752859 2.019556,17.078839c-3.074775,1.123247 -26.461237,10.410585 -33.938645,13.385821a2.574934,2.79442 0 0 1 -3.246437,-1.539671l-2.564837,-6.635378a2.590081,2.810858 0 0 1 1.64089,-3.780686l14.712468,-4.750514s-21.841502,2.388955 -26.254233,1.32598c-9.769604,-2.323204 -19.402888,-15.88984 -14.273215,-27.73599s32.792546,8.498325 32.792546,8.498325z"/>
   <path stroke="null" id="svg_637" fill="#3f3d56" d="m860.478096,195.565005l-1.146098,4.865579l5.876909,5.649112s-1.681281,0 -3.029335,2.849213l-0.535182,6.229913s3.948233,9.2709 14.843739,1.167081l17.671118,16.952816l39.19454,-14.980284l0.838116,-5.797052l-73.713807,-16.936378z"/>
   <path stroke="null" id="svg_638" fill="#3649ef" d="m966.737053,200.216893l-19.498817,-8.31203a8.552821,9.281858 0 0 0 -7.916661,-0.252046a6.669585,7.238096 0 0 0 -3.811913,6.235392c-0.671502,7.999713 3.296926,44.820308 3.296926,44.820308a19.907777,21.604703 0 0 0 4.544002,1.265708a9.522208,10.333875 0 0 0 7.820732,-2.076638l0.378667,-27.697635s21.977822,14.733717 29.81875,13.506364c8.774972,-1.369814 22.891671,-9.183232 13.354316,-27.303129s-27.986002,-0.186295 -27.986002,-0.186295z"/>
   <path stroke="null" id="svg_639" fill="url(#svg_625)" d="m966.737053,200.216893l-19.498817,-8.31203a8.552821,9.281858 0 0 0 -7.916661,-0.252046a6.669585,7.238096 0 0 0 -3.811913,6.235392c-0.671502,7.999713 3.296926,44.820308 3.296926,44.820308a19.907777,21.604703 0 0 0 4.544002,1.265708a9.522208,10.333875 0 0 0 7.820732,-2.076638l0.378667,-27.697635s21.977822,14.733717 29.81875,13.506364c8.774972,-1.369814 22.891671,-9.183232 13.354316,-27.303129s-27.986002,-0.186295 -27.986002,-0.186295z"/>
   <path stroke="null" id="svg_640" fill="#3649ef" d="m950.580603,151.495355s-5.725442,19.780111 -7.270403,24.021055s-28.617114,7.769584 -28.617114,7.769584l1.009778,12.695434l30.828528,-4.153275l9.269764,-14.547423l-5.220553,-25.785375z"/>
   <path stroke="null" id="svg_641" fill="url(#svg_624)" opacity="0.61" d="m950.580603,151.495355s-5.725442,19.780111 -7.270403,24.021055s-28.617114,7.769584 -28.617114,7.769584l1.009778,12.695434l30.828528,-4.153275l9.269764,-14.547423l-5.220553,-25.785375z"/>
   <path stroke="null" id="svg_642" fill="#3649ef" d="m965.999915,144.931208l6.275771,3.780686c11.657889,5.649112 15.893909,18.224003 22.457467,51.778962c0,0 -5.513389,13.380341 -25.80993,4.383404c0,0 -13.773374,-21.840311 -16.045375,-30.026319s-7.992394,-22.273173 2.524445,-27.65928s10.597622,-2.257453 10.597622,-2.257453z"/>
   <path stroke="null" id="svg_643" opacity="0.05" fill="#000405" d="m979.45521,173.741132l7.644021,31.302985s-7.800536,5.161458 -18.226496,-0.186295s-6.73522,-10.66811 -10.097782,-17.166507l10.213906,-6.027181l10.466351,-7.923003z"/>
   <path stroke="null" id="svg_644" fill="#333" d="m965.116359,143.577832a7.118936,7.72575 0 0 1 -9.456573,3.769728l-0.292836,-0.153419s-5.897105,11.161243 2.524445,9.829784c4.46322,-0.706824 8.371061,-7.917524 9.118297,-11.572187l-1.893334,-1.873905z"/>
   <path stroke="null" id="svg_645" fill="url(#svg_623)" d="m965.495026,134.624729c0,0.126023 -0.267591,5.632674 -0.474596,9.599655a11.238831,12.196822 0 0 1 -3.397904,8.103819a12.490956,13.555677 0 0 1 -4.160286,3.095779a2.18617,2.372518 0 0 1 -2.241708,-0.476695a2.211414,2.399914 0 0 1 -0.63616,-2.394435c0.201956,-0.827368 0.403911,-1.780758 0.565476,-2.777982c0.333227,-2.071158 0.504889,-4.312174 -0.035342,-5.895679a1.514667,1.643777 0 0 0 -0.055538,-0.175336c-0.302933,-0.816409 0,-1.709528 0.711894,-2.608125c0.979485,-1.260229 2.696108,-2.536895 4.412731,-3.616308a53.518243,58.080106 0 0 1 5.311433,-2.854692z"/>
   <path stroke="null" id="svg_646" fill="url(#svg_622)" d="m956.275751,149.352967a4.498562,4.882016 0 0 1 -1.105707,0.421903c0.333227,-2.071158 0.504889,-4.312174 -0.035342,-5.895679l0.656356,-2.783462l0.504889,-2.071158l3.928037,-1.54515l3.973477,-1.561588c-0.989583,7.659999 -4.761104,11.829712 -7.92171,13.435134z"/>
   <path stroke="null" id="svg_647" fill="url(#svg_621)" d="m955.271022,112.806334a11.294369,12.257094 0 0 0 -10.602671,12.942001c0,0.312318 0.04544,0.624635 0.085831,0.936953a38.220104,41.477962 0 0 0 3.473637,14.355649c3.680641,6.816194 12.970601,1.205436 14.439828,-1.599943s7.023007,-15.500813 4.695469,-19.111642c-1.539912,-2.454706 -6.063718,-7.780542 -12.092094,-7.523017z"/>
   <path stroke="null" id="svg_648" fill="#333" d="m945.466076,107.98459l1.908481,1.062976a7.179523,7.791501 0 0 0 -5.897105,3.095779a9.451524,10.257166 0 0 0 -2.766792,7.123032l3.246437,-1.643777s-0.247396,4.33957 5.892056,4.673805s12.647472,0.602718 12.647472,0.602718l-2.070045,-3.134134s3.811913,1.643777 4.483415,3.199885a47.020321,51.028304 0 0 1 1.292516,7.484663s1.514667,-4.284778 2.155876,-3.347825s-0.666454,4.821745 -1.469227,5.671029s-0.666454,3.408097 -0.742187,3.616308s3.816962,-3.287553 3.988624,-4.48751s4.039113,-13.358424 1.514667,-15.88984l1.514667,-0.120544a7.169425,7.780542 0 0 0 -3.029335,-1.271187s-10.042244,-14.404962 -22.66952,-6.635378z"/>
   <path stroke="null" id="svg_649" fill="url(#svg_620)" d="m914.657744,184.874978a34.357703,37.286332 0 0 1 -5.710296,-1.643777a46.449796,50.409148 0 0 0 -9.088004,-1.539671s-0.59072,2.191702 1.009778,2.641001s3.433246,1.183519 3.433246,1.183519l-6.674634,0.728741l-6.179842,0.915036s0.59072,2.191702 2.251805,2.191702a7.573336,8.218883 0 0 0 1.903432,2.449227a30.505399,33.10566 0 0 1 3.261584,3.742331a18.781874,20.382829 0 0 0 2.670863,1.91226c0.343325,0 13.354316,-1.643777 14.136895,-2.991673l-1.014827,-9.588697z"/>
   <path stroke="null" id="svg_650" fill="#3649ef" d="m968.933321,204.87426s2.019556,10.909197 5.013549,13.654304c0,0 -19.630088,16.62406 -20.543937,28.651026c-1.277369,16.62406 47.02537,-9.155836 47.02537,-9.155836l-3.342366,-9.183232l-20.942799,10.07635s12.743401,-9.347609 19.094905,-18.700698c4.978206,-7.418912 2.272001,-14.246064 -0.504889,-19.549983c-0.050489,-0.175336 -12.071898,10.607838 -25.799832,4.208068z"/>
   <path stroke="null" id="svg_651" fill="url(#svg_619)" d="m968.933321,204.87426s2.019556,10.909197 5.013549,13.654304c0,0 -19.630088,16.62406 -20.543937,28.651026c-1.277369,16.62406 47.02537,-9.155836 47.02537,-9.155836l-3.342366,-9.183232l-20.942799,10.07635s12.743401,-9.347609 19.094905,-18.700698c4.978206,-7.418912 2.272001,-14.246064 -0.504889,-19.549983c-0.050489,-0.175336 -12.071898,10.607838 -25.799832,4.208068z"/>
   <polygon stroke="null" id="svg_652" fill="url(#svg_618)" points="997.0303955078125,228.83505249023438 1000.6554565429688,227.48175048828125 1002.4479370117188,232.6376953125 998.4441528320312,235.60739135742188 997.0303955078125,228.83505249023438 "/>
   <path stroke="null" id="svg_653" fill="url(#svg_617)" d="m943.739355,246.242637l-0.343325,-2.284849a10.33508,11.216035 0 0 0 7.810634,-2.098555l0.212053,3.742331a8.290279,8.996937 0 0 1 -7.679363,0.641073z"/>
   <path stroke="null" id="svg_654" fill="#333" d="m943.653524,245.541292l-8.583115,3.364263s-4.771202,-1.265708 -5.725442,1.643777a5.775931,6.268268 0 0 0 -0.171662,4.734077s2.251805,2.191702 7.861123,0.915036s14.783153,-4.383404 14.783153,-4.383404l-0.343325,-6.087453a9.002172,9.769512 0 0 1 -7.820732,-0.186295z"/>
   <path stroke="null" id="svg_655" fill="#333" d="m1001.342152,226.298148s-2.155876,0.95887 -1.908481,1.578026s1.009778,-0.745179 2.938455,4.78339l-1.236978,0.980787l2.68601,6.229913a5.260944,5.709384 0 0 0 -2.075094,5.008039c0.267591,1.517754 2.746597,1.725965 4.730811,0.980787s2.842526,-5.528569 2.842526,-5.528569s-1.297565,-11.468081 -3.968428,-13.380341s-4.008819,-0.652031 -4.008819,-0.652031z"/>
   <path stroke="null" id="svg_656" fill="#3649ef" d="m936.61537,214.643772l-40.522398,13.857037l-18.579918,-16.744604c-7.487505,8.306551 -16.499775,2.076638 -15.262797,-2.772503s9.542404,-3.095779 9.542404,-3.095779l-11.259027,-10.262645l21.063973,-5.753218c0.131271,0.805451 1.009778,4.71216 6.124305,5.024477c5.720393,0.356152 7.017958,-4.695722 2.266952,-7.166866l13.359365,-3.775207l33.267142,30.689309z"/>
   <path stroke="null" id="svg_657" opacity="0.05" fill="#000405" d="m925.790548,209.202872a2.41337,2.619084 0 0 0 -0.77248,0.394506a4.150188,4.503948 0 0 0 -0.575574,0.745179c-0.747236,1.008183 -1.964019,1.408169 -3.069726,1.884864a16.93398,18.377422 0 0 0 -3.534224,2.071158a0.86336,0.936953 0 0 0 -0.368569,0.449299c-0.166613,0.58628 0.671502,0.876681 0.95424,1.408169a1.04512,1.134206 0 0 1 -0.171662,1.221874a3.347415,3.632746 0 0 1 -0.95424,0.789013a17.595385,19.095205 0 0 0 -4.947913,4.898454a121.324848,131.666503 0 0 1 19.034319,-8.602431a3.872499,4.202589 0 0 0 1.408641,-0.73422a1.287467,1.39721 0 0 0 0.429156,-1.528712c-0.111076,-0.268484 0.277689,-0.339714 0.075733,-0.547926c-0.984534,-0.95339 -2.64057,-2.547854 -3.95833,-3.714935c0.020196,0.010959 -2.514348,0.893119 -3.54937,1.265708z"/>
   <path stroke="null" id="svg_658" fill="#3649ef" d="m979.631921,154.634969a6.225282,6.755922 0 0 0 -10.678404,2.328683c-0.36352,1.265708 -0.747236,2.783462 -1.125903,4.651888c-2.019556,10.098267 -11.163098,32.059122 -11.163098,32.059122l-26.557166,15.566564l7.270403,10.098267l31.101168,-16.62406s13.773374,-33.017992 13.525979,-39.313656a13.632005,14.793989 0 0 0 -2.372979,-8.766808z"/>
   <path stroke="null" id="svg_659" fill="url(#svg_616)" opacity="0.61" d="m979.631921,154.634969a6.225282,6.755922 0 0 0 -10.678404,2.328683c-0.36352,1.265708 -0.747236,2.783462 -1.125903,4.651888c-2.019556,10.098267 -11.163098,32.059122 -11.163098,32.059122l-26.557166,15.566564l7.270403,10.098267l31.101168,-16.62406s13.773374,-33.017992 13.525979,-39.313656a13.632005,14.793989 0 0 0 -2.372979,-8.766808z"/>
   <path stroke="null" id="svg_660" fill="url(#svg_615)" d="m932.379351,210.654874a34.908032,37.883571 0 0 1 -5.856713,1.139685a46.858756,50.852968 0 0 0 -8.850706,2.739628s0.302933,2.246495 1.908481,1.934177s3.564517,-0.454778 3.564517,-0.454778l-5.720393,3.720414l-5.265993,3.654663s1.373298,1.725965 2.877868,0.95339a7.709656,8.366823 0 0 0 2.691059,1.353376a30.995141,33.637148 0 0 1 4.387486,1.890343a18.680896,20.273244 0 0 0 3.165655,0.520529c0.307982,-0.14794 11.582156,-7.627123 11.657889,-9.183232l-4.559148,-8.268196z"/>
   <path stroke="null" id="svg_661" fill="#3f3d56" d="m843.650142,206.644059l9.693871,4.153275l0,6.235392s-11.612449,0.268484 -11.612449,5.731301s10.951044,9.747595 18.292132,2.454706l16.711829,10.410585l-0.605867,5.336795l-50.812038,19.949968l-29.111905,-38.546561l0,-6.229913l47.444428,-9.495549z"/>
   <path stroke="null" id="svg_662" fill="#3649ef" d="m843.650142,200.490856l9.714066,10.284562s-11.612449,0.273963 -11.612449,5.73678s10.951044,9.747595 18.292132,2.449227l16.711829,16.62406l-50.902918,19.473273l-29.647087,-38.815044l19.973412,-6.629899s-6.351505,-4.63545 -0.247396,-7.731229a9.749408,10.580442 0 0 1 3.604908,-1.057496c4.791397,-0.208212 5.55378,2.471144 6.184891,5.402546l0,0.230129l17.928612,-5.966909z"/>
   <path stroke="null" id="svg_663" opacity="0.05" fill="#000405" d="m804.278891,213.564359l0,0s8.078225,19.05685 11.920431,22.21838c2.14073,1.76432 16.939029,7.002488 29.505718,7.742188c1.176392,0.07123 4.851984,-3.627267 6.588803,-3.139613c2.524445,0.717782 -0.459449,3.177968 0.126222,3.210844c7.573336,0.389027 11.768965,-3.210844 11.768965,-3.210844l-39.886238,15.626836l-26.72378,-41.587547l6.699878,-0.860243z"/>
   <path stroke="null" id="svg_664" fill="url(#svg_614)" d="m843.195742,247.678202a29.702625,32.234459 0 0 1 4.614686,-5.216251a18.130567,19.676006 0 0 1 4.483415,-2.076638s0.706845,2.328683 -0.504889,2.767024s-1.908481,2.739628 -1.908481,2.739628s8.815364,1.830071 9.880679,1.265708s1.166294,1.227353 -0.913849,1.561588s-2.019556,3.572474 -3.433246,3.835479s-3.508979,1.725965 -5.589122,2.268412a27.471015,29.812628 0 0 1 -7.219914,-0.361631l0.59072,-6.783318z"/>
   <path stroke="null" id="svg_665" fill="#3649ef" d="m802.749077,220.024401a31.40915,34.086447 0 0 0 -14.364095,-35.149422a14.879081,16.147365 0 0 0 -6.407043,-2.679356c-9.234421,-0.580801 -19.079759,71.833036 -19.079759,71.833036s4.448073,14.026893 17.913465,15.37479c12.440467,1.24927 14.863935,-6.876465 14.863935,-6.876465l7.073496,-42.502583z"/>
   <path stroke="null" id="svg_666" fill="url(#svg_613)" opacity="0.61" d="m802.749077,220.024401a31.40915,34.086447 0 0 0 -14.364095,-35.149422a14.879081,16.147365 0 0 0 -6.407043,-2.679356c-9.234421,-0.580801 -19.079759,71.833036 -19.079759,71.833036s4.448073,14.026893 17.913465,15.37479c12.440467,1.24927 14.863935,-6.876465 14.863935,-6.876465l7.073496,-42.502583z"/>
   <path stroke="null" id="svg_667" fill="url(#svg_612)" d="m781.97794,182.184664s1.353103,-10.925635 1.908481,-18.032229s2.706206,-16.62406 13.697641,-15.380269s10.986387,19.286978 7.931808,26.848351s-7.113887,7.314806 -7.113887,7.314806s-5.472998,-1.309542 -5.286189,5.840886l-11.137853,-6.591544z"/>
   <path stroke="null" id="svg_668" fill="#333" d="m786.133177,147.237974a12.389978,13.446092 0 0 0 -3.357512,6.087453a30.040901,32.601569 0 0 0 -1.009778,5.753218l1.125903,-1.32598a82.296922,89.31186 0 0 1 -0.706845,9.972245a49.832553,54.080249 0 0 0 -0.504889,9.314734l2.019556,-0.104106l2.524445,3.430014l2.842526,-2.082117l2.135681,-1.221874l1.908481,-5.095707a2.645619,2.87113 0 0 1 -0.913849,-3.320429c0.706845,-2.076638 2.438614,-2.558812 2.842526,-1.331459a21.846551,23.708737 0 0 1 0.504889,4.651888l3.029335,-9.314734s1.908481,-2.893047 3.569566,-0.893119a8.850706,9.605134 0 0 0 3.660446,2.657439l-1.009778,-3.117696l2.746597,0.767096l-0.212053,-3.550557l2.019556,1.556108s0.913849,-5.753218 -0.822969,-8.31203s-8.537675,-12.72831 -22.391831,-4.520386z"/>
   <path stroke="null" id="svg_669" fill="#3649ef" d="m843.47848,245.831693l-22.48776,-2.641001a14.803348,16.065176 0 0 1 -11.869942,-13.588553l-8.315523,-27.533258a8.941586,9.703761 0 0 0 -7.174474,-6.668254a7.780341,8.443532 0 0 0 -8.583115,10.848925l8.583115,33.242642a14.783153,16.043259 0 0 0 13.354316,14.065248l35.271552,4.991602l1.221832,-12.717351z"/>
   <path stroke="null" id="svg_670" fill="url(#svg_611)" opacity="0.61" d="m843.47848,245.831693l-22.48776,-2.641001a14.803348,16.065176 0 0 1 -11.869942,-13.588553l-8.315523,-27.533258a8.941586,9.703761 0 0 0 -7.174474,-6.668254a7.780341,8.443532 0 0 0 -8.583115,10.848925l8.583115,33.242642a14.783153,16.043259 0 0 0 13.354316,14.065248l35.271552,4.991602l1.221832,-12.717351z"/>
   <path stroke="null" id="svg_671" fill="url(#svg_610)" d="m787.965925,286.2412l-6.619096,1.643777l2.650668,8.31203l6.927078,-1.736924s1.852943,-6.427166 -2.95865,-8.218883z"/>
   <path stroke="null" id="svg_672" fill="#333" d="m778.640623,286.679541s4.331948,-0.997224 5.048891,0.602718s-1.585352,1.495837 -1.125903,3.764248a42.203679,45.801095 0 0 0 1.428836,5.090228l2.135681,-0.520529l0.439254,2.739628a1.923627,2.087596 0 0 0 1.908481,1.643777c4.998402,0.312318 4.331948,5.232689 2.574934,5.418983l-6.467629,0.547926l-3.418099,-3.123175a2.716303,2.947839 0 0 1 -0.934045,-1.227353c-1.247076,-2.657439 -5.079184,-12.547495 -1.590401,-14.93645z"/>
   <path stroke="null" id="svg_673" opacity="0.4" fill="#3649ef" d="m883.864558,117.233572a9.739311,10.569483 0 0 0 -0.858311,1.643777c-1.449032,3.364263 -6.351505,15.396707 -7.068447,25.82373a9.55755,10.37223 0 0 1 -9.007221,9.725678l-8.754777,0.547926l-2.862721,0.164378a9.542404,10.355792 0 0 1 -9.921071,-8.31203c-1.792356,-9.599655 -5.609318,-24.267621 -13.026139,-30.74958c0,0 -32.701666,-32.497463 -10.895507,-68.737257a51.872305,56.293868 0 0 1 4.902473,-6.942216c22.886622,-27.494903 60.662424,-14.969325 69.74033,10.569483s-8.638652,60.759461 -12.248609,66.266113z"/>
   <path stroke="null" id="svg_674" fill="#3649ef" d="m877.189924,158.914267c-0.762383,2.076638 -1.64089,3.073862 -0.878507,4.449155s2.95865,5.07379 -8.184252,6.717567a60.647277,65.816814 0 0 1 -6.962421,0.602718l-3.645299,0l-2.135681,-0.104106c-2.438614,-0.164378 -4.407682,-0.432861 -5.720393,-0.66299a5.134722,5.572403 0 0 1 -3.534224,-2.432789a2.650668,2.876609 0 0 1 0.403911,-2.991673a1.474276,1.599943 0 0 0 0.075733,-2.262932a1.55001,1.682131 0 0 0 -0.535182,-0.394506a3.170703,3.440972 0 0 1 -0.191858,-4.799828a3.73113,4.04917 0 0 0 0.671502,-1.041058a3.27673,3.556037 0 0 0 -0.439254,-3.638225l-0.307982,-0.410944a5.55378,6.027181 0 0 1 -0.913849,-2.082117a2.86777,3.112217 0 0 1 0.459449,-3.112217a9.537355,10.350313 0 0 0 9.916022,8.306551l2.862721,-0.186295a1.393494,1.512274 0 0 0 0.191858,-0.394506c0.504889,-1.32598 -0.631111,-2.86565 -0.055538,-4.93133l2.150828,-0.104106a59.703135,64.792193 0 0 0 15.530388,-3.287553a3.09497,3.358783 0 0 1 0.762383,4.158755a4.756055,5.161458 0 0 0 -0.398862,1.452003a4.862082,5.276523 0 0 0 0.474596,3.073862a2.645619,2.87113 0 0 0 0.171662,0.334235a3.832108,4.158755 0 0 1 0.232249,3.742331z"/>
   <path stroke="null" id="svg_675" fill="#333" d="m845.371814,146.739362a65.443724,71.022106 0 0 1 30.520545,-0.602718s-16.540167,7.353161 -30.520545,0.602718z"/>
   <path stroke="null" id="svg_676" fill="url(#svg_609)" d="m860.018647,170.486454a10.097782,10.95851 0 0 1 -2.524445,0.186295l-2.14073,-0.104106c-2.438614,-0.164378 -4.402633,-0.432861 -5.720393,-0.66299a5.134722,5.572403 0 0 1 -3.534224,-2.432789a2.645619,2.87113 0 0 1 0.398862,-2.991673a1.514667,1.643777 0 0 0 0.444302,-1.46844a1.469227,1.594463 0 0 0 -0.903751,-1.188998a3.165655,3.435493 0 0 1 -0.186809,-4.799828a3.226241,3.501244 0 0 0 0.2272,-4.673805a5.770882,6.262789 0 0 1 -1.18144,-2.476623a2.877868,3.123175 0 0 1 0.4544,-3.112217a37.538504,40.738263 0 0 0 15.015402,2.657439l0.247396,0.126023s-1.908481,0.789013 -1.413689,2.597167s1.221832,5.068311 -0.419058,7.188783s1.514667,2.701273 0.918898,5.090228l0,0.230129a12.208218,13.248839 0 0 0 -0.555378,2.191702c-0.343325,1.879385 -0.18176,3.479327 0.873458,3.643705z"/>
   <path stroke="null" id="svg_677" opacity="0.49" fill="#fff" d="m860.402362,149.396801a37.437526,40.628678 0 0 1 -15.030548,-2.657439c-1.77721,-9.539383 -5.594171,-24.20735 -13.010992,-30.683829c0,0 -32.701666,-32.497463 -10.895507,-68.737257a51.872305,56.293868 0 0 1 4.902473,-6.942216l2.938455,-0.290401s19.559403,-11.18316 27.854731,1.057496s-9.809995,26.075776 -10.759186,48.431137s22.613982,26.492199 14.000574,59.822509z"/>
   <path stroke="null" id="svg_678" fill="url(#svg_608)" d="m874.61499,164.667485c-1.413689,0.997224 -6.487825,2.87113 -15.530388,2.191702a66.317182,71.970018 0 0 1 -12.531347,-2.410872a1.474276,1.599943 0 0 0 0.075733,-2.262932a1.55001,1.682131 0 0 0 -0.535182,-0.394506a44.455484,48.244842 0 0 0 13.632005,2.597167a51.554225,55.948675 0 0 0 15.429411,-2.076638s1.575254,0.860243 -0.540231,2.35608z"/>
   <path stroke="null" id="svg_679" fill="url(#svg_607)" d="m876.770867,154.859618c-1.696427,1.539671 -8.108519,4.383404 -17.378282,3.408097a51.044287,55.39527 0 0 1 -12.83933,-2.306766a3.266632,3.545078 0 0 0 -0.439254,-3.632746l-0.307982,-0.416423c0.610916,0.252046 1.64089,0.602718 3.029335,0.997224a53.518243,58.080106 0 0 0 9.542404,1.643777l1.484374,0a42.552052,46.179163 0 0 0 16.464433,-2.827296a4.836837,5.249127 0 0 0 0.444302,3.134134z"/>
   <path stroke="null" id="svg_680" fill="#3f3d56" d="m813.281064,205.044117l0.116124,5.479255l2.802134,-0.936953s-2.918259,-2.197181 -2.918259,-4.542303z"/>
   <path stroke="null" id="svg_681" fill="#fff" d="m874.700821,93.990572l-0.610916,-0.449299a20.927653,22.711513 0 0 0 0.95424,-9.385964c-0.72704,-6.706608 -5.089282,-10.799612 -12.268805,-11.506436c-11.006582,-1.134206 -15.363775,5.029956 -16.97942,8.799684c-4.665175,10.536608 -0.444302,27.599009 6.28082,35.253528c8.290279,9.391443 5.089282,27.100396 3.917939,32.327606a1.514667,1.643777 0 0 0 -0.075733,0.394506l0,0.350672l1.691378,0.624635l0.121173,-0.51505a55.0834,59.778675 0 0 0 1.736818,-12.794061c0.297885,-9.314734 -1.757014,-16.84871 -5.96274,-21.78004c-6.210136,-7.06276 -10.2442,-23.369024 -5.957691,-33.017992c2.600179,-5.780614 7.845976,-8.443532 15.182015,-7.703833c7.982297,0.821888 10.188662,5.791573 10.632964,9.796908a19.049465,20.67323 0 0 1 -0.812871,8.136694a8.320572,9.029813 0 0 0 -5.765833,-0.701345c-3.781619,1.128727 -6.169745,5.380629 -7.507701,8.733933a4.306704,4.673805 0 0 0 0.792676,5.046394a4.261264,4.624491 0 0 0 4.473317,1.243791c3.408001,-1.309542 6.962421,-5.846365 8.961781,-11.380413l0.196907,0.14794c5.55378,4.240944 1.590401,10.777695 -2.968748,18.355505c-3.246437,5.309398 -7.275452,11.91738 -7.709656,18.426735c-0.504889,5.829928 -0.27264,10.437981 0.09088,16.306264l0.025244,0.465737l1.817601,0l-0.025244,-0.547926c-0.353422,-5.857324 -0.565476,-10.410585 -0.09088,-16.076135c0.388765,-5.96143 4.099699,-12.092716 7.371381,-17.533617l0.146418,-0.246566c4.73586,-7.906565 9.214226,-15.413145 2.342685,-20.771857zm-10.824822,10.95851a2.357832,2.558812 0 0 1 -2.524445,-0.717782a2.45881,2.668397 0 0 1 -0.4544,-2.920443c0.959289,-2.416352 3.059628,-6.629899 6.32626,-7.616165a5.513389,5.983347 0 0 1 1.433885,-0.208212a7.60363,8.251758 0 0 1 3.200997,0.898598c-1.903432,5.22173 -5.139771,9.533904 -7.982297,10.574963l0,-0.010959zm9.178884,-11.040699l0,0l0.080782,0.060272l-0.080782,-0.060272z"/>
  </g>
 </g>
</svg>