<?xml version="1.0" encoding="utf-8"?>
<svg viewBox="0 0 1040 1040" xmlns="http://www.w3.org/2000/svg" xmlns:xlink="http://www.w3.org/1999/xlink">
  <defs>
    <linearGradient id="214c5cce-d3ab-4a80-8eba-ba3719b3e789" x1="1958.6" y1="638.33" x2="1958.6" y2="355.69" gradientTransform="matrix(-1, 0, 0, 1, 2766, 0)" gradientUnits="userSpaceOnUse">
      <stop offset="0" stop-color="gray" stop-opacity="0.25"/>
      <stop offset="0.54" stop-color="gray" stop-opacity="0.12"/>
      <stop offset="1" stop-color="gray" stop-opacity="0.1"/>
    </linearGradient>
    <linearGradient id="d3725588-c4fd-46f1-8fb5-ebcc261083dd" x1="-121.09" y1="464.11" x2="-121.09" y2="77.38" gradientTransform="matrix(0.095402, 0, 0, 0.078173, 67.197254, 9.734807)" gradientUnits="userSpaceOnUse">
      <stop offset="0" stop-color="gray" stop-opacity="0.25"/>
      <stop offset="0.54" stop-color="gray" stop-opacity="0.12"/>
      <stop offset="1" stop-color="gray" stop-opacity="0.1"/>
    </linearGradient>
    <linearGradient id="da1505d0-619f-48d6-a73e-4cfaad838d3f" x1="-402.3" y1="269.44" x2="-402.3" y2="170.67" gradientTransform="matrix(0.093211, -0.020328, 0.025448, 0.074461, 561.27052, 227.874216)" gradientUnits="userSpaceOnUse">
      <stop offset="0" stop-opacity="0.12"/>
      <stop offset="0.55" stop-opacity="0.09"/>
      <stop offset="1" stop-opacity="0.02"/>
    </linearGradient>
    <linearGradient id="5d761051-c348-43d0-93b7-379d4f184fd5" x1="-402.3" y1="252.79" x2="-402.3" y2="231.21" gradientTransform="translate(706.72 199.61)" xlink:href="#da1505d0-619f-48d6-a73e-4cfaad838d3f"/>
    <linearGradient id="70351dd3-b09b-481d-a2da-53703193d5a7" x1="-402.26" y1="234.11" x2="-402.26" y2="194.99" gradientTransform="translate(699.49 200.57)" xlink:href="#da1505d0-619f-48d6-a73e-4cfaad838d3f"/>
    <linearGradient id="f5e2603e-b2ae-400c-9f3a-64890d48fe6d" x1="-402.3" y1="272.44" x2="-402.3" y2="239.1" xlink:href="#da1505d0-619f-48d6-a73e-4cfaad838d3f"/>
    <linearGradient id="ab4a4443-1c70-44d3-aff5-44a51c26d915" x1="-402.26" y1="216.85" x2="-402.26" y2="180.15" xlink:href="#da1505d0-619f-48d6-a73e-4cfaad838d3f"/>
    <linearGradient id="527ca708-8ae8-4e8c-9e20-7508688a6ac8" x1="-261.96" y1="207" x2="-229.82" y2="207" gradientTransform="translate(691.98 159.65)" gradientUnits="userSpaceOnUse">
      <stop offset="0" stop-opacity="0.09"/>
      <stop offset="0.55" stop-opacity="0.07"/>
      <stop offset="1" stop-opacity="0.02"/>
    </linearGradient>
    <linearGradient id="e3abb234-bd9a-4a29-b4d9-95543465e731" x1="-91.63" y1="207" x2="-59.49" y2="207" gradientTransform="translate(685.97 114.79)" xlink:href="#527ca708-8ae8-4e8c-9e20-7508688a6ac8"/>
    <linearGradient id="b220ada1-bec5-4763-adaf-46a2a991a6ea" x1="84.06" y1="207" x2="116.2" y2="207" gradientTransform="translate(679.76 68.52)" xlink:href="#527ca708-8ae8-4e8c-9e20-7508688a6ac8"/>
    <linearGradient id="e945889a-4c72-453f-ae2a-9cca0c2e387b" x1="-261.96" y1="370.91" x2="-229.82" y2="370.91" gradientTransform="translate(735.15 153.86)" xlink:href="#527ca708-8ae8-4e8c-9e20-7508688a6ac8"/>
    <linearGradient id="48e64a96-e766-456a-a55d-dc778a4c4106" x1="-91.63" y1="370.91" x2="-59.49" y2="370.91" gradientTransform="translate(729.13 109)" xlink:href="#527ca708-8ae8-4e8c-9e20-7508688a6ac8"/>
    <linearGradient id="5c985564-a56b-468d-93e7-1bf457bee9db" x1="84.06" y1="370.91" x2="116.2" y2="370.91" gradientTransform="translate(722.93 62.73)" xlink:href="#527ca708-8ae8-4e8c-9e20-7508688a6ac8"/>
    <linearGradient id="6780986a-9034-4c28-8b6c-a48891ce2ded" x1="495.23" y1="686.51" x2="495.23" y2="299.78" gradientTransform="matrix(1, 0, 0, 1, 0, 0)" xlink:href="#d3725588-c4fd-46f1-8fb5-ebcc261083dd"/>
    <linearGradient id="7d79de41-ff5b-423b-9456-aacc3d645f9d" x1="372.77" y1="598.59" x2="372.77" y2="499.81" gradientTransform="matrix(1, 0, 0, 1, 0, 0)" xlink:href="#da1505d0-619f-48d6-a73e-4cfaad838d3f"/>
    <linearGradient id="19fb9e96-cad3-456a-87b2-74caa7f769f0" x1="214.02" y1="475.19" x2="214.02" y2="453.62" gradientTransform="matrix(1, 0, 0, 1, 0, 0)" xlink:href="#da1505d0-619f-48d6-a73e-4cfaad838d3f"/>
    <linearGradient id="b984d742-9cb1-45a0-b729-f1d2914abd3a" x1="214.05" y1="456.51" x2="214.05" y2="417.4" gradientTransform="matrix(1, 0, 0, 1, 0, 0)" xlink:href="#da1505d0-619f-48d6-a73e-4cfaad838d3f"/>
    <linearGradient id="6fa8e8f2-d7ff-4ce3-810a-2e6bc68d564d" x1="372.77" y1="601.58" x2="372.77" y2="568.25" gradientTransform="matrix(1, 0, 0, 1, 0, 0)" xlink:href="#da1505d0-619f-48d6-a73e-4cfaad838d3f"/>
    <linearGradient id="8fad6a4c-d66f-4e6f-b11b-537b5bb0a550" x1="372.81" y1="545.99" x2="372.81" y2="509.29" gradientTransform="matrix(1, 0, 0, 1, 0, 0)" xlink:href="#da1505d0-619f-48d6-a73e-4cfaad838d3f"/>
  </defs>
  <path d="M 837.634 161.654" fill="#3f3d56" style=""/>
  <path d="M 554.593 140.642" fill="#464353" style=""/>
  <text x="-167" y="-89.81" style="white-space: pre;" transform="matrix(0.381834, 0, 0, 0.202459, 32.162797, 83.955897)"/>
  <ellipse cx="525.582" cy="1038.112" rx="15.282" ry="1.704" fill="#6c63ff" opacity="0.1" style=""/>
  <path d="M 820.81 360.045 C 830.403 392.003 855.46 422.435 881.863 451.503 C 908.254 480.561 936.689 509.349 954.471 540.559 C 965.909 560.601 972.361 583.545 957.764 599.719 C 943.669 615.27 914.189 620.292 886.327 622.994 C 865.367 625.029 843.085 626.223 821.659 620.654 C 806.794 616.782 793.425 609.918 778.881 605.169 C 728.449 588.645 673.966 600.326 632.898 618.233 C 613.642 626.624 595.661 636.378 574.579 642.859 C 553.5 649.343 528.25 652.338 503.787 646.666 C 479.51 641.048 459.105 627.65 443.501 613.142 C 411.844 583.666 396.457 548.949 384.327 515.073 C 357.476 440.101 343.18 364.739 328.927 289.572 C 323.652 261.754 318.373 233.819 319.185 206.455 C 319.635 191.254 322.385 175.567 335.43 164.535 C 352.038 150.528 385.038 147.055 412.341 156.44 C 458.15 172.182 479.053 215.698 526.8 226.706 C 553.078 232.767 552.9 182.755 573.803 173.949 C 618.659 155.072 680.694 167.219 736.752 165.557 C 775.242 164.408 817.729 179.62 841.73 203.141 C 866.896 227.799 872.694 261.994 845.236 280.178 C 817.036 298.91 812.344 331.828 820.81 360.045 Z" opacity="0.1" style="fill: rgba(9, 97, 229, 0.99);" transform="matrix(0.682492, -0.730893, 0.730893, 0.682492, -88.618769, 596.850787)"/>
  <path d="M 539.975 161.295" fill="#464353" style=""/>
  <path d="M 353.549 738.854 C 385.321 727.485 435.194 725.171 480.589 726.078 C 623.187 728.918 751.904 756.557 863.237 787.81 C 903.545 799.13 943.227 811.328 969.396 826.915 C 1022.65 858.638 1006.849 902.582 932.798 928.717 C 907.595 937.613 877.047 944.455 845.69 950.463 C 789.918 961.21 729.776 969.834 666.491 972.316 C 621.364 974.065 575.681 972.64 530.82 970.198 C 405.471 963.346 282.443 948.303 179.32 922.44 C 134.087 911.12 91.457 897.043 72.833 878.718 C 54.215 860.391 66.119 837.192 112.308 826.342 C 131.419 821.861 154.246 819.832 176.607 817.938 C 209.517 815.14 242.951 812.367 272.646 806.681 C 303.329 800.803 339.653 789.437 333.583 776.428 C 327.037 762.467 321.816 750.21 353.549 738.854 Z" opacity="0.1" style="fill: rgb(83, 176, 222);"/>
  <g transform="matrix(1.576875, 0, 0, 1.697632, -601.831439, 58.338167)" style="">
    <ellipse cx="853.729" cy="470.044" rx="27.761" ry="4.008" fill="#6c63ff" opacity="0.1" style=""/>
    <path d="M773.27,503.61c2.88,1.7,7.4,2.81,13.09-.85l-.05,8.11c.4,5.56,7.28,25.83,7.28,25.83l4.85,16.67a130.07,130.07,0,0,1,5.33,36.28c0,4.06.38,8.26,1.55,11.42,2.59,7-1,16-2.57,19.32a80.1,80.1,0,0,1-8,2.25,5.83,5.83,0,0,0-.71.22l0-.05s-7.28,2.89-10.52,2.49c-2.41-.29-3.92,2.72-2,4.93a14.88,14.88,0,0,1-4.84.64c-3.24-.4-4.86,5.16,1.21,6.75s40.46,0,40.46,0a4.87,4.87,0,0,0,2.58-5.38l4.3-.18s6.07-2.78,0-10.33l-.33.24-1.29-3.82V613s7.69-37,5.26-41.33S825.15,545,825.15,545L826,520.8c2.19-4.52,3.31-11.62,3.88-17.17a36,36,0,0,0,1.55-8.14c.1-1.31.18-2.67.23-4.09a27.27,27.27,0,0,0-1.48-9.16,92.06,92.06,0,0,1,9.17-11.5A11.82,11.82,0,0,0,843,460.41l-2-13.51-4.86-23c.61-6.39-.72-10.07-2.2-12.15.35-2.07.68-4.13.93-6.21a79.6,79.6,0,0,0-1.42-27c-.7-3.08-1.66-6.25-3.83-8.59-2.45-2.66-6.43-4.27-7.35-7.74a20.66,20.66,0,0,0-.56-2.62c-.89-2.27-3.69-3.1-6.15-3.4-4.38-.53-10.71-.93-14.92.79A18.09,18.09,0,0,0,792,365a6.89,6.89,0,0,0-1,4.95,6.6,6.6,0,0,0,.69,1.7,15.39,15.39,0,0,0,8.94,19.7c.1.31.19.61.26.9a15.41,15.41,0,0,1,.4,2.17c-.08,1.4-.17,2.81-.23,4.22l-.15.57a105.13,105.13,0,0,0-10.17,5.18c2.42,3.58-.41,18.68-.41,18.68-6.07,3.57-12.13,12.71-5.66,22.25s2.83,19.86,2.83,19.86l-1,15.54h0v0l-.2,3.11h.07l-.07,1.18.17,0v1.27c-2.84,1.05-7,3.15-9.47,7.05a24.94,24.94,0,0,1-4.23,5.19A3.12,3.12,0,0,0,773.27,503.61Zm48.85-41.28a14.77,14.77,0,0,1,1.44-7.82l2.86,0a18.57,18.57,0,0,0,.35,1.88C827.59,459.94,824.31,461.61,822.12,462.33Z" transform="matrix(0.4870051145553589, 0, 0, 0.3907351195812225, 461.5569861000263, 222.1837815641565)" fill="url(#214c5cce-d3ab-4a80-8eba-ba3719b3e789)" style=""/>
    <path d="M 198.701 207.461 L 198.971 208.263 L 198.093 209.131 L 195.188 209.807 L 193.094 209.607 L 193.229 208.872 L 193.229 208.872 C 193.31 208.55 193.567 208.299 193.894 208.223 C 194.761 208.024 196.396 207.567 196.741 206.934 Z" fill="#db8b8b" style="stroke-width: 1.79537; vector-effect: non-scaling-stroke;" transform="matrix(2.806427955627441, 0, 0, 2.2761790752410884, 304.68421055866213, -13.212735456100773)"/>
    <path d="M 198.701 207.461 L 198.971 208.263 L 198.093 209.131 L 195.188 209.807 L 193.094 209.607 L 193.229 208.872 L 193.229 208.872 C 193.31 208.55 193.567 208.299 193.894 208.223 C 194.761 208.024 196.396 207.567 196.741 206.934 Z" opacity="0.1" style="stroke-width: 1.79537; vector-effect: non-scaling-stroke;" transform="matrix(2.806427955627441, 0, 0, 2.2761790752410884, 304.68421055866213, -13.212735456100773)"/>
    <path d="M 193.769 209.399 L 194.175 208.865 L 193.769 208.246 C 193.769 208.246 192.554 208.731 192.012 208.664 C 191.471 208.597 191.202 209.533 192.215 209.801 C 193.229 210.068 198.971 209.801 198.971 209.801 C 198.971 209.801 199.985 209.332 198.971 208.062 L 198.093 208.731 C 198.093 208.731 196.606 209.533 195.863 209.399 Z" fill="#c17174" style="stroke-width: 1.79537; vector-effect: non-scaling-stroke;" transform="matrix(2.806427955627441, 0, 0, 2.2761790752410884, 304.68421055866213, -13.212735456100773)"/>
    <path d="M 191.947 210.535 L 194.041 210.736 L 196.946 210.067 L 197.824 209.198 L 197.753 208.987 L 197.653 208.688 L 197.553 208.397 L 195.591 207.863 C 195.491 208.023 195.355 208.157 195.193 208.256 C 194.557 208.687 193.415 208.997 192.743 209.152 C 192.715 209.159 192.687 209.167 192.66 209.177 C 192.529 209.219 192.41 209.29 192.313 209.385 C 192.196 209.499 192.113 209.643 192.073 209.801 Z" fill="#db8b8b" style="stroke-width: 1.79537; vector-effect: non-scaling-stroke;" transform="matrix(2.806427955627441, 0, 0, 2.2761790752410884, 304.68421055866213, -13.212735456100773)"/>
    <path d="M 191.947 210.535 L 194.041 210.736 L 196.946 210.067 L 197.824 209.198 L 197.753 208.987 L 196.946 209.6 C 196.946 209.6 195.459 210.402 194.716 210.268 L 192.62 210.268 L 193.026 209.734 L 192.661 209.177 C 192.531 209.219 192.412 209.29 192.314 209.385 C 192.197 209.499 192.114 209.643 192.075 209.801 Z" opacity="0.1" style="stroke-width: 1.79537; vector-effect: non-scaling-stroke;" transform="matrix(2.806427955627441, 0, 0, 2.2761790752410884, 304.68421055866213, -13.212735456100773)"/>
    <path d="M 192.62 210.335 L 193.026 209.801 L 192.62 209.181 C 192.62 209.181 191.405 209.667 190.864 209.6 C 190.322 209.533 190.053 210.468 191.067 210.736 C 192.08 211.004 197.823 210.736 197.823 210.736 C 197.823 210.736 198.836 210.268 197.823 208.999 L 196.944 209.667 C 196.944 209.667 195.457 210.468 194.714 210.335 Z" fill="#c17174" style="stroke-width: 1.79537; vector-effect: non-scaling-stroke;" transform="matrix(2.806427955627441, 0, 0, 2.2761790752410884, 304.68421055866213, -13.212735456100773)"/>
    <path d="M 194.308 171.573 C 194.308 171.573 197.552 171.916 197.085 170.57 C 196.951 170.192 196.917 169.786 196.984 169.39 C 197.068 168.9 197.264 168.435 197.557 168.032 L 194.517 168.499 C 194.699 168.8 194.839 169.125 194.93 169.465 C 195.285 170.883 194.308 171.573 194.308 171.573 Z" fill="#db8b8b" style="stroke-width: 1.79537; vector-effect: non-scaling-stroke;" transform="matrix(2.806427955627441, 0, 0, 2.2761790752410884, 304.68421055866213, -13.212735456100773)"/>
    <path d="M 199.849 186.805 C 199.849 186.805 199.782 189.679 199.107 191.083 L 198.971 195.159 C 198.971 195.159 199.173 198.902 199.579 199.636 C 199.985 200.371 198.701 206.587 198.701 206.587 L 198.701 207.657 C 198.701 207.657 196.538 208.458 195.924 207.523 L 196.531 199.569 L 196.261 188.544 Z" fill="#474463" style="stroke-width: 1.79537; vector-effect: non-scaling-stroke;" transform="matrix(2.806427955627441, 0, 0, 2.2761790752410884, 304.68421055866213, -13.212735456100773)"/>
    <path d="M 199.849 186.805 C 199.849 186.805 199.782 189.679 199.107 191.083 L 198.971 195.159 C 198.971 195.159 199.173 198.902 199.579 199.636 C 199.985 200.371 198.701 206.587 198.701 206.587 L 198.701 207.657 C 198.701 207.657 196.538 208.458 195.924 207.523 L 196.531 199.569 L 196.261 188.544 Z" opacity="0.1" style="stroke-width: 1.79537; vector-effect: non-scaling-stroke;" transform="matrix(2.806427955627441, 0, 0, 2.2761790752410884, 304.68421055866213, -13.212735456100773)"/>
    <path d="M 201.199 177.588 L 201.605 178.658 L 201.952 180.929 C 202.044 181.572 201.817 182.219 201.343 182.668 C 200.533 183.469 199.452 185.14 199.452 185.14 L 198.17 181.33 C 198.17 181.33 199.452 181.13 199.249 180.261 C 199.046 179.392 199.115 177.789 199.115 177.789 Z" style="stroke-width: 1.79537; vector-effect: non-scaling-stroke; fill: rgb(116, 216, 255);" transform="matrix(2.806427955627441, 0, 0, 2.2761790752410884, 304.68421055866213, -13.212735456100773)"/>
    <path d="M 201.215 177.573 L 201.619 178.642 L 201.966 180.915 C 202.059 181.557 201.833 182.204 201.359 182.652 C 200.547 183.454 199.468 185.126 199.468 185.126 L 198.175 181.311 C 198.175 181.311 199.459 181.111 199.256 180.242 C 199.053 179.374 199.121 177.768 199.121 177.768 Z" opacity="0.05" style="stroke-width: 1.79537; vector-effect: non-scaling-stroke; fill: rgb(116, 216, 255);" transform="matrix(2.806427955627441, 0, 0, 2.2761790752410884, 304.68421055866213, -13.212735456100773)"/>
    <path d="M 195.195 208.263 C 196.063 209.612 197.411 208.846 197.65 208.695 L 197.552 208.403 L 195.591 207.863 C 195.492 208.025 195.357 208.162 195.195 208.263 Z" opacity="0.1" style="stroke-width: 1.79537; vector-effect: non-scaling-stroke;" transform="matrix(2.806427955627441, 0, 0, 2.2761790752410884, 304.68421055866213, -13.212735456100773)"/>
    <path d="M 192.484 189.418 C 192.552 190.353 193.699 193.761 193.699 193.761 L 194.51 196.565 C 195.09 198.549 195.389 200.602 195.4 202.666 C 195.38 203.316 195.467 203.965 195.658 204.587 C 196.2 206.059 195.119 208.062 195.119 208.062 C 196.064 209.734 197.685 208.597 197.685 208.597 L 197.685 207.528 C 197.685 207.528 198.97 201.714 198.631 200.577 C 198.293 199.441 198.159 196.368 198.159 196.368 L 198.159 190.82 C 199.241 189.753 199.898 188.337 200.012 186.83 C 200.028 186.611 200.042 186.381 200.051 186.144 C 200.104 184.636 199.062 182.868 198.662 182.238 C 198.565 182.086 198.502 182 198.502 182 L 192.539 184.341 L 192.524 184.341 L 192.524 184.573 L 192.524 185.078 Z" fill="#474463" style="stroke-width: 1.79537; vector-effect: non-scaling-stroke;" transform="matrix(2.806427955627441, 0, 0, 2.2761790752410884, 304.68421055866213, -13.212735456100773)"/>
    <path d="M 194.511 168.499 C 194.694 168.8 194.833 169.125 194.924 169.465 C 195.591 169.716 196.333 169.688 196.979 169.39 C 197.063 168.9 197.258 168.435 197.552 168.032 Z" opacity="0.1" style="stroke-width: 1.79537; vector-effect: non-scaling-stroke;" transform="matrix(2.806427955627441, 0, 0, 2.2761790752410884, 304.68421055866213, -13.212735456100773)"/>
    <circle cx="734.33" cy="316.93" r="15.18" fill="#db8b8b" transform="matrix(0.48700505495071406, 0, 0, 0.39073401689529413, 496.7382307420984, 242.8352712596311)" style="stroke-width: 0.308197; vector-effect: non-scaling-stroke;"/>
    <path d="M 192.484 185.073 L 192.514 185.073 C 195.346 185.65 198.904 182.73 198.904 182.73 C 198.808 182.57 198.726 182.404 198.657 182.232 C 198.56 182.079 198.498 181.993 198.498 181.993 L 192.533 184.334 L 192.517 184.568 Z" opacity="0.1" style="stroke-width: 1.79537; vector-effect: non-scaling-stroke; fill: rgb(116, 216, 255);" transform="matrix(2.806427955627441, 0, 0, 2.2761790752410884, 304.68421055866213, -13.212735456100773)"/>
    <path d="M 193.229 171.506 C 193.229 171.506 197.012 169.233 198.227 170.169 L 199.917 172.308 C 199.917 172.308 200.998 172.643 200.797 174.789 L 201.607 178.664 L 199.178 179.265 C 199.178 179.265 197.76 180.603 198.909 182.541 C 198.909 182.541 195.327 185.481 192.488 184.879 L 192.691 181.739 C 192.691 181.739 193.299 180 192.219 178.397 C 191.14 176.793 192.152 175.255 193.165 174.655 C 193.161 174.648 193.633 172.107 193.229 171.506 Z" style="stroke-width: 1.79537; vector-effect: non-scaling-stroke; fill: rgb(116, 216, 255);" transform="matrix(2.806427955627441, 0, 0, 2.2761790752410884, 304.68421055866213, -13.212735456100773)"/>
    <path d="M 193.026 185.14 C 193.026 185.14 191.606 185.407 190.931 186.477 C 190.736 186.798 190.498 187.092 190.223 187.351 C 189.959 187.589 190.001 188.013 190.308 188.195 C 190.845 188.514 191.717 188.71 192.823 187.812 C 194.723 186.276 193.026 185.14 193.026 185.14 Z" style="stroke-width: 1.79537; vector-effect: non-scaling-stroke; fill: rgb(227, 132, 115);" transform="matrix(2.806427955627441, 0, 0, 2.2761790752410884, 304.68421055866213, -13.212735456100773)"/>
    <path d="M 195.121 172.777 C 195.121 172.777 196.471 172.643 196.809 176.117 C 197.147 179.592 197.687 180.395 197.687 180.395 C 197.687 180.395 198.026 182.199 197.214 183.269 C 196.401 184.338 194.85 186.611 194.85 186.611 C 194.85 186.611 193.161 187.078 192.823 185.409 L 194.918 181.533 C 194.918 181.533 195.254 180.196 194.444 179.26 C 193.633 178.325 193.026 172.107 195.121 172.777 Z" opacity="0.1" style="stroke-width: 1.79537; vector-effect: non-scaling-stroke; fill: rgb(116, 216, 255);" transform="matrix(2.806427955627441, 0, 0, 2.2761790752410884, 304.68421055866213, -13.212735456100773)"/>
    <path d="M 194.985 172.576 C 194.985 172.576 196.335 172.442 196.674 175.918 C 197.012 179.394 197.552 180.194 197.552 180.194 C 197.552 180.194 197.899 181.998 197.08 183.068 C 196.261 184.137 194.723 186.41 194.723 186.41 C 194.723 186.41 193.035 186.877 192.696 185.208 L 194.791 181.332 C 194.791 181.332 195.129 179.995 194.317 179.059 C 193.505 178.124 192.89 171.908 194.985 172.576 Z" style="stroke-width: 1.79537; vector-effect: non-scaling-stroke; fill: rgba(116, 216, 255, 0.96);" transform="matrix(2.806427955627441, 0, 0, 2.2761790752410884, 304.68421055866213, -13.212735456100773)"/>
    <path d="M 193.869 175.082 C 193.869 175.082 193.736 177.154 194.343 178.29 C 194.95 179.427 194.95 180.896 194.343 181.698" opacity="0.1" style="stroke-width: 1.79537; vector-effect: non-scaling-stroke; fill: rgb(116, 216, 255);" transform="matrix(2.806427955627441, 0, 0, 2.2761790752410884, 304.68421055866213, -13.212735456100773)"/>
    <path d="M 193.533 172.541 C 193.533 172.541 194.072 172.007 195.627 171.94 C 197.182 171.873 197.856 171.407 197.856 171.407" opacity="0.1" style="stroke-width: 1.79537; vector-effect: non-scaling-stroke;" transform="matrix(2.806427955627441, 0, 0, 2.2761790752410884, 304.68421055866213, -13.212735456100773)"/>
    <path d="M 197.29 163.527 C 197.701 163.577 198.17 163.716 198.317 164.097 C 198.358 164.242 198.389 164.39 198.413 164.538 C 198.565 165.122 199.23 165.397 199.639 165.84 C 200 166.234 200.16 166.766 200.278 167.287 C 200.614 168.776 200.695 170.311 200.516 171.827 C 200.384 172.934 200.113 174.026 200.038 175.138 C 199.964 176.251 200.101 177.423 200.715 178.359 C 200.981 178.761 201.329 179.114 201.517 179.561 C 201.13 179.871 200.595 179.916 200.096 179.933 C 199.517 179.952 198.936 179.952 198.352 179.933 C 198.046 179.945 197.742 179.882 197.467 179.749 C 197.272 179.627 197.112 179.457 197.002 179.257 C 196.668 178.699 196.585 178.028 196.599 177.381 C 196.613 176.733 196.717 176.089 196.729 175.441 C 196.764 175.087 196.684 174.731 196.502 174.424 C 196.334 174.232 196.144 174.059 195.936 173.909 C 195.213 173.274 194.964 172.258 194.94 171.302 C 194.916 170.346 195.075 169.39 194.994 168.437 C 194.963 168.064 194.82 167.616 194.451 167.544 C 194.334 167.54 194.218 167.525 194.104 167.499 C 193.807 167.386 193.836 166.973 193.757 166.669 C 193.661 166.326 193.366 166.063 193.283 165.72 C 193.089 164.911 194.13 163.945 194.812 163.66 C 195.494 163.375 196.559 163.438 197.29 163.527 Z" opacity="0.1" style="stroke-width: 1.79537; vector-effect: non-scaling-stroke;" transform="matrix(2.806427955627441, 0, 0, 2.2761790752410884, 304.68421055866213, -13.212735456100773)"/>
    <path d="M 197.358 163.393 C 197.768 163.443 198.237 163.582 198.384 163.965 C 198.426 164.11 198.457 164.256 198.48 164.404 C 198.633 164.988 199.298 165.263 199.707 165.706 C 200.068 166.101 200.228 166.633 200.346 167.153 C 200.682 168.644 200.762 170.181 200.582 171.698 C 200.451 172.806 200.181 173.898 200.106 175.011 C 200.032 176.126 200.169 177.295 200.783 178.23 C 201.048 178.634 201.397 178.986 201.585 179.432 C 201.198 179.744 200.663 179.787 200.163 179.804 C 199.585 179.823 199.004 179.823 198.419 179.804 C 198.114 179.817 197.81 179.755 197.535 179.622 C 197.34 179.499 197.18 179.329 197.069 179.128 C 196.736 178.57 196.653 177.899 196.667 177.252 C 196.681 176.605 196.785 175.961 196.797 175.314 C 196.797 174.96 196.776 174.586 196.569 174.297 C 196.402 174.104 196.212 173.931 196.004 173.782 C 195.28 173.147 195.032 172.131 195.008 171.175 C 194.983 170.219 195.143 169.263 195.062 168.31 C 195.03 167.937 194.888 167.489 194.518 167.417 C 194.402 167.413 194.285 167.398 194.171 167.372 C 193.875 167.259 193.904 166.846 193.824 166.542 C 193.729 166.199 193.434 165.938 193.351 165.593 C 193.156 164.784 194.197 163.818 194.879 163.533 C 195.561 163.248 196.632 163.304 197.358 163.393 Z" fill="#464353" style="stroke-width: 1.79537; vector-effect: non-scaling-stroke;" transform="matrix(2.806427955627441, 0, 0, 2.2761790752410884, 304.68421055866213, -13.212735456100773)"/>
    <ellipse cx="755.613" cy="311.896" rx="4.443" ry="0.546" fill="#6c63ff" opacity="0.1" style="" transform="matrix(0.9999999999999999, 0, 0, 0.9999999999999999, 161.7478061622576, -30.079466503555835)"/>
    <ellipse cx="717.263" cy="308.29" rx="4.443" ry="0.546" fill="#6c63ff" opacity="0.1" style="" transform="matrix(0.9999999999999999, 0, 0, 0.9999999999999999, 161.7478061622576, -30.079466503555835)"/>
    <ellipse cx="693.925" cy="259.373" rx="4.443" ry="0.546" opacity="0.1" style="fill: rgb(30, 95, 235);" transform="matrix(0.9999999999999999, 0, 0, 0.9999999999999999, 161.7478061622576, -30.079466503555835)"/>
    <ellipse cx="684.56" cy="269.159" rx="4.443" ry="0.546" opacity="0.1" style="fill: rgb(30, 95, 235);" transform="matrix(0.9999999999999999, 0, 0, 0.9999999999999999, 161.7478061622576, -30.079466503555835)"/>
    <path d="M 805.083 315.035 C 805.083 315.426 805.043 315.745 804.994 315.745 C 804.946 315.745 804.905 315.426 804.905 315.035 C 804.905 314.644 804.956 314.822 805.004 314.822 C 805.052 314.822 805.083 314.642 805.083 315.035 Z" fill="#ffd037" style="stroke-width: 1.80478; vector-effect: non-scaling-stroke;" transform="matrix(0.9999999999999999, 0, 0, 0.9999999999999999, 161.7478061622576, -30.079466503555835)"/>
    <path d="M 805.578 315.503 C 805.265 315.69 804.998 315.802 804.967 315.756 C 804.936 315.709 805.18 315.518 805.491 315.33 C 805.802 315.143 805.684 315.279 805.706 315.33 C 805.727 315.381 805.891 315.316 805.578 315.503 Z" fill="#ffd037" style="stroke-width: 1.80478; vector-effect: non-scaling-stroke;" transform="matrix(0.9999999999999999, 0, 0, 0.9999999999999999, 161.7478061622576, -30.079466503555835)"/>
    <path d="M 798.116 315.035 C 798.116 315.426 798.157 315.745 798.207 315.745 C 798.257 315.745 798.296 315.426 798.296 315.035 C 798.296 314.644 798.246 314.822 798.196 314.822 C 798.145 314.822 798.116 314.642 798.116 315.035 Z" fill="#ffd037" style="stroke-width: 1.80478; vector-effect: non-scaling-stroke;" transform="matrix(0.9999999999999999, 0, 0, 0.9999999999999999, 161.7478061622576, -30.079466503555835)"/>
    <path d="M 797.624 315.503 C 797.937 315.69 798.203 315.802 798.232 315.756 C 798.261 315.709 798.022 315.518 797.709 315.33 C 797.396 315.143 797.515 315.279 797.496 315.33 C 797.477 315.381 797.31 315.316 797.624 315.503 Z" fill="#ffd037" style="stroke-width: 1.80478; vector-effect: non-scaling-stroke;" transform="matrix(0.9999999999999999, 0, 0, 0.9999999999999999, 161.7478061622576, -30.079466503555835)"/>
    <rect x="679.875" y="293.583" width="0.367" height="27.165" style="fill: rgb(30, 95, 235);" transform="matrix(0.9999999999999999, 0, 0, 0.9999999999999999, 161.7478061622576, -30.079466503555835)"/>
    <rect x="692.179" y="293.583" width="0.367" height="27.165" style="fill: rgb(30, 95, 235);" transform="matrix(0.9999999999999999, 0, 0, 0.9999999999999999, 161.7478061622576, -30.079466503555835)"/>
    <path d="M 972.05 346.901 C 977.33 382.845 974.111 418.194 949.84 430.247 C 925.568 442.299 896.159 424.526 884.154 390.548 C 872.149 356.57 895.849 338.538 906.365 307.205 C 927.721 243.574 955.655 235.285 972.05 346.901 Z" style="fill: rgba(83, 176, 222, 0.29);"/>
    <rect x="664.351" y="293.421" width="55.459" height="0.325" style="fill: rgb(30, 95, 235);" transform="matrix(0.9999999999999999, 0, 0, 0.9999999999999999, 161.7478061622576, -30.079466503555835)"/>
    <rect x="664.351" y="308.559" width="55.459" height="0.325" style="fill: rgb(30, 95, 235);" transform="matrix(0.9999999999999999, 0, 0, 0.9999999999999999, 161.7478061622576, -30.079466503555835)"/>
    <rect x="664.351" y="320.604" width="55.459" height="0.325" style="fill: rgb(30, 95, 235);" transform="matrix(0.9999999999999999, 0, 0, 0.9999999999999999, 161.7478061622576, -30.079466503555835)"/>
    <rect x="668.116" y="335.334" width="49.399" height="0.325" style="fill: rgb(30, 95, 235);" transform="matrix(0.9999999999999999, 0, 0, 0.9999999999999999, 161.7478061622576, -30.079466503555835)"/>
    <path d="M 665.27 338.183 C 662.866 338.183 661.364 335.877 662.566 334.032 C 663.768 332.187 666.772 332.187 667.973 334.032 C 668.247 334.453 668.392 334.93 668.392 335.416 C 668.39 336.943 666.993 338.181 665.27 338.183 Z M 665.27 332.974 C 663.149 332.974 661.824 335.009 662.884 336.636 C 663.944 338.264 666.595 338.264 667.655 336.636 C 667.897 336.265 668.024 335.844 668.024 335.416 C 668.023 334.068 666.79 332.975 665.27 332.974 Z" style="fill: rgb(30, 95, 235);" transform="matrix(0.9999999999999999, 0, 0, 0.9999999999999999, 161.7478061622576, -30.079466503555835)"/>
    <rect x="679.88" y="320.766" width="0.367" height="14.649" style="fill: rgb(30, 95, 235);" transform="matrix(0.9999999999999999, 0, 0, 0.9999999999999999, 161.7478061622576, -30.079466503555835)"/>
    <rect x="692.184" y="308.721" width="0.367" height="26.694" style="fill: rgb(30, 95, 235);" transform="matrix(0.9999999999999999, 0, 0, 0.9999999999999999, 161.7478061622576, -30.079466503555835)"/>
    <rect x="704.672" y="293.583" width="0.367" height="41.832" style="fill: rgb(30, 95, 235);" transform="matrix(0.9999999999999999, 0, 0, 0.9999999999999999, 161.7478061622576, -30.079466503555835)"/>
    <circle cx="122.52941" cy="349" r="14.58824" transform="matrix(0.18364100158214566, 0, 0, 0.16277100145816803, 819.3035451953352, 248.52896644865558)" style="fill: rgb(30, 95, 235);"/>
    <circle cx="190" cy="349" r="14.58824" transform="matrix(0.18364100158214566, 0, 0, 0.16277100145816803, 819.3035451953352, 248.52896644865558)" style="fill: rgb(30, 95, 235);"/>
    <circle cx="257.47059" cy="349" r="14.58824" transform="matrix(0.18364100158214566, 0, 0, 0.16277100145816803, 819.3035451953352, 248.52896644865558)" style="fill: rgb(30, 95, 235);"/>
    <circle cx="258" cy="92" r="14" transform="matrix(0.18364100158214566, 0, 0, 0.16277100145816803, 819.3035451953352, 248.52896644865558)" style="fill: rgb(30, 95, 235);"/>
    <circle cx="257.63704" cy="184.89026" r="14" transform="matrix(0.18364100158214566, 0, 0, 0.16277100145816803, 819.3035451953352, 248.52896644865558)" style="fill: rgb(30, 95, 235);"/>
    <circle cx="190" cy="185" r="14" transform="matrix(0.18364100158214566, 0, 0, 0.16277100145816803, 819.3035451953352, 248.52896644865558)" style="fill: rgb(30, 95, 235);"/>
    <circle cx="189.63704" cy="258.89026" r="14" transform="matrix(0.18364100158214566, 0, 0, 0.16277100145816803, 819.3035451953352, 248.52896644865558)" style="fill: rgb(30, 95, 235);"/>
    <circle cx="123" cy="259" r="14" transform="matrix(0.18364100158214566, 0, 0, 0.16277100145816803, 819.3035451953352, 248.52896644865558)" style="fill: rgb(30, 95, 235);"/>
    <circle cx="13" cy="92" r="13" transform="matrix(0.18364100158214566, 0, 0, 0.16277100145816803, 819.3035451953352, 248.52896644865558)" style="fill: rgb(30, 95, 235);"/>
    <circle cx="13" cy="184" r="13" transform="matrix(0.18364100158214566, 0, 0, 0.16277100145816803, 819.3035451953352, 248.52896644865558)" style="fill: rgb(30, 95, 235);"/>
    <circle cx="13" cy="259" r="13" transform="matrix(0.18364100158214566, 0, 0, 0.16277100145816803, 819.3035451953352, 248.52896644865558)" style="fill: rgb(30, 95, 235);"/>
    <rect x="659.944" width="12.855" height="1.066" style="fill: rgb(30, 95, 235);" y="278.609" transform="matrix(0.9999999999999999, 0, 0, 0.9999999999999999, 161.7478061622576, -30.079466503555835)"/>
    <rect x="659.944" y="281.006" width="12.855" height="1.066" style="fill: rgb(30, 95, 235);" transform="matrix(0.9999999999999999, 0, 0, 0.9999999999999999, 161.7478061622576, -30.079466503555835)"/>
    <rect x="659.944" y="283.403" width="12.855" height="1.066" style="fill: rgb(30, 95, 235);" transform="matrix(0.9999999999999999, 0, 0, 0.9999999999999999, 161.7478061622576, -30.079466503555835)"/>
    <path d="M 762.037 342.392 C 762.037 342.392 765.509 346.334 765.075 349.123 C 764.641 351.911 772.235 345.276 772.235 345.276 C 772.235 345.276 769.631 340.469 771.042 338.161 C 772.452 335.853 762.037 342.392 762.037 342.392 Z" fill="#ffb9b9" style="" transform="matrix(0.9999999999999999, 0, 0, 0.9999999999999999, 161.7478061622576, -30.079466503555835)"/>
    <path d="M 774.188 422.2 C 774.188 422.2 778.744 426.623 777.985 427.585 C 777.225 428.546 763.882 432.2 762.363 432.008 C 760.844 431.815 760.085 430.854 760.627 430.565 C 761.17 430.277 764.641 428.642 764.641 428.642 L 767.57 425.661 C 767.57 425.661 769.74 424.604 769.74 424.027 C 769.74 423.45 774.188 422.2 774.188 422.2 Z" fill="#2f2e41" style="" transform="matrix(0.9999999999999999, 0, 0, 0.9999999999999999, 161.7478061622576, -30.079466503555835)"/>
    <path d="M 766.485 427.104 C 766.485 427.104 764.75 429.604 764.424 429.7 C 764.099 429.796 766.051 433.258 766.051 433.258 L 770.608 432.008 L 773.103 430.181 L 772.56 427.681 Z" fill="#ffb9b9" style="" transform="matrix(0.9999999999999999, 0, 0, 0.9999999999999999, 161.7478061622576, -30.079466503555835)"/>
    <path d="M 761.82 379.411 L 759.651 387.969 C 759.651 387.969 752.165 402.873 757.373 405.469 L 768.763 424.796 L 774.838 422.392 L 764.641 402.585 L 769.306 379.796 Z" fill="#d0cde1" style="" transform="matrix(0.9999999999999999, 0, 0, 0.9999999999999999, 161.7478061622576, -30.079466503555835)"/>
    <path d="M 761.82 379.411 L 759.651 387.969 C 759.651 387.969 752.165 402.873 757.373 405.469 L 768.763 424.796 L 774.838 422.392 L 764.641 402.585 L 769.306 379.796 Z" opacity="0.1" style="" transform="matrix(0.9999999999999999, 0, 0, 0.9999999999999999, 161.7478061622576, -30.079466503555835)"/>
    <path d="M 762.58 380.757 L 761.479 380.757 C 761.393 383.715 761.58 386.673 762.037 389.604 C 762.797 394.508 764.75 405.758 764.75 405.758 C 764.75 405.758 764.533 407.873 765.183 408.546 C 765.834 409.219 765.943 408.354 766.051 409.892 C 766.16 411.431 767.19 422.127 767.19 422.127 C 767.19 422.127 767.895 424.315 767.136 424.796 C 766.377 425.277 764.858 427.873 765.943 428.258 C 767.028 428.642 774.513 429.123 774.838 428.835 C 775.164 428.546 774.838 410.469 774.838 410.469 C 774.838 410.469 774.622 406.815 774.405 406.623 C 774.188 406.431 773.211 403.835 773.537 403.257 C 773.862 402.681 773.645 400.95 773.645 400.662 C 773.645 400.373 772.669 400.662 773.537 399.411 C 774.405 398.161 774.513 388.161 774.513 388.161 C 774.513 388.161 779.178 381.815 777.768 380.18 Z" fill="#d0cde1" style="" transform="matrix(0.9999999999999999, 0, 0, 0.9999999999999999, 161.7478061622576, -30.079466503555835)"/>
    <circle cx="654.10342" cy="69.90336" r="38.98859" fill="#ffb9b9" transform="matrix(0.18364100158214566, 0, 0, 0.16277100145816803, 806.7013110415404, 296.0300966057262)" style=""/>
    <path d="M 772.235 344.219 C 772.235 344.219 767.895 345.18 766.16 347.488 L 764.641 347.776 L 764.641 349.123 C 764.641 349.123 761.82 357.103 762.471 360.565 C 763.122 364.027 762.471 370.757 761.386 372.584 C 760.302 374.411 759.976 374.796 760.519 375.565 C 761.061 376.334 761.82 378.93 761.278 380.084 C 760.736 381.238 761.278 382.392 766.268 382.68 C 771.258 382.969 778.31 382.969 778.31 381.431 C 778.31 379.892 777.876 375.565 778.31 374.411 C 778.744 373.257 778.961 372.488 778.744 371.43 C 778.527 370.373 779.178 358.546 779.178 358.546 C 779.178 358.546 779.286 346.719 772.235 344.219 Z" fill="#2f2e41" style="" transform="matrix(0.9999999999999999, 0, 0, 0.9999999999999999, 161.7478061622576, -30.079466503555835)"/>
    <path d="M 762.037 373.93 L 756.071 381.815 C 756.071 381.815 749.779 386.911 752.057 389.219 C 754.335 391.527 760.302 382.488 760.302 382.488 L 766.811 375.95 Z" fill="#ffb9b9" style="" transform="matrix(0.9999999999999999, 0, 0, 0.9999999999999999, 161.7478061622576, -30.079466503555835)"/>
    <path d="M 765.834 430.181 C 765.834 430.181 765.617 428.931 764.858 428.931 C 764.098 428.931 759 432.008 759 432.008 C 759 432.008 752 434.677 754.956 434.841 C 757.894 435.003 773.428 435.373 773.537 434.892 C 773.645 434.412 773.862 429.67 773.103 429.685 C 772.343 429.7 766.268 430.758 766.268 430.758 Z" fill="#2f2e41" style="" transform="matrix(0.9999999999999999, 0, 0, 0.9999999999999999, 161.7478061622576, -30.079466503555835)"/>
    <path d="M 765.584 334.209 C 765.33 334.32 765.05 334.377 764.766 334.373 C 764.473 334.388 764.124 334.372 763.968 334.152 C 763.895 334.007 763.861 333.849 763.869 333.69 C 763.739 332.83 762.826 332.24 761.863 332.394 C 761.894 332.712 762.003 333.02 762.183 333.297 C 761.54 333.49 760.832 333.406 760.269 333.071 L 760.158 334.366 C 759.769 334.531 759.271 334.565 758.931 334.329 C 758.592 334.093 758.565 333.54 758.949 333.365 C 758.475 333.277 757.895 333.089 757.86 332.661 C 757.828 332.27 758.296 331.984 758.382 331.6 C 758.452 331.287 758.258 330.946 758.396 330.651 C 758.576 330.263 759.23 330.163 759.361 329.76 C 759.428 329.554 759.332 329.335 759.355 329.122 C 759.415 328.565 760.205 328.333 760.836 328.365 C 761.466 328.397 762.154 328.545 762.69 328.249 C 762.949 328.105 763.131 327.875 763.359 327.694 C 764.006 327.202 764.934 327.131 765.667 327.516 C 765.921 327.656 766.142 327.849 766.425 327.934 C 767.003 328.108 767.607 327.779 768.212 327.703 C 768.66 327.635 769.119 327.753 769.457 328.023 C 769.79 328.307 769.866 328.753 769.642 329.111 C 769.997 329.058 770.373 329.007 770.708 329.125 C 771.042 329.243 771.298 329.597 771.143 329.886 C 771.086 329.961 771.04 330.043 771.008 330.13 C 770.977 330.297 771.159 330.441 771.343 330.489 C 771.527 330.537 771.726 330.528 771.906 330.586 C 772.65 330.828 772.471 331.881 773.056 332.354 C 773.257 332.483 773.469 332.598 773.691 332.698 C 774.29 333.066 774.517 333.755 774.235 334.351 C 774.118 334.581 773.921 334.801 773.945 335.053 C 773.978 335.406 774.405 335.599 774.705 335.834 C 775.265 336.292 775.431 337.017 775.116 337.633 C 774.841 338.142 774.244 338.528 774.184 339.09 C 774.158 339.334 774.24 339.578 774.236 339.823 C 774.2 340.283 773.93 340.703 773.503 340.965 C 773.078 341.22 772.599 341.396 772.095 341.484 C 771.859 341.534 771.577 341.612 771.519 341.822 C 771.452 342.07 771.764 342.296 771.732 342.55 C 771.712 342.66 771.643 342.759 771.541 342.825 C 771.118 343.118 770.448 342.867 770.189 342.449 C 769.93 342.032 769.963 341.526 770.003 341.051 L 770.149 339.325 C 770.195 338.787 770.19 338.149 769.696 337.836 C 769.15 337.489 768.354 337.77 767.737 337.535 C 767.093 337.291 766.862 336.576 766.888 335.956 C 766.914 335.336 767.114 334.715 766.999 334.102 C 766.856 333.344 766.095 332.834 765.326 333.325 C 766.002 333.244 766.118 333.931 765.584 334.209 Z" fill="#2f2e41" style="" transform="matrix(0.9999999999999999, 0, 0, 0.9999999999999999, 161.7478061622576, -30.079466503555835)"/>
    <path d="M 771.584 348.834 C 771.584 348.834 767.245 350.372 767.245 353.642 C 767.245 356.911 767.462 361.238 766.702 362.68 C 765.943 364.123 765.292 364.603 765.726 365.757 C 766.16 366.911 766.919 366.719 765.726 367.584 C 764.533 368.45 764.641 367.007 764.533 368.45 C 764.424 369.892 765.617 370.084 764.533 370.757 C 763.448 371.43 760.627 374.123 761.82 374.988 C 763.014 375.853 766.16 378.642 767.245 377.584 C 768.33 376.527 768.872 373.834 770.391 374.027 C 771.91 374.219 772.126 374.315 771.91 373.354 C 771.692 372.392 770.716 372.392 772.018 372.104 C 773.32 371.815 773.862 372.488 773.428 371.527 C 772.994 370.565 772.669 370.181 773.537 369.123 C 774.405 368.065 774.838 367.776 774.73 366.719 C 774.622 365.661 777.117 356.142 777.117 356.142 C 777.117 356.142 777.876 348.065 771.584 348.834 Z" opacity="0.1" style="" transform="matrix(0.9999999999999999, 0, 0, 0.9999999999999999, 161.7478061622576, -30.079466503555835)"/>
    <path d="M 770.391 348.642 C 770.391 348.642 766.051 350.18 766.051 353.449 C 766.051 356.719 766.268 361.046 765.509 362.488 C 764.75 363.93 764.098 364.411 764.533 365.565 C 764.966 366.719 765.726 366.526 764.533 367.392 C 763.339 368.257 763.448 366.815 763.339 368.257 C 763.231 369.7 764.424 369.892 763.339 370.565 C 762.255 371.238 759.434 373.93 760.627 374.796 C 761.82 375.661 764.966 378.45 766.051 377.392 C 767.136 376.334 767.678 373.642 769.197 373.834 C 770.716 374.027 770.933 374.123 770.716 373.161 C 770.499 372.2 769.523 372.2 770.825 371.911 C 772.126 371.623 772.669 372.296 772.235 371.334 C 771.801 370.373 771.475 369.988 772.343 368.93 C 773.211 367.873 773.645 367.584 773.537 366.526 C 773.428 365.469 775.923 355.95 775.923 355.95 C 775.923 355.95 776.683 347.873 770.391 348.642 Z" opacity="0.1" style="" transform="matrix(0.9999999999999999, 0, 0, 0.9999999999999999, 161.7478061622576, -30.079466503555835)"/>
    <path d="M 770.933 348.353 C 770.933 348.353 766.594 349.892 766.594 353.161 C 766.594 356.43 766.811 360.757 766.051 362.2 C 765.292 363.642 764.641 364.123 765.075 365.277 C 765.509 366.43 766.268 366.238 765.075 367.104 C 763.882 367.969 763.99 366.526 763.882 367.969 C 763.773 369.411 764.966 369.603 763.882 370.277 C 762.797 370.95 759.976 373.642 761.17 374.507 C 762.363 375.373 765.509 378.161 766.594 377.104 C 767.678 376.046 768.221 373.354 769.74 373.546 C 771.258 373.738 771.475 373.834 771.258 372.873 C 771.042 371.911 770.065 371.911 771.367 371.623 C 772.669 371.334 773.211 372.007 772.777 371.046 C 772.343 370.084 772.018 369.7 772.886 368.642 C 773.753 367.584 774.188 367.296 774.079 366.238 C 773.971 365.18 776.466 355.661 776.466 355.661 C 776.466 355.661 777.225 347.584 770.933 348.353 Z" fill="#2f2e41" style="" transform="matrix(0.9999999999999999, 0, 0, 0.9999999999999999, 161.7478061622576, -30.079466503555835)"/>
    <rect x="712.098" y="356.413" width="12.855" height="1.066" fill="#3f3d56" style="" transform="matrix(0.9999999999999999, 0, 0, 0.9999999999999999, 161.7478061622576, -30.079466503555835)"/>
    <rect x="712.098" y="358.81" width="12.855" height="1.066" fill="#3f3d56" style="" transform="matrix(0.9999999999999999, 0, 0, 0.9999999999999999, 161.7478061622576, -30.079466503555835)"/>
    <rect x="712.098" y="361.207" width="12.855" height="1.066" fill="#3f3d56" style="" transform="matrix(0.9999999999999999, 0, 0, 0.9999999999999999, 161.7478061622576, -30.079466503555835)"/>
    <rect x="704.939" y="339.113" width="4.407" height="3.907" style="fill: rgb(30, 95, 235);" transform="matrix(0.9999999999999999, 0, 0, 0.9999999999999999, 161.7478061622576, -30.079466503555835)"/>
    <rect x="704.939" y="354.088" width="4.407" height="3.907" style="fill: rgb(30, 95, 235);" transform="matrix(0.9999999999999999, 0, 0, 0.9999999999999999, 161.7478061622576, -30.079466503555835)"/>
    <rect x="704.939" y="366.296" width="4.407" height="3.907" style="fill: rgb(30, 95, 235);" transform="matrix(0.9999999999999999, 0, 0, 0.9999999999999999, 161.7478061622576, -30.079466503555835)"/>
    <path d="M 709.53 385.015 L 704.755 385.015 L 704.755 380.783 L 709.53 380.783 Z M 705.122 384.689 L 709.162 384.689 L 709.162 381.108 L 705.122 381.108 Z" style="fill: rgb(30, 95, 235);" transform="matrix(0.9999999999999999, 0, 0, 0.9999999999999999, 161.7478061622576, -30.079466503555835)"/>
    <path d="M 603.508 411.237 C 540.785 411.237 489.748 364.384 489.748 306.797 C 489.748 249.21 540.785 202.361 603.508 202.361 C 666.231 202.361 717.264 249.21 717.264 306.797 C 717.264 364.384 666.231 411.237 603.508 411.237 Z M 603.508 203.369 C 541.387 203.369 490.85 249.767 490.85 306.797 C 490.85 363.83 541.387 410.225 603.508 410.225 C 665.629 410.225 716.166 363.83 716.166 306.797 C 716.166 249.767 665.629 203.369 603.508 203.369 Z" style="fill: rgb(8, 64, 232);" transform="matrix(0.9999999999999999, 0, 0, 0.9999999999999999, 161.7478061622576, -30.079466503555835)"/>
    <path d="M 603.508 381.973 C 558.357 381.973 521.623 348.25 521.623 306.797 C 521.623 265.348 558.357 231.621 603.508 231.621 C 648.659 231.621 685.389 265.348 685.389 306.797 C 685.389 348.25 648.659 381.973 603.508 381.973 Z M 603.508 232.633 C 558.963 232.633 522.725 265.902 522.725 306.797 C 522.725 347.692 558.963 380.965 603.508 380.965 C 648.049 380.965 684.291 347.692 684.291 306.797 C 684.291 265.902 648.049 232.633 603.508 232.633 Z" style="fill: rgb(8, 64, 232);" transform="matrix(0.9999999999999999, 0, 0, 0.9999999999999999, 161.7478061622576, -30.079466503555835)"/>
    <path d="M 603.508 352.378 C 565.29 352.378 541.403 314.394 560.51 284.01 C 579.62 253.62 627.395 253.62 646.502 284.01 C 650.862 290.938 653.156 298.799 653.156 306.797 C 653.124 331.96 630.917 352.352 603.508 352.378 Z M 603.508 262.228 C 566.136 262.228 542.78 299.371 561.466 329.085 C 580.152 358.799 626.864 358.799 645.55 329.085 C 649.811 322.307 652.054 314.624 652.054 306.797 C 652.023 282.192 630.307 262.254 603.508 262.228 Z" style="fill: rgb(8, 64, 232);" transform="matrix(0.9999999999999999, 0, 0, 0.9999999999999999, 161.7478061622576, -30.079466503555835)"/>
    <circle cx="565.7211" cy="218.91089" r="45.87339" transform="matrix(0.5495480298995971, 0, 0, 0.5045320987701415, 454.362833115531, 166.27196092122279)" style="fill: rgb(30, 95, 235);"/>
    <circle cx="598.53905" cy="14.54522" r="14.54522" transform="matrix(0.5495480298995971, 0, 0, 0.5045320987701415, 454.362833115531, 166.27196092122279)" style="fill: rgb(30, 95, 235);"/>
    <circle cx="416.16438" cy="360.2739" r="14.54522" transform="matrix(0.5495480298995971, 0, 0, 0.5045320987701415, 519.4309192113004, 196.58809315550224)" style="fill: rgb(30, 95, 235);"/>
    <circle cx="418.16438" cy="235.2739" r="14.54522" transform="matrix(0.5495480298995971, 0, 0, 0.5045320987701415, 454.362833115531, 166.27196092122279)" style="fill: rgb(30, 95, 235);"/>
    <circle cx="690.16438" cy="137.2739" r="14.54522" transform="matrix(0.5495480298995971, 0, 0, 0.5045320987701415, 454.362833115531, 166.27196092122279)" style="fill: rgb(181, 188, 209);"/>
    <circle cx="747.16438" cy="318.2739" r="14.54522" transform="matrix(0.5495480298995971, 0, 0, 0.5045320987701415, 454.362833115531, 166.27196092122279)" style="fill: rgb(30, 95, 235);"/>
    <circle cx="704.83104" cy="253.98191" r="14.54522" transform="matrix(0.5495480298995971, 0, 0, 0.5045320987701415, 454.362833115531, 166.27196092122279)" style="fill: rgb(181, 188, 209);"/>
    <circle cx="385.95507" cy="115.24289" r="14.54522" transform="matrix(0.5495480298995971, 0, 0, 0.5045320987701415, 454.362833115531, 166.27196092122279)" style="fill: rgb(30, 95, 235);"/>
    <path d="M 572.478 361.391 L 571.741 408.373 C 571.741 408.373 598.395 408.373 621.072 416.472 L 621.515 368.997 C 621.515 368.997 585.142 359.448 572.478 361.391 Z" opacity="0.1" style="" transform="matrix(0.9999999999999999, 0, 0, 0.9999999999999999, 161.7478061622576, -30.079466503555835)"/>
    <path d="M 574.309 364.45 L 573.573 411.432 C 573.573 411.432 600.227 411.432 622.904 419.532 L 623.346 372.057 C 623.346 372.057 586.973 362.508 574.309 364.45 Z" fill="#f5f5fb" style="" transform="matrix(0.9999999999999999, 0, 0, 0.9999999999999999, 161.7478061622576, -30.079466503555835)"/>
    <path d="M 564.083 362.094 L 564.819 409.076 C 564.819 409.076 538.165 409.076 515.488 417.175 L 515.045 369.713 C 515.045 369.713 551.418 360.151 564.083 362.094 Z" opacity="0.1" style="" transform="matrix(0.9999999999999999, 0, 0, 0.9999999999999999, 161.7478061622576, -30.079466503555835)"/>
    <path d="M 565.209 363.675 L 565.945 410.657 C 565.945 410.657 539.291 410.657 516.614 418.756 L 516.172 371.294 C 516.172 371.294 552.545 361.732 565.209 363.675 Z" fill="#f5f5fb" style="" transform="matrix(0.9999999999999999, 0, 0, 0.9999999999999999, 161.7478061622576, -30.079466503555835)"/>
    <path d="M 631.645 371.999 L 631.645 418.49 C 631.645 418.49 640.342 417.356 658.593 442.14 L 660.214 395.649 C 660.214 395.649 641.217 373.134 631.645 371.999 Z" opacity="0.1" style="" transform="matrix(0.9999999999999999, 0, 0, 0.9999999999999999, 161.7478061622576, -30.079466503555835)"/>
    <path d="M 632.738 375.271 L 632.738 421.761 C 632.738 421.761 641.434 420.629 659.686 445.412 L 661.307 398.921 C 661.307 398.921 642.31 376.406 632.738 375.271 Z" fill="#f5f5fb" style="" transform="matrix(0.9999999999999999, 0, 0, 0.9999999999999999, 161.7478061622576, -30.079466503555835)"/>
    <path d="M 511.303 375.597 L 511.303 422.089 C 511.303 422.089 502.607 420.957 484.355 445.74 L 482.736 399.249 C 482.736 399.249 501.731 376.734 511.303 375.597 Z" opacity="0.1" style="" transform="matrix(0.9999999999999999, 0, 0, 0.9999999999999999, 161.7478061622576, -30.079466503555835)"/>
    <path d="M 513.169 377.177 L 513.169 423.67 C 513.169 423.67 504.472 422.536 486.221 447.32 L 484.601 400.829 C 484.601 400.829 503.597 378.314 513.169 377.177 Z" fill="#f5f5fb" style="" transform="matrix(0.9999999999999999, 0, 0, 0.9999999999999999, 161.7478061622576, -30.079466503555835)"/>
    <path d="M 612.436 454.834 C 612.436 456.417 603.293 465.569 582.481 465.569 C 561.669 465.569 550.401 456.736 550.401 455.152 C 550.401 453.569 562.056 457.491 582.868 457.491 C 603.679 457.491 612.436 453.248 612.436 454.834 Z" fill="#f7f7fd" style="" transform="matrix(0.9999999999999999, 0, 0, 0.9999999999999999, 161.7478061622576, -30.079466503555835)"/>
    <g opacity="0.1" transform="matrix(0.19325800240039825, 0, 0, 0.21258702874183652, 645.0758803701576, 324.90729448333883)" style="">
      <ellipse cx="508.8" cy="239.5" rx="152.12" ry="67.89"/>
      <path d="M735.8,326.86c-6.73,35.4-73.23,63.19-154.29,63.19-81.77,0-148.73-28.28-154.47-64.11h-.57v57.69C453.21,411.57,512.41,431,581.13,431s127.92-19.43,154.67-47.37Z" transform="translate(-72.24 -63.09)"/>
      <path d="M735.8,397.06c-6.73,35.39-73.23,63.19-154.29,63.19-81.77,0-148.73-28.28-154.47-64.12h-.57v57.7c26.74,27.94,85.94,47.36,154.66,47.36s127.92-19.42,154.67-47.36Z" transform="translate(-72.24 -63.09)"/>
      <path d="M735.8,474.27c-6.73,35.4-73.23,63.19-154.29,63.19-81.77,0-148.73-28.27-154.47-64.11h-.57v62.22a9.59,9.59,0,0,0,3.08,7.06c28,25.71,85.39,35.78,151.58,35.78s123.55-10.07,151.59-35.78a9.59,9.59,0,0,0,3.08-7.06Z" transform="translate(-72.24 -63.09)"/>
    </g>
    <ellipse cx="581.658" cy="405.05" rx="29.398" ry="14.433" style="fill: rgb(30, 95, 235);" transform="matrix(0.9999999999999999, 0, 0, 0.9999999999999999, 161.7478061622576, -30.079466503555835)"/>
    <path d="M 611.567 410.209 C 610.266 417.735 597.414 423.643 581.749 423.643 C 565.946 423.643 553.006 417.631 551.896 410.014 L 551.786 410.014 L 551.786 422.278 C 556.954 428.218 568.395 432.348 581.675 432.348 C 594.956 432.348 606.397 428.218 611.567 422.278 Z" style="fill: rgb(30, 95, 235);" transform="matrix(0.9999999999999999, 0, 0, 0.9999999999999999, 161.7478061622576, -30.079466503555835)"/>
    <path d="M 611.567 425.133 C 610.266 432.656 597.414 438.567 581.749 438.567 C 565.946 438.567 553.006 432.554 551.896 424.935 L 551.786 424.935 L 551.786 437.202 C 556.954 443.141 568.395 447.27 581.675 447.27 C 594.956 447.27 606.397 443.141 611.567 437.202 Z" style="fill: rgb(30, 95, 235);" transform="matrix(0.9999999999999999, 0, 0, 0.9999999999999999, 161.7478061622576, -30.079466503555835)"/>
    <path d="M 611.567 441.547 C 610.266 449.072 597.414 454.98 581.749 454.98 C 565.946 454.98 553.006 448.97 551.896 441.352 L 551.786 441.352 L 551.786 454.578 C 551.785 455.148 552.001 455.692 552.381 456.08 C 557.793 461.545 568.884 463.686 581.675 463.686 C 594.467 463.686 605.552 461.545 610.971 456.08 C 611.352 455.692 611.567 455.148 611.567 454.578 Z" style="fill: rgb(30, 95, 235);" transform="matrix(0.9999999999999999, 0, 0, 0.9999999999999999, 161.7478061622576, -30.079466503555835)"/>
    <circle cx="31.29" cy="21.63" r="21.63" fill="#6c63ff" opacity="0.1" transform="matrix(0.19325800240039825, 0, 0, 0.21258702874183652, 639.8999769401536, 404.76432132221413)" style="stroke-width: 1.80478; vector-effect: non-scaling-stroke;"/>
    <circle cx="961.29" cy="83.63" r="21.63" fill="#6c63ff" opacity="0.1" transform="matrix(0.19325800240039825, 0, 0, 0.21258702874183652, 580.0078247919671, 294.59116224905944)" style="stroke-width: 1.80478; vector-effect: non-scaling-stroke;"/>
    <circle cx="16" cy="106.18" r="16" fill="#6c63ff" opacity="0.1" transform="matrix(0.19325800240039825, 0, 0, 0.21258702874183652, 639.8999769401536, 404.76432132221413)" style="stroke-width: 1.80478; vector-effect: non-scaling-stroke;"/>
    <circle cx="178" cy="16.18" r="16" fill="#6c63ff" opacity="0.1" transform="matrix(0.19325800240039825, 0, 0, 0.21258702874183652, 639.8999769401536, 404.76432132221413)" style="stroke-width: 1.80478; vector-effect: non-scaling-stroke;"/>
    <circle cx="834" cy="18.18" r="16" fill="#6c63ff" opacity="0.1" transform="matrix(0.19325800240039825, 0, 0, 0.21258702874183652, 580.0078247919671, 294.59116224905944)" style="stroke-width: 1.80478; vector-effect: non-scaling-stroke;"/>
    <path d="M 544.485 381.766 C 541.361 381.766 539.408 385.486 540.97 388.463 C 542.532 391.439 546.438 391.439 548 388.463 C 548.356 387.784 548.543 387.014 548.543 386.23 C 548.543 383.765 546.726 381.766 544.485 381.766 Z M 544.485 382.631 C 547.014 382.631 548.595 385.643 547.33 388.052 C 546.066 390.462 542.904 390.462 541.64 388.052 C 541.351 387.503 541.2 386.88 541.2 386.245 C 541.2 384.249 542.671 382.631 544.485 382.631 M 546.783 384.98 L 546.414 384.57 C 546.338 384.483 546.211 384.483 546.135 384.57 L 543.816 387.098 L 542.839 386.005 C 542.763 385.918 542.636 385.918 542.56 386.005 L 542.189 386.411 C 542.11 386.495 542.11 386.634 542.189 386.717 L 543.677 388.367 C 543.753 388.454 543.88 388.454 543.956 388.367 L 546.783 385.28 C 546.862 385.197 546.862 385.058 546.783 384.974 Z" fill="#3acc6c" opacity="0.7" style="stroke-width: 1.80478; vector-effect: non-scaling-stroke;" transform="matrix(0.9999999999999999, 0, 0, 0.9999999999999999, 161.7478061622576, -30.079466503555835)"/>
    <path d="M 499.557 404.368 C 496.513 405.146 495.377 409.256 497.51 411.766 C 499.644 414.276 503.448 413.304 504.358 410.016 C 504.564 409.271 504.589 408.478 504.43 407.719 C 503.928 405.311 501.744 403.809 499.557 404.368 Z M 499.734 405.219 C 502.197 404.586 504.359 407.124 503.625 409.786 C 502.891 412.449 499.813 413.239 498.083 411.209 C 497.686 410.742 497.408 410.167 497.278 409.543 C 496.875 407.603 497.973 405.671 499.734 405.219 M 502.453 406.941 L 502.009 406.626 C 501.918 406.561 501.795 406.591 501.738 406.694 L 499.999 409.73 L 498.822 408.911 C 498.731 408.846 498.608 408.877 498.552 408.979 L 498.271 409.468 C 498.212 409.569 498.24 409.704 498.333 409.766 L 500.119 411.005 C 500.211 411.072 500.335 411.041 500.391 410.937 L 502.517 407.232 C 502.577 407.132 502.55 406.997 502.457 406.934 Z" fill="#3acc6c" opacity="0.7" style="stroke-width: 1.80478; vector-effect: non-scaling-stroke;" transform="matrix(0.9999999999999999, 0, 0, 0.9999999999999999, 161.7478061622576, -30.079466503555835)"/>
    <path d="M 603.635 382.412 C 600.511 382.412 598.559 386.133 600.121 389.109 C 601.683 392.085 605.588 392.085 607.15 389.109 C 607.506 388.43 607.694 387.66 607.694 386.877 C 607.694 384.411 605.877 382.412 603.635 382.412 Z M 603.635 383.278 C 606.165 383.278 607.745 386.289 606.481 388.699 C 605.216 391.108 602.055 391.108 600.79 388.699 C 600.502 388.149 600.35 387.526 600.35 386.892 C 600.35 384.896 601.821 383.278 603.635 383.278 M 605.933 385.627 L 605.564 385.216 C 605.488 385.13 605.362 385.13 605.286 385.216 L 602.967 387.744 L 601.987 386.658 C 601.911 386.571 601.785 386.571 601.709 386.658 L 601.34 387.068 C 601.261 387.152 601.261 387.29 601.34 387.374 L 602.828 389.024 C 602.904 389.111 603.03 389.111 603.106 389.024 L 605.933 385.937 C 606.012 385.853 606.012 385.715 605.933 385.631 Z" fill="#3acc6c" opacity="0.7" style="stroke-width: 1.80478; vector-effect: non-scaling-stroke;" transform="matrix(0.9999999999999999, 0, 0, 0.9999999999999999, 161.7478061622576, -30.079466503555835)"/>
    <path d="M 650.197 404.46 C 647.082 404.194 644.874 407.737 646.222 410.837 C 647.57 413.937 651.463 414.27 653.23 411.435 C 653.632 410.791 653.873 410.041 653.929 409.262 C 654.105 406.802 652.434 404.651 650.197 404.46 Z M 650.135 405.321 C 652.657 405.529 654.028 408.663 652.603 410.961 C 651.178 413.259 648.026 412.999 646.929 410.492 C 646.676 409.915 646.568 409.275 646.614 408.637 C 646.753 406.651 648.33 405.166 650.135 405.321 M 652.261 407.859 L 651.921 407.419 C 651.852 407.326 651.727 407.315 651.644 407.393 L 649.157 409.717 L 648.257 408.55 C 648.187 408.456 648.061 408.444 647.978 408.524 L 647.578 408.899 C 647.495 408.975 647.485 409.113 647.557 409.203 L 648.923 410.973 C 648.993 411.066 649.118 411.078 649.2 410.999 L 652.238 408.163 C 652.322 408.087 652.333 407.949 652.261 407.859 Z" fill="#3acc6c" opacity="0.7" style="stroke-width: 1.80478; vector-effect: non-scaling-stroke;" transform="matrix(0.9999999999999999, 0, 0, 0.9999999999999999, 161.7478061622576, -30.079466503555835)"/>
    <rect x="19.1" y="15.822" width="72.973" height="29.51" transform="matrix(0.977035105228424, -0.21307903528213498, 0.32552400231361384, 0.9525121450424194, 654.298719921084, 202.81645632460783)" fill="#f5f5f5" style=""/>
    <rect x="18.7" y="15.784" width="73.893" height="30.232" transform="matrix(0.977035105228424, -0.21307903528213498, 0.32552400231361384, 0.9525121450424194, 654.1953873993627, 202.84038210636493)" fill="url(#d3725588-c4fd-46f1-8fb5-ebcc261083dd)" style=""/>
    <rect x="19.577" y="18.747" width="72.973" height="26.512" transform="matrix(0.977035105228424, -0.21307903528213498, 0.32552400231361384, 0.9525121450424194, 653.8504166889269, 202.96773196257942)" fill="#fff" style=""/>
    <circle cx="186.41" cy="322.7" r="9.64" transform="matrix(0.09275700151920317, -0.020068002864718434, 0.025122003629803658, 0.07409802079200743, 654.6881242262115, 194.57457382572085)" fill="#ff5252" style=""/>
    <circle cx="214.31" cy="315.08" r="9.64" transform="matrix(0.09321100264787673, -0.020328000187873837, 0.025448003783822056, 0.07446101307868956, 654.9770036268649, 195.12105210878667)" fill="#ff0" style=""/>
    <circle cx="242.22" cy="307.46" r="9.64" transform="matrix(0.09321100264787673, -0.020328000187873837, 0.025448003783822056, 0.07446101307868956, 655.2659440626757, 195.66753039185238)" fill="#69f0ae" style=""/>
    <rect x="20.519" y="24.514" width="19.214" height="26.548" transform="matrix(0.977035105228424, -0.21307903528213498, 0.32552400231361384, 0.9525121450424194, 651.0406632114116, 197.64268912511773)" style="fill: rgb(30, 95, 235);"/>
    <path d="M 534.403 251.46 C 533.689 249.367 530.874 248.158 528.117 248.758 C 525.36 249.359 523.706 251.546 524.418 253.639 C 524.979 255.281 526.833 256.379 528.939 256.485 L 528.605 255.508 C 528.364 254.803 528.928 254.059 529.862 253.857 L 529.862 253.857 C 530.791 253.654 531.75 254.065 531.987 254.772 L 532.321 255.748 C 534.065 254.801 534.965 253.099 534.403 251.46 Z" fill="url(#da1505d0-619f-48d6-a73e-4cfaad838d3f)" style="" transform="matrix(0.9999999999999999, 0, 0, 0.9999999999999999, 161.7478061622576, -30.079466503555835)"/>
    <rect x="301.2" y="430.82" width="6.44" height="21.58" rx="2.86" ry="2.86" transform="matrix(0.09321100264787673, -0.020328000187873837, 0.02544700354337692, 0.07446101307868956, 652.0648331549917, 197.297687897103)" fill="url(#5d761051-c348-43d0-93b7-379d4f184fd5)" style=""/>
    <ellipse cx="297.22" cy="415.12" rx="20.59" ry="19.56" transform="matrix(0.09321100264787673, -0.020328000187873837, 0.02544700354337692, 0.07446101307868956, 652.7141251609394, 197.0792430682548)" fill="url(#70351dd3-b09b-481d-a2da-53703193d5a7)" style="stroke-width: 0.0181222; vector-effect: non-scaling-stroke;"/>
    <path d="M303.66,438.81h0c-9.62,2.63-15.45,12.26-13,21.4l3.45,12.65a56.43,56.43,0,0,0,35-9.55l-3.45-12.65C323.2,441.52,313.28,436.19,303.66,438.81Z" transform="matrix(0.09662199765443802, 0, 0, 0.07718600332736968, 662.2642962617714, 189.90639135374232)" fill="url(#f5e2603e-b2ae-400c-9f3a-64890d48fe6d)" style="stroke-width: 0.0190617; vector-effect: non-scaling-stroke;"/>
    <path d="M276.91,419.54a18.18,18.18,0,0,1-4.71-8.91,12.92,12.92,0,0,1,2.05-9.81c2.25-3.13,6-5,9.66-6.35s7.6-2.2,11.14-3.91a24.69,24.69,0,0,0,12.5-13.91,29.89,29.89,0,0,1,2.18,8.33,10.56,10.56,0,0,1-2.65,8.1c2.65-2.15,3.18,1,3,3.09,2,1.31,5.67.6,6.46,2.77a13.8,13.8,0,0,1,1,6.76c-.35,2.29,1.61,5.64-.68,6.43" transform="matrix(0.09662199765443802, 0, 0, 0.07718600332736968, 662.2642962617714, 189.90639135374232)" fill="url(#ab4a4443-1c70-44d3-aff5-44a51c26d915)" style="stroke-width: 0.0190617; vector-effect: non-scaling-stroke;"/>
    <path d="M346.11,401.25A50.89,50.89,0,1,0,293,465.4l-3.45-12.65a17.28,17.28,0,0,1,12.08-21.16h0a17.28,17.28,0,0,1,21.16,12.08l3.45,12.65A50.9,50.9,0,0,0,346.11,401.25Z" transform="matrix(0.09662199765443802, 0, 0, 0.07718600332736968, 662.2642962617714, 189.90639135374232)" fill="#6c63ff" style="stroke-width: 0.0190617; vector-effect: non-scaling-stroke;"/>
    <rect x="299.35" y="423.6" width="6.12" height="21.58" rx="2.86" ry="2.86" transform="matrix(0.09321100264787673, -0.020328000187873837, 0.02544700354337692, 0.07446101307868956, 652.2416520063952, 197.23747671418636)" fill="#fff" stroke="#fff" stroke-miterlimit="10" style="stroke-width: 0.0181222; vector-effect: non-scaling-stroke;"/>
    <circle cx="295.21" cy="407.9" r="19.56" transform="matrix(0.09321100264787673, -0.020328000187873837, 0.02544700354337692, 0.07446101307868956, 652.8909440123429, 197.01906240291692)" fill="#fff" stroke="#fff" stroke-miterlimit="10" style="stroke-width: 0.0181222; vector-effect: non-scaling-stroke;"/>
    <path d="M301.64,431.59h0a17.28,17.28,0,0,0-12.08,21.16L293,465.4a51.08,51.08,0,0,0,33.24-9.08l-3.45-12.65A17.28,17.28,0,0,0,301.64,431.59Z" transform="matrix(0.09662199765443802, 0, 0, 0.07718600332736968, 662.2642962617714, 189.90639135374232)" fill="#fff" stroke="#fff" stroke-miterlimit="10" style="stroke-width: 0.0190617; vector-effect: non-scaling-stroke;"/>
    <path d="M275.89,412a19,19,0,0,1-4.6-8.94,13.16,13.16,0,0,1,1.83-9.75c2.11-3.09,5.61-4.94,9.13-6.21s7.22-2.09,10.57-3.76a23.39,23.39,0,0,0,11.74-13.71,31.45,31.45,0,0,1,2.19,8.33,10.61,10.61,0,0,1-2.43,8c2.5-2.11,3,1.08,2.93,3.12,1.89,1.33,5.42.67,6.2,2.84a14.47,14.47,0,0,1,1.07,6.75c-.31,2.28,1.61,5.64-.57,6.4" transform="matrix(0.09662199765443802, 0, 0, 0.07718600332736968, 662.2642962617714, 189.90639135374232)" fill="#fff" stroke="#fff" stroke-miterlimit="10" style="stroke-width: 0.0190617; vector-effect: non-scaling-stroke;"/>
    <path d="M305.24,385.31s13.48-2.45,9.44,19.65" transform="matrix(0.09662199765443802, 0, 0, 0.07718600332736968, 662.2642962617714, 189.90639135374232)" fill="#fff" style="stroke-width: 0.0190617; vector-effect: non-scaling-stroke;"/>
    <rect x="236.86" y="480.53" width="201.4" height="169.26" transform="matrix(0.09321100264787673, -0.020328000187873837, 0.02544700354337692, 0.07446101307868956, 649.0337661962237, 198.30803337749938)" opacity="0.1" style="stroke-width: 0.0181222; vector-effect: non-scaling-stroke;"/>
    <rect x="264.45" y="521.88" width="98.56" height="9.64" transform="matrix(0.09321100264787673, -0.020328000187873837, 0.02544700354337692, 0.07446101307868956, 649.9313492230584, 197.7191051423622)" fill="#fff" style="stroke-width: 0.0181222; vector-effect: non-scaling-stroke;"/>
    <rect x="269.96" y="540.48" width="122.13" height="9.64" transform="matrix(0.09321100264787673, -0.020328000187873837, 0.02544700354337692, 0.07446101307868956, 649.5168594681805, 198.12126579541632)" fill="#fff" style="stroke-width: 0.0181222; vector-effect: non-scaling-stroke;"/>
    <rect x="413.68" y="283.64" width="145.69" height="71.78" transform="matrix(0.09321100264787673, -0.020328000187873837, 0.02544700354337692, 0.07446101307868956, 655.7924943668037, 200.66682859350442)" fill="#f5f5f5" style="stroke-width: 0.0181222; vector-effect: non-scaling-stroke;"/>
    <rect x="432.02" y="350.81" width="145.69" height="71.78" transform="matrix(0.09321100264787673, -0.020328000187873837, 0.02544700354337692, 0.07446101307868956, 654.1460709920676, 201.2225842205168)" fill="#e0e0e0" style="stroke-width: 0.0181222; vector-effect: non-scaling-stroke;"/>
    <rect x="747.49" y="192.51" width="145.69" height="71.78" transform="matrix(0.09321100264787673, -0.020328000187873837, 0.02544700354337692, 0.07446101307868956, 659.2506243229034, 207.20445690588292)" fill="#f5f5f5" style="stroke-width: 0.0181222; vector-effect: non-scaling-stroke;"/>
    <rect x="765.83" y="259.68" width="145.69" height="71.78" transform="matrix(0.09321100264787673, -0.020328000187873837, 0.02544700354337692, 0.07446101307868956, 657.6032243856466, 207.7601820153165)" fill="#e0e0e0" style="stroke-width: 0.0181222; vector-effect: non-scaling-stroke;"/>
    <rect x="580.07" y="238.21" width="145.69" height="71.78" transform="matrix(0.09321100264787673, -0.020328000187873837, 0.02544700354337692, 0.07446101307868956, 657.5162492861472, 203.92558720748838)" fill="#f5f5f5" style="stroke-width: 0.0181222; vector-effect: non-scaling-stroke;"/>
    <rect x="598.4" y="305.39" width="145.69" height="71.78" transform="matrix(0.09321100264787673, -0.020328000187873837, 0.02544700354337692, 0.07446101307868956, 655.8698259114111, 204.48137335207952)" fill="#e0e0e0" style="stroke-width: 0.0181222; vector-effect: non-scaling-stroke;"/>
    <rect x="456.56" y="440.72" width="145.69" height="71.78" transform="matrix(0.09275700151920317, -0.020068002864718434, 0.02512100338935852, 0.07409802079200743, 651.9420914531715, 201.96663330855085)" fill="#e0e0e0" style="stroke-width: 0.0175536; vector-effect: non-scaling-stroke;"/>
    <rect x="474.9" y="507.9" width="145.69" height="71.78" transform="matrix(0.09321100264787673, -0.020328000187873837, 0.02544700354337692, 0.07446101307868956, 650.2946915159149, 202.52238893556319)" fill="#bdbdbd" style="stroke-width: 0.0181222; vector-effect: non-scaling-stroke;"/>
    <rect x="790.37" y="349.59" width="145.69" height="71.78" transform="matrix(0.09321100264787673, -0.020328000187873837, 0.02544700354337692, 0.07446101307868956, 655.3992448467509, 208.5042616209294)" fill="#f5f5f5" style="stroke-width: 0.0181222; vector-effect: non-scaling-stroke;"/>
    <rect x="808.71" y="416.77" width="145.69" height="71.78" transform="matrix(0.09321100264787673, -0.020328000187873837, 0.02544700354337692, 0.07446101307868956, 653.7528214720148, 209.06001724794174)" fill="#bdbdbd" style="stroke-width: 0.0181222; vector-effect: non-scaling-stroke;"/>
    <rect x="622.95" y="395.3" width="145.69" height="71.78" transform="matrix(0.09321100264787673, -0.020328000187873837, 0.02544700354337692, 0.07446101307868956, 653.6648698099947, 205.22542244011362)" fill="#f5f5f5" style="stroke-width: 0.0181222; vector-effect: non-scaling-stroke;"/>
    <rect x="641.29" y="462.47" width="145.69" height="71.78" transform="matrix(0.09321100264787673, -0.020328000187873837, 0.02544700354337692, 0.07446101307868956, 652.0184464352586, 205.78114754954726)" fill="#bdbdbd" style="stroke-width: 0.0181222; vector-effect: non-scaling-stroke;"/>
    <ellipse cx="446.09" cy="366.65" rx="16.07" ry="15" transform="matrix(0.09321100264787673, -0.020328000187873837, 0.02544700354337692, 0.07446101307868956, 654.4552751001829, 199.9737133444404)" fill="url(#527ca708-8ae8-4e8c-9e20-7508688a6ac8)" style="stroke-width: 0.0181222; vector-effect: non-scaling-stroke;"/>
    <circle cx="445.81" cy="365.62" r="13.93" transform="matrix(0.09275700151920317, -0.020068002864718434, 0.02512100338935852, 0.07409802079200743, 654.4804215850909, 199.9651989399631)" fill="#6c63ff" style="stroke-width: 0.0175536; vector-effect: non-scaling-stroke;"/>
    <ellipse cx="610.41" cy="321.79" rx="16.07" ry="15" transform="matrix(0.09321100264787673, -0.020328000187873837, 0.02544700354337692, 0.07446101307868956, 656.1577287495439, 203.19157840287022)" fill="url(#e3abb234-bd9a-4a29-b4d9-95543465e731)" style="stroke-width: 0.0181222; vector-effect: non-scaling-stroke;"/>
    <circle cx="610.13" cy="320.76" r="13.93" transform="matrix(0.09321100264787673, -0.020328000187873837, 0.02544700354337692, 0.07446101307868956, 656.1828752344518, 203.18309451597167)" fill="#6c63ff" style="stroke-width: 0.0181222; vector-effect: non-scaling-stroke;"/>
    <ellipse cx="779.9" cy="275.52" rx="16.07" ry="15" transform="matrix(0.09321100264787673, -0.020328000187873837, 0.02544700354337692, 0.07446101307868956, 657.9133440211253, 206.51054819977088)" fill="url(#b220ada1-bec5-4763-adaf-46a2a991a6ea)" style="stroke-width: 0.0181222; vector-effect: non-scaling-stroke;"/>
    <circle cx="779.62" cy="274.49" r="13.93" transform="matrix(0.09321100264787673, -0.020328000187873837, 0.02544700354337692, 0.07446101307868956, 657.9384905060332, 206.50206431287233)" fill="#6c63ff" style="stroke-width: 0.0181222; vector-effect: non-scaling-stroke;"/>
    <ellipse cx="489.26" cy="524.77" rx="16.07" ry="15" transform="matrix(0.09321100264787673, -0.020328000187873837, 0.02544700354337692, 0.07446101307868956, 650.5788101742799, 201.28200194638538)" fill="url(#e945889a-4c72-453f-ae2a-9cca0c2e387b)" style="stroke-width: 0.0181222; vector-effect: non-scaling-stroke;"/>
    <circle cx="488.97" cy="523.74" r="13.93" transform="matrix(0.09321100264787673, -0.020328000187873837, 0.02544700354337692, 0.07446101307868956, 650.6048721865511, 201.27351805948683)" fill="#2196f3" style="stroke-width: 0.0181222; vector-effect: non-scaling-stroke;"/>
    <ellipse cx="653.58" cy="479.91" rx="16.07" ry="15" transform="matrix(0.09321100264787673, -0.020328000187873837, 0.02544700354337692, 0.07446101307868956, 652.281263823641, 204.49986700481526)" fill="url(#48e64a96-e766-456a-a55d-dc778a4c4106)" style="stroke-width: 0.0181222; vector-effect: non-scaling-stroke;"/>
    <circle cx="653.29" cy="478.88" r="13.93" transform="matrix(0.09321100264787673, -0.020328000187873837, 0.02544700354337692, 0.07446101307868956, 652.3064103085488, 204.49138311791666)" fill="#2196f3" style="stroke-width: 0.0181222; vector-effect: non-scaling-stroke;"/>
    <ellipse cx="823.06" cy="433.64" rx="16.07" ry="15" transform="matrix(0.09321100264787673, -0.020328000187873837, 0.02544700354337692, 0.07446101307868956, 654.0368790952222, 207.8188673192946)" fill="url(#5c985564-a56b-468d-93e7-1bf457bee9db)" style="stroke-width: 0.0181222; vector-effect: non-scaling-stroke;"/>
    <circle cx="822.78" cy="432.61" r="13.93" transform="matrix(0.09321100264787673, -0.020328000187873837, 0.02544700354337692, 0.07446101307868956, 654.0620255801301, 207.81035291481732)" fill="#2196f3" style="stroke-width: 0.0181222; vector-effect: non-scaling-stroke;"/>
    <rect x="113.28" y="300.25" width="764.9" height="377.49" fill="#f5f5f5" transform="matrix(0.09662199765443802, 0, 0, 0.07718600332736968, 677.6030417040292, 198.1451610595946)" style="stroke-width: 0.0190617; vector-effect: non-scaling-stroke;"/>
    <rect x="107.96" y="299.78" width="774.54" height="386.73" fill="url(#6780986a-9034-4c28-8b6c-a48891ce2ded)" transform="matrix(0.09662199765443802, 0, 0, 0.07718600332736968, 677.6030417040292, 198.1451610595946)" style="stroke-width: 0.0190617; vector-effect: non-scaling-stroke;"/>
    <rect x="113.28" y="338.35" width="764.9" height="339.15" fill="#fff" transform="matrix(0.09662199765443802, 0, 0, 0.07718600332736968, 677.6030417040292, 198.1451610595946)" style="stroke-width: 0.0190617; vector-effect: non-scaling-stroke;"/>
    <circle cx="131.49" cy="318.61" r="9.64" fill="#ff5252" transform="matrix(0.09662199765443802, 0, 0, 0.07718600332736968, 677.6030417040292, 198.1451610595946)" style="stroke-width: 0.0190617; vector-effect: non-scaling-stroke;"/>
    <circle cx="160.41" cy="318.61" r="9.64" fill="#ff0" transform="matrix(0.09662199765443802, 0, 0, 0.07718600332736968, 677.6030417040292, 198.1451610595946)" style="stroke-width: 0.0190617; vector-effect: non-scaling-stroke;"/>
    <circle cx="189.34" cy="318.61" r="9.64" fill="#69f0ae" transform="matrix(0.09662199765443802, 0, 0, 0.07718600332736968, 677.6030417040292, 198.1451610595946)" style="stroke-width: 0.0190617; vector-effect: non-scaling-stroke;"/>
    <rect x="113.28" y="337.9" width="201.4" height="339.6" transform="matrix(0.09662199765443802, 0, 0, 0.07718600332736968, 677.6030417040292, 198.1451610595946)" style="stroke-width: 0.0190617; vector-effect: non-scaling-stroke; fill: rgb(30, 95, 235);"/>
    <path d="M426.33,550.7c0-28.1-24-50.89-53.56-50.89S319.2,522.59,319.2,550.7c0,22.06,14.77,40.83,35.43,47.89V585.48c0-9.48,8.16-17.23,18.14-17.23h0c10,0,18.14,7.75,18.14,17.23v13.11C411.56,591.53,426.33,572.75,426.33,550.7Z" transform="matrix(0.09662199765443802, 0, 0, 0.07718600332736968, 662.2642962617714, 189.90639135374232)" fill="url(#7d79de41-ff5b-423b-9456-aacc3d645f9d)" style="stroke-width: 0.0190617; vector-effect: non-scaling-stroke;"/>
    <rect x="210.79" y="453.62" width="6.44" height="21.58" rx="2.86" ry="2.86" fill="url(#19fb9e96-cad3-456a-87b2-74caa7f769f0)" transform="matrix(0.09662199765443802, 0, 0, 0.07718600332736968, 677.6030417040292, 198.1451610595946)" style="stroke-width: 0.0190617; vector-effect: non-scaling-stroke;"/>
    <ellipse cx="214.05" cy="436.96" rx="20.59" ry="19.56" fill="url(#b984d742-9cb1-45a0-b729-f1d2914abd3a)" transform="matrix(0.09662199765443802, 0, 0, 0.07718600332736968, 677.6030417040292, 198.1451610595946)" style="stroke-width: 0.0190617; vector-effect: non-scaling-stroke;"/>
    <path d="M372.77,568.25h0c-10,0-18.14,7.75-18.14,17.23v13.11a56.43,56.43,0,0,0,36.27,0V585.48C390.9,576,382.74,568.25,372.77,568.25Z" transform="matrix(0.09662199765443802, 0, 0, 0.07718600332736968, 662.2642962617714, 189.90639135374232)" fill="url(#6fa8e8f2-d7ff-4ce3-810a-2e6bc68d564d)" style="stroke-width: 0.0190617; vector-effect: non-scaling-stroke;"/>
    <path d="M352,542.61a18.18,18.18,0,0,1-2.2-9.84,12.92,12.92,0,0,1,4.56-8.92c3-2.43,7.07-3.29,11-3.59s7.91-.12,11.78-.84a24.69,24.69,0,0,0,15.72-10.13,29.89,29.89,0,0,1-.09,8.61,10.56,10.56,0,0,1-4.69,7.11c3.13-1.37,2.79,1.85,2.11,3.78,1.55,1.78,5.32,2.07,5.51,4.37a13.8,13.8,0,0,1-.79,6.8c-.95,2.12.07,5.86-2.35,6" transform="matrix(0.09662199765443802, 0, 0, 0.07718600332736968, 662.2642962617714, 189.90639135374232)" fill="url(#8fad6a4c-d66f-4e6f-b11b-537b5bb0a550)" style="stroke-width: 0.0190617; vector-effect: non-scaling-stroke;"/>
    <path d="M423.61,543.2a50.89,50.89,0,1,0-68.12,47.89V578a17.28,17.28,0,0,1,17.23-17.23h0A17.28,17.28,0,0,1,390,578v13.11A50.9,50.9,0,0,0,423.61,543.2Z" transform="matrix(0.09662199765443802, 0, 0, 0.07718600332736968, 662.2642962617714, 189.90639135374232)" style="stroke-width: 0.0190617; vector-effect: non-scaling-stroke; fill: rgb(30, 95, 235);"/>
    <rect x="210.92" y="446.12" width="6.12" height="21.58" rx="2.86" ry="2.86" fill="#fff" stroke="#fff" stroke-miterlimit="10" transform="matrix(0.09662199765443802, 0, 0, 0.07718600332736968, 677.6030417040292, 198.1451610595946)" style="stroke-width: 0.0190617; vector-effect: non-scaling-stroke;"/>
    <circle cx="214.01" cy="429.46" r="19.56" fill="#fff" stroke="#fff" stroke-miterlimit="10" transform="matrix(0.09662199765443802, 0, 0, 0.07718600332736968, 677.6030417040292, 198.1451610595946)" style="stroke-width: 0.0190617; vector-effect: non-scaling-stroke;"/>
    <path d="M372.73,560.75h0A17.28,17.28,0,0,0,355.5,578v13.11a51.08,51.08,0,0,0,34.46,0V578A17.28,17.28,0,0,0,372.73,560.75Z" transform="matrix(0.09662199765443802, 0, 0, 0.07718600332736968, 662.2642962617714, 189.90639135374232)" fill="#fff" stroke="#fff" stroke-miterlimit="10" style="stroke-width: 0.0190617; vector-effect: non-scaling-stroke;"/>
    <path d="M353,535.12a19,19,0,0,1-2.09-9.84,13.16,13.16,0,0,1,4.34-8.92c2.85-2.43,6.71-3.29,10.44-3.59s7.51-.12,11.19-.84a23.39,23.39,0,0,0,14.94-10.13,31.45,31.45,0,0,1-.08,8.61,10.61,10.61,0,0,1-4.46,7.11c3-1.37,2.65,1.85,2,3.78,1.47,1.78,5,2.07,5.23,4.37a14.47,14.47,0,0,1-.75,6.8c-.9,2.12.06,5.86-2.23,6" transform="matrix(0.09662199765443802, 0, 0, 0.07718600332736968, 662.2642962617714, 189.90639135374232)" fill="#fff" stroke="#fff" stroke-miterlimit="10" style="stroke-width: 0.0190617; vector-effect: non-scaling-stroke;"/>
    <path d="M388.39,517s13.65,1.19,3.93,21.45" transform="matrix(0.09662199765443802, 0, 0, 0.07718600332736968, 662.2642962617714, 189.90639135374232)" fill="#fff" style="stroke-width: 0.0190617; vector-effect: non-scaling-stroke;"/>
    <rect x="112.74" y="507.7" width="201.4" height="169.26" opacity="0.1" transform="matrix(0.09662199765443802, 0, 0, 0.07718600332736968, 677.6030417040292, 198.1451610595946)" style="stroke-width: 0.0190617; vector-effect: non-scaling-stroke; fill: rgb(30, 95, 235);"/>
    <rect x="151.31" y="544.12" width="98.56" height="9.64" fill="#fff" transform="matrix(0.09662199765443802, 0, 0, 0.07718600332736968, 677.6030417040292, 198.1451610595946)" style="stroke-width: 0.0190617; vector-effect: non-scaling-stroke;"/>
    <rect x="390.2" y="395.21" width="98.56" height="9.64" fill="#bdbdbd" transform="matrix(0.09662199765443802, 0, 0, 0.07718600332736968, 677.6030417040292, 198.1451610595946)" style="stroke-width: 0.0190617; vector-effect: non-scaling-stroke;"/>
    <rect x="390.2" y="453.06" width="352.45" height="9.64" fill="#e0e0e0" transform="matrix(0.09662199765443802, 0, 0, 0.07718600332736968, 677.6030417040292, 198.1451610595946)" style="stroke-width: 0.0190617; vector-effect: non-scaling-stroke;"/>
    <rect x="390.2" y="510.91" width="352.45" height="9.64" fill="#e0e0e0" style="stroke-width: 0.0190617; vector-effect: non-scaling-stroke;" transform="matrix(0.09662199765443802, 0, 0, 0.07718600332736968, 677.6030417040292, 198.1451610595946)"/>
    <rect x="390.2" y="568.76" width="98.56" height="9.64" fill="#64ffda" transform="matrix(0.09662199765443802, 0, 0, 0.07718600332736968, 677.6030417040292, 198.1451610595946)" style="stroke-width: 0.0190617; vector-effect: non-scaling-stroke;"/>
    <rect x="516.61" y="568.76" width="98.56" height="9.64" fill="#f5f5f5" transform="matrix(0.09662199765443802, 0, 0, 0.07718600332736968, 677.6030417040292, 198.1451610595946)" style="stroke-width: 0.0190617; vector-effect: non-scaling-stroke;"/>
    <rect x="644.1" y="568.76" width="98.56" height="9.64" fill="#64ffda" transform="matrix(0.09662199765443802, 0, 0, 0.07718600332736968, 677.6030417040292, 198.1451610595946)" style="stroke-width: 0.0190617; vector-effect: non-scaling-stroke;"/>
    <rect x="151.31" y="566.62" width="122.13" height="9.64" fill="#fff" transform="matrix(0.09662199765443802, 0, 0, 0.07718600332736968, 677.6030417040292, 198.1451610595946)" style="stroke-width: 0.0190617; vector-effect: non-scaling-stroke;"/>
    <path d="M 564.929 337.318 C 564.723 337.724 564.521 338.14 564.331 338.554 L 563.831 338.394 C 564.024 337.974 564.227 337.554 564.436 337.144 Z" fill="#e6e6e6" style="" transform="matrix(0.9999999999999999, 0, 0, 0.9999999999999999, 64.8076948548993, -18.446501169130528)"/>
    <path d="M 525.613 373.57 C 525.355 374.131 525.079 374.691 524.794 375.235 L 524.304 375.057 C 524.731 374.241 525.133 373.395 525.495 372.553 L 525.999 372.703 C 525.875 372.992 525.747 373.282 525.613 373.57 Z M 526.997 370.109 L 526.482 369.988 C 526.774 369.126 527.035 368.246 527.256 367.373 L 527.779 367.465 C 527.555 368.348 527.293 369.238 526.997 370.109 Z M 523.388 377.693 C 522.887 378.497 522.347 379.295 521.783 380.065 L 521.326 379.833 C 521.883 379.071 522.418 378.282 522.913 377.487 Z M 528.343 364.783 L 527.812 364.72 C 527.961 363.835 528.074 362.934 528.149 362.042 L 528.683 362.073 C 528.607 362.975 528.493 363.887 528.343 364.783 Z M 519.986 382.34 C 519.359 383.077 518.692 383.806 518.005 384.506 L 517.591 384.223 C 518.27 383.531 518.929 382.81 519.549 382.081 Z M 528.799 359.35 L 528.263 359.35 C 528.264 358.456 528.227 357.552 528.155 356.661 L 528.689 356.631 C 528.763 357.532 528.799 358.447 528.799 359.35 Z M 515.847 386.556 C 515.101 387.215 514.32 387.861 513.524 388.475 L 513.16 388.147 C 513.947 387.541 514.72 386.902 515.456 386.249 Z M 528.355 353.924 L 527.825 353.985 C 527.678 353.099 527.494 352.206 527.276 351.332 L 527.8 351.241 C 528.02 352.126 528.207 353.028 528.355 353.924 Z M 511.049 390.256 C 510.203 390.825 509.323 391.375 508.434 391.892 L 508.129 391.525 C 509.007 391.015 509.877 390.471 510.714 389.909 Z M 527.026 348.596 L 526.51 348.717 C 526.22 347.856 525.891 346.992 525.532 346.151 L 526.036 346 C 526.4 346.852 526.733 347.725 527.026 348.596 Z M 505.693 393.374 C 504.763 393.839 503.802 394.284 502.836 394.696 L 502.592 394.299 C 503.547 393.891 504.498 393.452 505.416 392.991 Z M 524.837 343.467 L 524.346 343.645 C 523.918 342.825 523.452 342.006 522.958 341.212 L 523.434 341.006 C 523.933 341.809 524.405 342.637 524.837 343.467 Z M 499.879 395.853 C 498.881 396.209 497.857 396.54 496.833 396.839 L 496.657 396.418 C 497.668 396.123 498.682 395.794 499.668 395.442 Z M 521.832 338.631 L 521.375 338.863 C 520.818 338.1 520.222 337.341 519.603 336.61 L 520.04 336.353 C 520.667 337.092 521.269 337.859 521.832 338.631 Z M 493.716 397.649 C 492.671 397.889 491.602 398.101 490.541 398.28 L 490.434 397.843 C 491.484 397.665 492.541 397.456 493.575 397.219 Z M 518.064 334.181 L 517.649 334.462 C 516.972 333.768 516.257 333.084 515.523 332.432 L 515.915 332.126 C 516.656 332.787 517.379 333.478 518.064 334.181 Z M 487.322 398.728 C 486.248 398.847 485.155 398.935 484.074 398.991 L 484.041 398.545 C 485.109 398.49 486.19 398.403 487.252 398.286 Z M 513.6 330.2 L 513.236 330.527 C 512.45 329.917 511.628 329.322 510.794 328.758 L 511.131 328.411 C 511.975 328.981 512.806 329.583 513.6 330.2 Z M 480.814 399.068 C 479.729 399.062 478.632 399.024 477.551 398.956 L 477.591 398.51 C 478.659 398.578 479.745 398.615 480.818 398.621 Z M 508.522 326.771 L 508.215 327.137 C 507.337 326.624 506.426 326.129 505.509 325.668 L 505.785 325.286 C 506.713 325.752 507.634 326.252 508.522 326.771 Z M 474.305 398.656 C 473.232 398.526 472.151 398.362 471.091 398.171 L 471.205 397.735 C 472.252 397.924 473.321 398.085 474.381 398.214 Z M 502.933 323.96 L 502.688 324.358 C 501.736 323.95 500.753 323.564 499.767 323.211 L 499.978 322.801 C 500.975 323.158 501.969 323.548 502.933 323.96 Z M 467.926 397.503 C 466.886 397.251 465.841 396.967 464.821 396.656 L 465.005 396.237 C 466.013 396.544 467.046 396.825 468.074 397.074 Z M 496.757 322.232 C 495.745 321.934 494.709 321.662 493.678 321.424 L 493.821 320.993 C 494.864 321.235 495.912 321.509 496.936 321.81 Z M 490.539 320.792 C 489.487 320.612 488.416 320.461 487.355 320.343 L 487.426 319.9 C 488.499 320.02 489.582 320.173 490.646 320.355 Z M 484.142 320.077 C 483.073 320.02 481.988 319.993 480.918 319.997 L 480.915 319.551 C 481.998 319.547 483.095 319.574 484.176 319.632 Z M 477.694 320.103 C 476.625 320.169 475.545 320.267 474.486 320.394 L 474.41 319.951 C 475.482 319.824 476.573 319.725 477.654 319.658 Z M 471.309 320.867 C 470.259 321.055 469.205 321.275 468.176 321.52 L 468.029 321.092 C 469.069 320.843 470.134 320.62 471.196 320.43 Z M 465.105 322.352 C 464.097 322.656 463.089 322.993 462.108 323.354 L 461.891 322.945 C 462.884 322.581 463.903 322.239 464.923 321.931 Z M 459.199 324.525 C 458.249 324.942 457.304 325.391 456.392 325.86 L 456.111 325.479 C 457.034 325.005 457.989 324.552 458.95 324.13 Z M 453.701 327.35 C 452.827 327.871 451.965 328.423 451.138 328.991 L 450.797 328.647 C 451.634 328.072 452.505 327.513 453.389 326.987 Z M 448.716 330.776 C 447.936 331.391 447.172 332.038 446.445 332.695 L 446.052 332.393 C 446.786 331.727 447.559 331.074 448.348 330.451 Z M 444.34 334.741 C 443.67 335.439 443.021 336.166 442.411 336.902 L 441.971 336.647 C 442.588 335.903 443.244 335.169 443.922 334.462 Z M 440.665 339.168 C 440.118 339.935 439.594 340.729 439.11 341.528 L 438.632 341.326 C 439.122 340.519 439.651 339.715 440.205 338.939 Z" fill="#e6e6e6" style="" transform="matrix(0.9999999999999999, 0, 0, 0.9999999999999999, 64.8076948548993, -18.446501169130528)"/>
    <path d="M 509.624 313.625 L 509.406 314.034 C 508.912 313.85 508.42 313.659 507.942 313.465 L 508.176 313.064 C 508.648 313.255 509.135 313.444 509.624 313.625 Z" fill="#e6e6e6" style="" transform="matrix(0.9999999999999999, 0, 0, 0.9999999999999999, 138.48334033718808, 58.414273546309346)"/>
    <rect x="445.565" y="354.65" width="128.076" height="68.145" style="fill: rgba(83, 176, 222, 0.37);" transform="matrix(0.9999999999999999, 0, 0, 0.9999999999999999, 64.8076948548993, -18.446501169130528)"/>
    <path d="M 519.484 369.856 C 522.228 370.862 524.73 372.273 526.87 374.024 L 529.018 372.232 C 526.501 370.167 523.535 368.523 520.277 367.386 Z" style="fill: rgb(30, 95, 235);" transform="matrix(0.9999999999999999, 0, 0, 0.9999999999999999, 64.8076948548993, -18.446501169130528)"/>
    <path d="M 486.09 382.455 C 487.113 379.794 488.776 377.335 490.975 375.228 L 488.822 373.432 C 486.251 375.859 484.321 378.709 483.157 381.799 Z" style="fill: rgb(30, 95, 235);" transform="matrix(0.9999999999999999, 0, 0, 0.9999999999999999, 64.8076948548993, -18.446501169130528)"/>
    <path d="M 531.643 374.712 L 529.474 376.522 C 531.149 378.413 532.422 380.53 533.238 382.782 L 536.167 382.126 C 535.211 379.446 533.678 376.934 531.643 374.712 Z" fill="#e6e6e6" style="" transform="matrix(0.9999999999999999, 0, 0, 0.9999999999999999, 64.8076948548993, -18.446501169130528)"/>
    <path d="M 491.647 371.118 L 493.803 372.916 C 496.338 371.148 499.273 369.822 502.434 369.019 L 501.649 366.575 C 497.974 367.494 494.567 369.041 491.647 371.118 Z" style="fill: rgb(30, 95, 235);" transform="matrix(0.9999999999999999, 0, 0, 0.9999999999999999, 64.8076948548993, -18.446501169130528)"/>
    <path d="M 484.919 388.722 C 484.919 387.701 485.01 386.681 485.19 385.672 L 482.248 385.014 C 481.638 388.169 481.813 391.394 482.762 394.49 L 485.69 393.835 C 485.176 392.164 484.917 390.446 484.919 388.722 Z" style="fill: rgb(30, 95, 235);" transform="matrix(0.9999999999999999, 0, 0, 0.9999999999999999, 64.8076948548993, -18.446501169130528)"/>
    <path d="M 515.686 408.678 C 513.697 409.099 511.654 409.312 509.603 409.311 C 508.843 409.311 508.091 409.28 507.349 409.224 L 506.555 411.696 C 509.875 412.001 513.233 411.806 516.47 411.12 Z" fill="#e6e6e6" style="" transform="matrix(0.9999999999999999, 0, 0, 0.9999999999999999, 64.8076948548993, -18.446501169130528)"/>
    <path d="M 486.985 396.964 L 484.024 397.626 C 485.451 400.47 487.545 403.048 490.182 405.208 L 492.331 403.416 C 490.072 401.569 488.258 399.379 486.985 396.964 Z" style="fill: rgb(30, 95, 235);" transform="matrix(0.9999999999999999, 0, 0, 0.9999999999999999, 64.8076948548993, -18.446501169130528)"/>
    <path d="M 537.02 385.355 L 534.073 386.013 C 534.426 388.238 534.341 390.495 533.823 392.696 L 536.757 393.352 C 537.397 390.719 537.486 388.013 537.02 385.355 Z" fill="#e6e6e6" style="" transform="matrix(0.9999999999999999, 0, 0, 0.9999999999999999, 64.8076948548993, -18.446501169130528)"/>
    <path d="M 503.432 408.66 C 500.544 408.036 497.816 406.979 495.382 405.541 L 493.206 407.356 C 496.039 409.095 499.243 410.366 502.647 411.102 Z" fill="#e6e6e6" style="" transform="matrix(0.9999999999999999, 0, 0, 0.9999999999999999, 64.8076948548993, -18.446501169130528)"/>
    <path d="M 528.301 405.78 L 526.151 403.986 C 524.163 405.487 521.896 406.709 519.439 407.604 L 520.232 410.073 C 523.2 409.043 525.93 407.59 528.301 405.78 Z" fill="#e6e6e6" style="" transform="matrix(0.9999999999999999, 0, 0, 0.9999999999999999, 64.8076948548993, -18.446501169130528)"/>
    <path d="M 532.749 395.875 C 531.829 397.938 530.518 399.864 528.866 401.581 L 531.027 403.383 C 533.04 401.339 534.618 399.022 535.69 396.532 Z" fill="#e6e6e6" style="" transform="matrix(0.9999999999999999, 0, 0, 0.9999999999999999, 64.8076948548993, -18.446501169130528)"/>
    <rect x="448.359" y="358.518" width="13.507" height="4.467" fill="#e6e6e6" style="" transform="matrix(0.9999999999999999, 0, 0, 0.9999999999999999, 64.8076948548993, -18.446501169130528)"/>
    <rect x="448.359" y="365.316" width="13.507" height="4.467" style="fill: rgb(30, 95, 235);" transform="matrix(0.9999999999999999, 0, 0, 0.9999999999999999, 64.8076948548993, -18.446501169130528)"/>
    <path d="M 530.088 313.673 C 530.088 313.673 531.609 317.842 530.74 319.111 C 529.871 320.38 532.26 323.099 536.172 321.83 C 540.083 320.561 540.301 319.111 540.301 319.111 C 540.301 319.111 538.78 317.117 538.345 312.948 Z" fill="#ffb9b9" style="" transform="matrix(0.9999999999999999, 0, 0, 0.9999999999999999, 64.8076948548993, -18.446501169130528)"/>
    <path d="M 510.205 354.546 C 510.205 354.546 502.382 357.809 505.858 362.159 C 507.88 364.688 511.736 369.605 514.611 373.279 C 517.017 376.354 518.863 379.71 520.087 383.238 L 520.635 384.816 L 522.808 386.991 L 527.371 382.641 C 527.371 382.641 520.635 372.309 520.635 370.316 C 520.635 368.322 515.202 361.978 515.202 361.978 L 520.635 359.078 C 520.635 359.078 514.55 353.278 510.205 354.546 Z" style="" fill="#ffb9b9" transform="matrix(0.9999999999999999, 0, 0, 0.9999999999999999, 64.8076948548993, -18.446501169130528)"/>
    <path d="M 535.629 365.784 C 535.629 365.784 535.846 370.859 536.064 372.853 C 536.243 374.498 534.499 379.104 535.104 384.227 C 535.473 387.543 535.428 390.881 534.972 394.188 L 534.108 400.767 L 540.627 401.31 L 542.8 386.447 C 542.8 386.447 544.104 375.934 543.452 372.491 L 543.669 365.241 C 543.669 365.241 538.889 363.79 535.629 365.784 Z" fill="#ffb9b9" style="" transform="matrix(0.9999999999999999, 0, 0, 0.9999999999999999, 64.8076948548993, -18.446501169130528)"/>
    <path d="M 524.003 344.668 C 524.003 344.668 508.792 352.824 508.575 355.362 C 508.575 355.362 517.267 354.637 517.484 360.981 C 517.484 360.981 522.699 359.349 524.003 358.987 C 525.307 358.625 532.261 354.818 532.261 354.818 C 532.261 354.818 535.086 356.63 535.086 359.531 C 535.086 362.431 534.868 367.506 535.086 367.869 C 535.303 368.231 540.301 362.975 544.43 367.506 L 547.255 355 C 547.255 355 548.123 347.386 546.385 346.843 L 534.216 343.036 Z" fill="#2f2e41" style="" transform="matrix(0.9999999999999999, 0, 0, 0.9999999999999999, 64.8076948548993, -18.446501169130528)"/>
    <circle cx="424.49935" cy="39.40543" r="27.99488" fill="#ffb9b9" transform="matrix(0.2328660488128662, 0, 0, 0.19423797726631162, 499.19507893869707, 284.40091545106867)" style=""/>
    <path d="M 531.609 320.017 C 531.609 320.017 538.962 321.637 539.958 318.562 C 539.958 318.562 548.993 320.017 550.514 324.911 C 552.035 329.805 546.82 341.587 546.82 341.949 C 546.82 342.311 551.166 344.487 549.211 345.574 C 547.255 346.661 545.516 345.393 546.385 346.843 C 547.255 348.293 548.775 348.655 547.472 349.018 C 546.168 349.381 538.345 343.761 532.26 345.211 C 526.176 346.661 523.134 345.574 523.134 345.574 L 520.406 325.906 C 520.19 324.375 520.918 322.857 522.342 321.874 C 523.704 320.939 525.511 319.928 527.263 319.655 C 530.74 319.111 530.884 318.813 530.884 318.813 Z" fill="#d0cde1" style="" transform="matrix(0.9999999999999999, 0, 0, 0.9999999999999999, 64.8076948548993, -18.446501169130528)"/>
    <path d="M 524.655 351.737 C 524.655 351.737 526.611 360.981 529.219 359.712 C 531.826 358.443 528.567 351.737 528.567 351.737 Z" fill="#ffb9b9" style="" transform="matrix(0.9999999999999999, 0, 0, 0.9999999999999999, 64.8076948548993, -18.446501169130528)"/>
    <path d="M 533.733 352.933 C 533.733 352.933 530.344 361.884 533.36 361.764 C 536.375 361.645 537.201 354.441 537.201 354.441 Z" fill="#ffb9b9" style="" transform="matrix(0.9999999999999999, 0, 0, 0.9999999999999999, 64.8076948548993, -18.446501169130528)"/>
    <path d="M 521.722 384.453 C 521.722 384.453 520.201 383.004 519.331 384.997 C 518.462 386.991 516.072 389.528 516.072 389.528 C 516.072 389.528 510.857 394.423 514.55 394.604 C 518.245 394.785 523.46 390.253 523.46 390.253 L 529.545 385.541 C 529.545 385.541 527.528 381.444 526.58 381.408 C 525.633 381.372 525.85 386.266 521.722 384.453 Z" fill="#2f2e41" style="" transform="matrix(0.9999999999999999, 0, 0, 0.9999999999999999, 64.8076948548993, -18.446501169130528)"/>
    <path d="M 535.846 399.498 C 535.846 399.498 534.315 399.87 534.429 398.325 C 534.429 398.325 528.893 400.767 530.414 402.579 C 531.935 404.391 533.673 406.204 533.673 406.204 C 533.673 406.204 541.713 410.011 542.365 409.104 C 543.017 408.198 543.017 406.385 542.582 405.66 C 542.148 404.935 539.975 403.666 540.627 402.579 C 541.279 401.491 540.409 398.591 539.323 398.591 C 538.237 398.591 535.846 399.498 535.846 399.498 Z" fill="#2f2e41" style="" transform="matrix(0.9999999999999999, 0, 0, 0.9999999999999999, 64.8076948548993, -18.446501169130528)"/>
    <path d="M 527.549 305.893 C 527.549 305.893 529.646 302.104 533.666 302.979 C 537.685 303.853 539.958 305.165 540.132 306.476 C 540.307 307.789 540.045 309.757 540.045 309.757 C 540.045 309.757 539.608 307.059 536.812 307.643 C 534.016 308.226 529.646 307.789 529.646 307.789 L 528.948 313.036 C 528.948 313.036 528.161 312.089 527.288 312.672 C 526.414 313.255 524.754 307.059 527.549 305.893 Z" fill="#2f2e41" style="" transform="matrix(0.9999999999999999, 0, 0, 0.9999999999999999, 64.8076948548993, -18.446501169130528)"/>
    <path d="M 546.82 324.73 C 546.82 324.73 541.604 336.512 542.039 337.962 C 542.474 339.411 542.039 339.593 541.387 339.955 C 540.735 340.318 538.997 344.124 538.997 344.124 C 538.997 344.124 537.911 346.299 537.041 346.843 C 536.172 347.386 536.172 348.837 536.172 348.837 C 536.172 348.837 533.999 350.649 534.434 351.012 C 534.868 351.375 534.868 351.918 533.999 352.462 C 533.13 353.006 532.26 353.731 532.695 353.912 C 533.13 354.093 536.172 356.087 537.041 355.906 C 537.911 355.725 536.607 355 537.693 354.637 C 538.78 354.275 539.431 353.731 538.997 353.549 C 538.563 353.368 537.259 353.368 538.563 353.006 C 539.867 352.643 544.43 350.287 545.951 347.386 C 547.472 344.487 554.76 326.941 550.356 324.476 C 550.356 324.476 548.559 322.555 546.82 324.73 Z" fill="#d0cde1" style="" transform="matrix(0.9999999999999999, 0, 0, 0.9999999999999999, 64.8076948548993, -18.446501169130528)"/>
    <path d="M 522.699 322.736 L 522.611 322.766 C 520.945 323.346 519.728 324.574 519.36 326.049 C 518.886 327.943 518.419 330.683 518.788 333.249 C 519.44 337.781 519.875 339.774 520.744 341.224 C 521.613 342.674 521.83 342.13 521.613 343.218 C 521.396 344.305 520.309 343.399 521.396 344.849 C 522.482 346.299 523.134 345.936 522.699 346.661 C 522.265 347.386 521.613 347.386 522.482 348.293 C 523.351 349.199 523.351 349.562 523.569 349.924 C 523.786 350.287 524.438 353.006 524.438 353.006 C 524.438 353.006 527.915 352.1 529.871 352.462 C 529.871 352.462 528.132 349.924 528.567 349.381 C 529.001 348.837 529.653 348.655 529.001 348.112 C 528.349 347.568 527.263 347.749 528.349 347.205 C 529.436 346.661 527.48 341.043 527.48 341.043 Z" fill="#d0cde1" style="" transform="matrix(0.9999999999999999, 0, 0, 0.9999999999999999, 64.8076948548993, -18.446501169130528)"/>
    <polygon points="502.242 289.43 501.903 289.163 527.454 266.546 548.252 266.546 548.252 266.935 527.655 266.935 502.242 289.43" fill="#3f3d56" style="" transform="matrix(0.9999999999999999, 0, 0, 0.9999999999999999, 138.48334033718808, 58.414273546309346)"/>
    <rect x="534.107" y="269.517" width="24.546" height="0.694" style="fill: rgb(30, 95, 235);" transform="matrix(0.9999999999999999, 0, 0, 0.9999999999999999, 138.48334033718808, 58.414273546309346)"/>
    <rect x="534.107" y="272.466" width="24.546" height="0.694" style="fill: rgb(30, 95, 235);" transform="matrix(0.9999999999999999, 0, 0, 0.9999999999999999, 138.48334033718808, 58.414273546309346)"/>
    <rect x="534.107" y="275.416" width="24.546" height="0.694" style="fill: rgb(30, 95, 235);" transform="matrix(0.9999999999999999, 0, 0, 0.9999999999999999, 138.48334033718808, 58.414273546309346)"/>
    <rect x="531.545" y="326.04" width="24.546" height="0.694" style="fill: rgb(30, 95, 235);" transform="matrix(0.9999999999999999, 0, 0, 0.9999999999999999, 138.48334033718808, 58.414273546309346)"/>
    <rect x="531.545" y="328.989" width="24.546" height="0.694" style="fill: rgb(30, 95, 235);" transform="matrix(0.9999999999999999, 0, 0, 0.9999999999999999, 138.48334033718808, 58.414273546309346)"/>
    <rect x="531.545" y="331.94" width="24.546" height="0.694" style="fill: rgb(30, 95, 235);" transform="matrix(0.9999999999999999, 0, 0, 0.9999999999999999, 138.48334033718808, 58.414273546309346)"/>
    <polygon points="545.612 322.558 521.039 322.558 520.97 322.474 501.874 299.359 502.258 299.139 521.283 322.169 545.612 322.169 545.612 322.558" fill="#3f3d56" style="" transform="matrix(0.9999999999999999, 0, 0, 0.9999999999999999, 138.48334033718808, 58.414273546309346)"/>
    <g opacity="0.9" transform="matrix(0.13327300548553467, 0, 0, 0.10984200239181516, 767.2789469248219, 136.2681608468829)" style="">
      <rect x="708.33" y="248.78" width="8.86" height="73.02" rx="2.29" ry="2.29" fill="#3a3768"/>
      <rect x="413.89" y="191.58" width="4.97" height="24.04" rx="2.29" ry="2.29" fill="#3a3768"/>
      <rect x="413.71" y="235.59" width="5.6" height="41.84" rx="2.29" ry="2.29" fill="#3a3768"/>
      <rect x="413.8" y="292.07" width="5.33" height="42.2" rx="2.29" ry="2.29" fill="#3a3768"/>
      <rect x="416.71" y="112.14" width="296.4" height="602.39" rx="38.99" ry="38.99" fill="#3a3768"/>
      <rect x="536.31" y="130.12" width="41.39" height="8.4" rx="3.87" ry="3.87" fill="#e6e8ec"/>
      <circle cx="588.73" cy="134.33" r="4.77" fill="#e6e8ec"/>
    </g>
    <path d="M 791.928 168.755 L 787.41 168.755 L 787.41 169.204 C 787.41 170.38 786.253 171.333 784.827 171.333 L 770.409 171.333 C 768.983 171.333 767.827 170.38 767.827 169.204 L 767.827 168.755 L 763.583 168.755 C 761.851 168.755 760.447 169.912 760.448 171.341 L 760.448 228.889 C 760.447 230.318 761.851 231.475 763.583 231.475 L 791.928 231.475 C 793.661 231.475 795.066 230.318 795.066 228.889 L 795.066 171.341 C 795.066 169.912 793.661 168.755 791.928 168.755 Z" style="fill: rgb(191, 224, 240);" transform="matrix(0.9999999999999999, 0, 0, 0.9999999999999999, 64.8076948548993, -18.446501169130528)"/>
    <rect x="763.726" y="175.945" width="10.399" height="8.571" fill="#fff" style="" transform="matrix(0.9999999999999999, 0, 0, 0.9999999999999999, 64.8076948548993, -18.446501169130528)"/>
    <path d="M 770.944 178.745 L 770.575 179.048 C 771.085 179.468 771.085 180.148 770.575 180.567 L 770.944 180.872 C 771.657 180.285 771.657 179.332 770.944 178.745 Z" fill="#6c63ff" style="" transform="matrix(0.9999999999999999, 0, 0, 0.9999999999999999, 64.8076948548993, -18.446501169130528)"/>
    <path d="M 771.682 178.159 L 771.319 178.459 C 772.222 179.204 772.222 180.411 771.319 181.157 L 771.682 181.456 C 772.786 180.547 772.786 179.071 771.682 178.162 Z M 769.95 179.282 L 769.95 177.909 L 769.437 177.909 L 767.901 178.964 L 765.855 178.964 L 765.343 179.174 L 765.343 180.652 L 765.855 180.863 L 767.139 182.551 L 767.906 182.551 L 767.427 180.863 L 767.906 180.863 L 769.442 181.707 L 769.955 181.707 L 769.955 180.334 C 770.447 180.243 770.634 179.748 770.293 179.442 C 770.202 179.362 770.085 179.306 769.955 179.282 Z" style="fill: rgb(30, 95, 235);" transform="matrix(0.9999999999999999, 0, 0, 0.9999999999999999, 64.8076948548993, -18.446501169130528)"/>
    <rect x="780.201" y="186.273" width="10.399" height="8.571" fill="#fff" style="" transform="matrix(0.9999999999999999, 0, 0, 0.9999999999999999, 64.8076948548993, -18.446501169130528)"/>
    <path d="M 787.375 189.532 L 785.98 191.29 C 786.092 191.402 786.154 191.544 786.154 191.69 C 786.128 192.177 785.473 192.46 784.973 192.198 C 784.761 192.087 784.627 191.897 784.616 191.69 C 784.617 191.651 784.621 191.611 784.63 191.572 L 783.708 191.133 C 783.463 191.326 783.093 191.364 782.797 191.227 L 781.816 191.984 L 781.816 192.739 C 781.817 193.05 782.123 193.302 782.5 193.302 L 788.303 193.302 C 788.68 193.301 788.986 193.05 788.986 192.739 L 788.986 189.936 L 788.053 189.423 C 787.92 189.51 787.754 189.557 787.583 189.557 C 787.515 189.557 787.447 189.548 787.381 189.533 Z" style="fill: rgb(99, 187, 255);" transform="matrix(0.9999999999999999, 0, 0, 0.9999999999999999, 64.8076948548993, -18.446501169130528)"/>
    <path d="M 783.176 190.044 C 783.6 190.043 783.945 190.327 783.945 190.677 C 783.945 190.704 783.945 190.733 783.938 190.76 L 784.901 191.199 C 785.038 191.105 785.21 191.055 785.387 191.056 C 785.443 191.056 785.498 191.061 785.552 191.071 L 786.952 189.285 C 786.61 188.887 786.919 188.335 787.507 188.29 C 787.957 188.255 788.344 188.546 788.346 188.918 C 788.345 188.968 788.338 189.019 788.324 189.068 L 788.991 189.431 L 788.991 188.375 C 788.989 188.064 788.683 187.813 788.307 187.812 L 782.5 187.812 C 782.123 187.812 781.817 188.064 781.816 188.375 L 781.816 191.4 L 782.456 190.895 C 782.425 190.824 782.409 190.75 782.409 190.675 C 782.409 190.326 782.753 190.044 783.176 190.044 Z" style="fill: rgb(30, 95, 235);" transform="matrix(0.9999999999999999, 0, 0, 0.9999999999999999, 64.8076948548993, -18.446501169130528)"/>
    <rect x="767.055" y="195.829" width="10.399" height="8.571" fill="#fff" style="" transform="matrix(0.9999999999999999, 0, 0, 0.9999999999999999, 64.8076948548993, -18.446501169130528)"/>
  </g>
</svg>