<?xml version="1.0" encoding="utf-8"?>
<svg viewBox="0 0 1040 1040" xmlns="http://www.w3.org/2000/svg">
  <circle style="fill: rgb(227, 255, 252);" cx="131.242" cy="173.958" r="102.085" transform="matrix(1.794326, 0, 0, 1.803937, 308.34753, 1.527652)"/>
  <circle style="fill: rgb(227, 255, 252);" cx="131.242" cy="173.958" r="102.085" transform="matrix(1.847159, -0.001799, 0.001212, 1.482349, 476.498589, 247.961209)"/>
  <ellipse style="fill: rgb(216, 216, 216);" cx="441.413" cy="973.96" rx="214.404" ry="16.171"/>
  <ellipse style="fill: rgb(216, 216, 216);" cx="774.838" cy="746.99" rx="120.672" ry="23.717"/>
  <ellipse style="fill: rgb(195, 229, 239);" cx="548.582" cy="837.292" rx="428.81" ry="32.338"/>
  <polygon points="565.886 413.669 570.245 430.009 576.161 423.926 573.048 411.009 565.886 413.669" fill="#ffb9b9" style=""/>
  <path d="M 509.831 344.127 L 511.391 369.585 L 549.067 370.725 L 565.577 416.706 L 574.606 412.147 C 574.606 412.147 564.329 368.828 559.659 355.147 C 554.987 341.467 537.236 351.346 537.236 351.346 L 535.68 347.546 Z" style="fill: rgb(131, 131, 131);"/>
  <path d="M 568.377 426.967 C 568.377 426.967 568.998 439.13 569.932 439.889 C 570.867 440.646 578.03 439.13 578.03 439.13 C 578.03 439.13 580.181 439.714 588.928 436.849 C 598.763 433.629 587.682 428.869 587.682 428.869 C 587.682 428.869 580.521 423.167 577.407 420.509 C 574.292 417.844 572.112 423.548 572.112 423.548 C 572.735 425.828 568.377 426.967 568.377 426.967 Z" fill="#2f2e41" style=""/>
  <path d="M 802.435 627.128 L 803.429 669.468 L 814.004 719.067 C 814.004 719.067 811.688 727.537 813.342 729.552 C 814.994 731.569 822.592 735.197 822.592 735.197 L 816.317 629.548 Z" fill="#2f2e41" style=""/>
  <path d="M 825.392 729.344 C 825.392 729.344 829.165 739.466 823.884 740.386 C 818.605 741.311 794.221 743.763 795.732 738.548 C 797.239 733.332 815.587 728.423 815.587 728.423 Z" fill="#2f2e41" style=""/>
  <path d="M 839.444 589.628 C 839.444 589.628 835.477 615.836 832.836 620.277 C 830.191 624.71 834.161 656.967 834.161 656.967 C 834.161 656.967 840.105 703.339 837.462 710.6 C 834.822 717.857 835.477 715.437 835.81 719.472 C 836.139 723.502 836.802 726.727 835.81 730.355 C 834.822 733.988 834.822 733.584 834.486 735.6 C 834.161 737.617 834.486 748.504 834.486 748.504 C 834.486 748.504 820.282 754.552 817.965 745.678 C 817.965 745.678 821.272 740.036 820.282 735.6 C 819.247 731.138 818.691 726.528 818.627 721.888 L 818.627 713.418 L 803.429 644.064 L 799.792 619.062 C 799.792 619.062 800.781 593.659 804.418 591.241 C 808.053 588.821 839.444 589.628 839.444 589.628 Z" fill="#2f2e41" style=""/>
  <path d="M 823.168 730.703 C 823.168 730.703 828.765 746.282 820.927 747.697 C 813.086 749.115 776.875 752.89 779.116 744.865 C 781.356 736.843 808.606 729.291 808.606 729.291 Z" fill="#2f2e41" style=""/>
  <circle cx="899.829" cy="297.97" r="26.991" fill="#ffb9b9" transform="matrix(0.489696, 0, 0, 0.597586, 386.57342, 279.317654)" style=""/>
  <path d="M 836.506 464.512 L 836.256 485.109 L 820.054 485.176 C 820.054 485.176 824.165 469.051 822.324 465.678 C 820.48 462.31 836.506 464.512 836.506 464.512 Z" fill="#ffb9b9" style=""/>
  <path d="M 812.348 496.482 C 812.348 496.482 823.914 478.336 832.836 485.999 C 841.754 493.658 845.063 511.805 845.063 511.805 L 843.08 562.612 C 843.08 562.612 838.123 569.872 841.097 574.706 C 844.069 579.547 845.723 578.339 843.412 581.967 C 841.097 585.594 838.452 588.419 839.444 589.628 C 840.436 590.838 838.452 591.644 838.452 591.644 L 803.429 592.852 C 803.429 592.852 804.418 591.241 801.442 586.402 C 798.473 581.566 802.105 575.111 801.442 572.692 C 800.781 570.275 800.123 573.095 799.792 567.448 C 799.464 561.807 812.348 496.482 812.348 496.482 Z" style="fill: rgb(99, 208, 255);"/>
  <path d="M 815.654 600.513 C 815.654 600.513 814.994 610.595 810.035 612.208 C 808.178 612.811 806.783 611.661 805.766 609.982 C 803.825 606.693 803.724 602.292 805.508 598.871 L 806.733 596.483 Z" fill="#ffb9b9" style=""/>
  <path d="M 846.22 476.116 C 846.22 476.116 846.55 484.181 846.22 485.391 C 845.885 486.599 845.557 487.812 846.22 489.022 C 846.879 490.229 846.55 494.262 845.885 494.665 C 845.225 495.069 847.211 498.7 846.55 501.118 C 845.885 503.535 845.225 504.344 844.898 505.15 C 844.568 505.956 844.033 507.402 844.033 507.402 C 844.033 507.402 834.321 482.166 826.391 488.213 C 818.462 494.262 812.183 496.279 812.183 496.279 C 812.183 496.279 816.479 468.053 846.22 476.116 Z" style="fill: rgb(99, 208, 255);"/>
  <path d="M 831.846 494.867 C 831.846 494.867 842.42 496.079 841.754 513.013 C 841.097 529.951 842.748 556.565 842.748 556.565 C 842.748 556.565 824.575 590.433 821.6 592.852 C 818.627 595.275 818.296 594.874 818.627 596.888 C 818.957 598.901 819.288 600.513 817.965 602.126 C 817.189 603.085 816.297 603.899 815.319 604.546 C 815.319 604.546 804.751 600.112 805.743 596.08 C 806.733 592.045 811.358 585.594 811.358 585.594 C 811.358 585.594 819.288 569.872 819.621 567.448 C 819.949 565.031 819.949 565.437 820.939 564.224 C 821.934 563.015 824.575 558.176 824.575 555.754 L 824.575 548.095 L 821.802 507.151 C 821.552 503.778 822.49 500.432 824.385 497.961 C 825.957 495.952 828.333 494.356 831.846 494.867 Z" style="fill: rgb(99, 208, 255);"/>
  <path d="M 818.691 444.945 C 816.941 445.535 815.066 445.012 813.701 443.551 C 812.41 442.055 811.976 439.456 812.893 437.595 C 813.687 435.987 815.229 435.2 816.7 434.64 C 819.939 433.408 823.315 432.778 826.705 432.776 C 828.323 432.776 830.013 432.946 831.398 433.965 C 832.084 434.472 832.664 435.163 833.341 435.687 C 834.587 436.646 836.082 436.963 837.449 437.628 C 840.279 439.029 842.468 441.864 843.457 445.391 C 843.768 446.572 843.965 447.795 844.04 449.037 C 844.263 452.43 843.77 455.839 842.612 458.936 C 840.766 463.841 837.259 467.969 836.764 473.33 C 834.873 471.396 834.319 468.148 832.859 465.728 C 831.768 463.937 830.211 462.648 828.446 462.074 C 827.951 461.994 827.488 461.739 827.11 461.343 C 826.853 460.916 826.712 460.406 826.69 459.876 L 825.783 451.908 C 825.601 450.286 825.353 448.515 824.333 447.45 C 823.691 446.869 822.95 446.477 822.166 446.305 C 820.309 445.74 818.419 445.363 816.514 445.177" fill="#2f2e41" style=""/>
  <path d="M 841.142 562.323 L 822.592 591.697 C 822.592 591.697 839.672 574.274 841.142 562.323 Z" opacity="0.1" style="isolation: isolate;"/>
  <polygon points="823.337 529.798 823.51 557.544 812.739 577.262 821.554 555.153 823.337 529.798" opacity="0.1" style="isolation: isolate;"/>
  <path d="M 725.446 365.71 L 613.095 365.71 L 613.095 362.881 L 562.151 362.881 L 562.151 365.71 L 449.335 365.71 C 445.135 365.71 441.734 369.86 441.734 374.983 L 441.734 562.724 C 441.734 567.846 445.135 571.998 449.335 571.998 L 725.446 571.998 C 729.643 571.998 733.048 567.846 733.048 562.724 L 733.048 374.983 C 733.048 369.86 729.643 365.71 725.446 365.71 Z" fill="#3f3d56" style=""/>
  <rect x="451.921" y="382.1" width="270.933" height="186.507" opacity="0.1" style="isolation: isolate;"/>
  <circle cx="378.813" cy="410.36" r="5.675" fill="#6c63ff" transform="matrix(0.489696, 0, 0, 0.597586, 401.65719, 128.393919)" style=""/>
  <rect x="452.376" y="382.008" width="269.223" height="186.436" fill="#e6e6e6" style=""/>
  <rect x="460.077" y="394.748" width="253.825" height="161.949" fill="#fff" style=""/>
  <rect x="483.138" y="411.551" width="65.222" height="128.341" fill="#e6e6e6" style=""/>
  <rect x="559.62" y="411.551" width="54.35" height="35.325" style="fill: rgb(99, 208, 255);"/>
  <rect x="559.62" y="456.714" width="54.35" height="38.009" fill="#e6e6e6" style=""/>
  <rect x="559.62" y="504.563" width="54.35" height="35.325" fill="#e6e6e6" style=""/>
  <rect x="625.617" y="411.551" width="65.222" height="55.931" fill="#e6e6e6" style=""/>
  <rect x="625.617" y="483.963" width="65.222" height="55.931" style="fill: rgb(99, 208, 255);"/>
  <path d="M 740.656 565.214 L 714.21 565.214 L 714.21 562.89 C 714.21 562.636 714.042 562.43 713.834 562.43 L 704.766 562.43 C 704.558 562.43 704.391 562.636 704.391 562.89 L 704.391 562.89 L 704.391 565.214 L 698.725 565.214 L 698.725 562.89 C 698.725 562.636 698.556 562.43 698.346 562.43 L 689.281 562.43 C 689.072 562.43 688.904 562.636 688.904 562.89 L 688.904 562.89 L 688.904 565.214 L 683.238 565.214 L 683.238 562.89 C 683.238 562.636 683.068 562.43 682.859 562.43 L 673.793 562.43 C 673.585 562.43 673.416 562.636 673.416 562.89 L 673.416 562.89 L 673.416 565.214 L 667.751 565.214 L 667.751 562.89 C 667.751 562.636 667.582 562.43 667.373 562.43 L 658.306 562.43 C 658.099 562.43 657.928 562.636 657.928 562.89 L 657.928 562.89 L 657.928 565.214 L 652.261 565.214 L 652.261 562.89 C 652.261 562.636 652.092 562.43 651.885 562.43 L 642.821 562.43 C 642.612 562.43 642.442 562.636 642.442 562.89 L 642.442 562.89 L 642.442 565.214 L 636.774 565.214 L 636.774 562.89 C 636.774 562.636 636.607 562.43 636.397 562.43 L 627.337 562.43 C 627.123 562.43 626.955 562.636 626.955 562.89 L 626.955 562.89 L 626.955 565.214 L 621.289 565.214 L 621.289 562.89 C 621.289 562.636 621.119 562.43 620.914 562.43 L 549.897 562.43 C 549.687 562.43 549.519 562.636 549.519 562.89 L 549.519 562.89 L 549.519 565.214 L 543.853 565.214 L 543.853 562.89 C 543.853 562.636 543.686 562.43 543.476 562.43 L 534.41 562.43 C 534.202 562.43 534.032 562.636 534.032 562.89 L 534.032 565.214 L 528.365 565.214 L 528.365 562.89 C 528.365 562.636 528.196 562.43 527.989 562.43 L 518.923 562.43 C 518.714 562.43 518.547 562.636 518.547 562.89 L 518.547 562.89 L 518.547 565.214 L 512.88 565.214 L 512.88 562.89 C 512.88 562.636 512.71 562.43 512.501 562.43 L 503.438 562.43 C 503.228 562.43 503.06 562.636 503.06 562.89 L 503.06 562.89 L 503.06 565.214 L 497.39 565.214 L 497.39 562.89 C 497.39 562.636 497.222 562.43 497.014 562.43 L 487.948 562.43 C 487.739 562.43 487.57 562.636 487.57 562.89 L 487.57 562.89 L 487.57 565.214 L 481.905 565.214 L 481.905 562.89 C 481.905 562.636 481.736 562.43 481.528 562.43 L 472.461 562.43 C 472.254 562.43 472.084 562.636 472.084 562.89 L 472.084 562.89 L 472.084 565.214 L 466.416 565.214 L 466.416 562.89 C 466.416 562.636 466.25 562.43 466.041 562.43 L 456.973 562.43 C 456.766 562.43 456.596 562.636 456.596 562.89 L 456.596 562.89 L 456.596 565.214 L 439.219 565.214 C 434.214 565.214 430.153 570.168 430.153 576.281 L 430.153 581.281 C 430.153 587.394 434.214 592.344 439.219 592.344 L 740.656 592.344 C 745.659 592.344 749.717 587.394 749.717 581.281 L 749.717 576.281 C 749.717 570.168 745.659 565.214 740.656 565.214 Z" fill="#3f3d56" style=""/>
  <path d="M 497.902 242.022 C 496.254 244.713 495.251 247.914 495.019 251.262 C 494.682 255.334 493.703 261.855 490.856 265.285 C 486.522 270.507 485.078 274.42 485.078 274.42 L 486.522 276.378 C 486.522 272.462 488.451 271.809 488.451 271.809 L 487.966 276.378 C 500.975 291.387 529.879 277.682 529.879 277.682 L 528.914 265.937 C 531.324 267.243 532.289 276.378 532.289 276.378 L 536.142 275.073 C 536.142 275.073 529.399 260.716 525.063 247.665 C 520.723 234.612 513.98 237.876 513.98 237.876 C 506.031 232.689 500.783 237.499 497.902 242.022 Z" fill="#2f2e41" style=""/>
  <path d="M 543.154 248.744 L 547.826 211.504 C 547.826 211.504 542.841 196.686 551.249 195.164 C 559.659 193.643 554.053 213.025 554.053 213.025 L 551.249 248.744 Z" fill="#ffb9b9" style=""/>
  <path d="M 539.417 423.926 C 540.971 426.967 541.285 442.548 541.285 442.548 L 552.18 434.189 L 549.067 420.509 Z" fill="#ffb9b9" style=""/>
  <path d="M 524.158 342.225 C 524.158 342.225 510.458 342.225 502.982 347.546 C 500.578 349.258 499.882 352.339 500.045 355.741 C 500.464 364.616 506.406 371.627 513.677 372.173 L 534.745 373.767 C 531.631 384.406 538.79 425.828 538.79 425.828 L 550.007 423.926 C 550.007 423.926 548.446 409.865 548.76 409.11 C 549.067 408.348 551.872 378.706 550.007 363.127 C 548.134 347.546 522.6 354.008 522.6 354.008 Z" style="fill: rgb(131, 131, 131);"/>
  <path d="M 540.663 439.13 C 540.663 439.13 539.726 450.149 540.039 451.669 C 540.351 453.189 553.117 453.947 564.639 449.769 C 576.161 445.588 563.081 441.029 563.081 441.029 C 563.081 441.029 555.298 434.568 553.117 432.288 C 550.939 430.009 547.826 435.329 547.826 435.329 C 547.2 438.748 540.663 439.13 540.663 439.13 Z" fill="#2f2e41" style=""/>
  <circle cx="323.286" cy="212.671" r="22.892" transform="matrix(0.078439, -0.589872, 0.483372, 0.095722, 382.300776, 432.000879)" fill="#ffb9b9" style=""/>
  <path d="M 505.785 271.923 C 509.831 279.149 504.848 283.323 504.848 283.323 L 502.671 303.087 C 502.671 303.087 526.026 305.746 530.076 301.946 C 534.122 298.143 525.403 285.607 522.29 284.465 C 519.175 283.323 518.553 267.746 518.553 267.746 Z" fill="#ffb9b9" style=""/>
  <path d="M 506.394 281.302 L 494.106 278.955 L 492.707 295.105 C 492.707 295.105 493.333 331.207 492.707 337.664 C 492.083 344.127 503.295 351.346 503.295 351.346 C 503.295 351.346 519.485 349.828 522.6 347.926 C 525.716 346.029 535.68 349.828 535.68 349.828 C 536.79 349.903 537.9 349.708 538.95 349.258 C 540.818 348.499 534.122 294.346 534.122 294.346 L 528.206 277.624 L 521.045 281.045 L 518.865 293.587 Z" style="fill: rgb(2, 71, 231);"/>
  <polygon points="532.877 293.964 545.331 274.584 554.052 248.366 541.906 242.666 536.925 264.329 528.204 277.245 527.894 279.525 532.877 293.964" style="fill: rgb(2, 71, 231);"/>
  <path d="M 493.629 323.468 L 524.478 324.885 C 524.478 324.885 535.975 317.153 538.17 327.175 C 540.366 337.192 523.951 332.609 523.951 332.609 L 494.552 333.284 Z" fill="#ffb9b9" style=""/>
  <path d="M 496.286 320.757 L 510.613 321.895 L 512.48 333.676 C 512.48 333.676 495.042 333.296 488.193 332.913 C 481.342 332.537 488.193 297.197 489.126 286.556 C 490.058 275.915 494.732 278.955 494.732 278.955 L 497.532 281.617 Z" style="fill: rgb(2, 71, 231);"/>
  <polygon points="498.78 316.955 511.237 323.036 497.534 319.616 496.596 297.956 498.78 316.955" opacity="0.15" style="isolation: isolate;"/>
  <polygon points="522.295 257.108 501.73 257.708 499.277 245.159 522.295 245.159 522.295 257.108" fill="#2f2e41" style=""/>
  <path d="M 717.955 614.628 L 704.951 643.237 L 666.085 662.876 C 661.934 670.676 648.748 671.271 647.789 666.229 C 646.71 660.572 663.801 651.465 663.801 651.465 L 696.31 627.024 L 699.155 605.983 Z" fill="#a0616a" style=""/>
  <polygon points="716.419 806.607 718.815 827.926 704.908 828.992 703.474 806.607 716.419 806.607" fill="#a0616a" style=""/>
  <path d="M 714.5 824.729 C 715.743 823.266 716.89 821.708 717.932 820.062 C 719.926 817.001 721.693 832.724 721.693 832.724 C 721.693 832.724 723.611 839.12 723.132 842.317 C 722.653 845.516 711.623 845.516 709.707 844.982 C 707.788 844.449 698.2 844.982 698.2 844.982 L 683.816 844.982 C 671.349 838.584 683.816 834.324 683.816 834.324 C 687.654 833.79 700.597 820.465 700.597 820.465 L 703.474 814.6 C 705.391 814.067 707.307 822.064 707.307 822.064 Z" fill="#2f2e41" style=""/>
  <polygon points="752.377 806.874 754.771 828.192 740.868 829.257 739.432 806.874 752.377 806.874" fill="#a0616a" style=""/>
  <path d="M 750.458 824.994 C 751.703 823.532 752.848 821.974 753.89 820.328 C 755.883 817.268 757.65 832.991 757.65 832.991 C 757.65 832.991 759.569 838.855 759.086 842.048 C 758.613 845.25 747.582 845.25 745.666 844.716 C 743.749 844.183 734.16 845.25 734.16 845.25 L 719.774 845.25 C 707.307 838.855 719.774 834.589 719.774 834.589 C 723.611 834.055 736.555 820.729 736.555 820.729 L 739.432 814.866 C 741.351 814.334 743.267 822.332 743.267 822.332 Z" fill="#2f2e41" style=""/>
  <path d="M 736.555 669.362 C 738.473 672.028 737.515 681.088 737.515 681.088 C 737.515 681.088 740.868 710.406 739.432 713.067 C 737.993 715.736 740.389 717.865 741.829 721.598 C 743.267 725.326 744.707 734.388 744.707 734.388 C 752.858 741.852 752.377 775.961 752.377 775.961 L 755.254 806.34 C 754.295 809.538 740.868 810.072 738.952 809.538 C 737.035 809.005 731.283 761.037 731.283 761.037 L 718.336 733.855 C 718.336 733.855 719.297 806.34 719.297 809.538 C 719.297 812.735 706.349 811.138 703.474 811.138 C 700.597 811.138 700.597 757.839 700.597 757.839 L 697.718 743.982 L 682.38 680.556 L 682.38 673.095 L 684.774 669.362 C 684.774 669.362 734.638 666.699 736.555 669.362 Z" fill="#2f2e41" style=""/>
  <circle cx="745.97819" cy="50.87672" r="24.85646" fill="#a0616a" transform="matrix(0.597948, 0, 0, 0.664717, 269.403866, 498.035149)" style=""/>
  <path d="M 708.028 539.585 C 711.041 547.041 709.258 557.458 703.232 568.899 L 727.686 556.106 L 723.85 552.375 L 724.807 541.715 Z" fill="#a0616a" style=""/>
  <path d="M 708.028 556.64 C 704.829 558.753 702.911 562.643 701.812 566.6 C 699.775 573.927 698.55 581.498 698.161 589.154 L 697.002 612.067 L 682.618 672.83 C 695.08 684.555 702.271 681.889 719.056 672.298 C 735.836 662.702 737.752 675.494 737.752 675.494 C 737.752 675.494 739.19 674.959 737.752 673.361 C 736.315 671.761 737.752 673.361 739.19 671.761 C 740.63 670.164 739.19 671.761 738.715 670.164 C 738.235 668.564 738.715 669.63 739.19 669.095 C 739.671 668.564 737.274 663.768 737.274 663.768 L 741.11 623.794 L 745.902 567.299 C 740.153 559.305 723.85 552.375 723.85 552.375 L 708.986 564.1 C 704.194 566.23 708.028 557.703 708.028 557.703 Z" style="fill: rgb(2, 71, 231);"/>
  <path d="M 753.815 601.142 L 755.732 633.119 L 731.283 672.028 C 731.283 681.088 726.966 683.222 726.966 683.222 C 725.331 680.32 723.889 677.295 722.653 674.161 C 720.255 668.299 724.088 663.502 724.088 663.502 L 740.868 624.06 L 733.679 604.342 Z" fill="#a0616a" style=""/>
  <path d="M 745.666 567.567 C 753.815 570.76 755.254 605.404 755.254 605.404 C 745.666 599.543 734.16 609.139 734.16 609.139 C 734.16 609.139 731.759 600.076 728.881 588.353 C 727.118 581.648 728.567 574.408 732.72 569.163 C 732.72 569.163 737.515 564.365 745.666 567.567 Z" style="fill: rgb(2, 71, 231);"/>
  <path d="M 729.124 536.919 C 727.231 535.238 724.651 538.295 724.651 538.295 L 723.137 523.15 C 723.137 523.15 713.677 524.412 707.621 522.727 C 701.566 521.044 700.621 528.827 700.621 528.827 C 700.308 525.686 700.245 522.517 700.43 519.363 C 700.81 515.577 705.729 511.793 714.432 509.268 C 723.137 506.743 727.677 517.68 727.677 517.68 C 733.734 521.044 731.016 538.597 729.124 536.919 Z" fill="#2f2e41" style=""/>
  <path d="M 293.563 759.309 C 295.196 766.522 309.129 782.735 323.508 797.967 C 301.337 737.088 313.971 670.46 313.971 670.46 C 309.854 696.63 366.274 828.31 366.274 828.31 L 353.425 836.733 L 349.083 843.525 C 305.567 821.304 293.563 759.309 293.563 759.309 Z" fill="#e6e6e6" style=""/>
  <rect x="486.751" y="624.313" width="181.759" height="39.892" fill="#e6e6e6" style=""/>
  <rect x="486.751" y="561.279" width="181.759" height="39.892" fill="#e6e6e6" style=""/>
  <rect x="486.751" width="181.759" height="39.892" fill="#e6e6e6" style="" y="498.038"/>
  <path d="M 490.624 533.619 L 664.633 533.619 L 664.633 502.344 L 490.624 502.344 Z" fill="#fff" style=""/>
  <path d="M 490.624 597.004 L 664.633 597.004 L 664.633 565.723 L 490.624 565.723 Z" fill="#fff" style=""/>
  <path d="M 490.624 659.899 L 664.633 659.899 L 664.633 628.621 L 490.624 628.621 Z" fill="#fff" style=""/>
  <circle cx="395.44331" cy="29.61767" r="17.92647" transform="matrix(0.597948, 0, 0, 0.664717, 269.403866, 498.035149)" style="fill: rgb(2, 71, 231);"/>
  <rect x="531.491" y="513.061" width="105.793" height="2.592" style="fill: rgb(2, 71, 231);"/>
  <rect x="531.491" y="519.795" width="105.793" height="2.592" style="fill: rgb(2, 71, 231);"/>
  <circle cx="395.44331" cy="125.53922" r="17.92647" fill="#ccc" transform="matrix(0.597948, 0, 0, 0.664717, 269.403866, 498.035149)" style=""/>
  <rect x="531.491" y="576.822" width="105.793" height="2.592" fill="#ccc" style=""/>
  <rect x="531.491" y="583.557" width="105.793" height="2.592" fill="#ccc" style=""/>
  <circle cx="395.44331" cy="220.36924" r="17.92648" fill="#ccc" transform="matrix(0.597948, 0, 0, 0.664717, 269.403866, 498.035149)" style=""/>
  <rect x="531.491" y="639.856" width="105.793" height="2.592" fill="#ccc" style=""/>
  <rect x="531.491" y="646.589" width="105.793" height="2.592" fill="#ccc" style=""/>
  <path d="M 352.745 613.108 C 352.745 613.108 350.239 630.621 360.621 629.028 C 360.621 629.028 401.794 618.682 403.942 621.072 C 406.092 623.459 419.444 624.27 418.747 614.203 C 418.048 604.103 404.657 609.925 404.657 609.925 C 404.657 609.925 383.895 613.108 379.594 610.722 C 375.3 608.332 363.126 609.131 363.126 609.131 Z" fill="#a0616a" style=""/>
  <path d="M 384.163 670.215 L 378.455 730.431 C 378.455 730.431 376.665 754.311 371.297 759.485 C 371.297 759.485 371.297 767.049 369.504 769.435 L 366.997 800.877 C 366.997 800.877 370.577 812.418 370.222 814.411 C 369.864 816.397 371.654 822.765 371.297 823.561 C 370.935 824.36 354.111 823.561 354.111 823.561 L 357.69 759.485 L 368.785 670.338 Z" fill="#2f2e41" style=""/>
  <path d="M 352.799 820.305 C 352.799 820.305 345.291 841.354 349.207 843.893 C 353.124 846.433 394.257 844.62 394.257 844.62 C 394.257 844.62 401.113 839.904 393.277 836.635 C 393.277 836.635 386.748 836.273 382.503 833.37 C 378.261 830.467 373.365 825.022 373.365 825.022 C 373.365 825.022 373.039 817.043 370.425 818.853 C 368.846 820.009 367.779 821.857 367.489 823.935 Z" fill="#2f2e41" style=""/>
  <path d="M 341.22 817.452 C 341.22 817.452 332.987 840.533 337.282 843.324 C 341.578 846.111 386.689 844.119 386.689 844.119 C 386.689 844.119 394.208 838.943 385.614 835.36 C 385.614 835.36 378.455 834.962 373.802 831.781 C 369.146 828.597 363.775 822.626 363.775 822.626 C 363.775 822.626 363.42 813.874 360.552 815.862 C 358.821 817.131 357.65 819.153 357.333 821.432 Z" fill="#2f2e41" style=""/>
  <path d="M 374.515 669.399 C 374.515 669.399 370.577 710.393 368.785 719.15 C 367.666 724.915 366.945 730.771 366.641 736.658 C 366.641 736.658 366.283 749.396 363.061 752.978 C 361.155 755.075 360.118 757.959 360.195 760.94 C 360.195 760.94 356.973 801.133 358.765 805.907 C 360.552 810.688 362.986 816.89 361.195 820.073 C 359.404 823.259 339.073 821.033 339.073 818.647 C 339.073 816.259 339.073 814.271 337.998 813.075 C 336.927 811.881 337.998 804.321 337.998 804.321 C 337.998 804.321 333.701 768.898 337.64 758.548 C 341.578 748.204 343.371 719.945 343.371 719.945 C 343.371 719.945 340.506 687.709 336.927 682.533 C 333.346 677.361 337.64 659.056 337.64 659.056 Z" fill="#2f2e41" style=""/>
  <path d="M 364.436 542.096 C 364.853 543.152 365.849 543.737 366.759 544.295 C 372.015 547.515 376.415 552.179 380.747 556.797 C 379.668 552.722 379.896 548.35 381.401 544.447 C 381.917 543.115 382.596 541.683 382.226 540.291 C 381.861 539.296 381.226 538.452 380.41 537.875 C 378.641 536.355 376.795 534.955 374.871 533.677 C 373.532 532.785 370.775 530.413 369.236 530.668 C 369.16 532.98 369.114 535.044 368.206 537.206 C 367.988 537.717 364.596 542.502 364.436 542.096 Z" fill="#a0616a" style=""/>
  <circle cx="189.56096" cy="49.43813" r="24.54837" fill="#a0616a" transform="matrix(0.597948, 0, 0, 0.664717, 269.403866, 498.035149)" style=""/>
  <path d="M 383.467 569.506 C 383.467 569.506 385.973 555.572 378.813 550.799 C 371.654 546.021 363.42 540.449 363.42 540.449 C 363.42 540.449 360.914 540.053 359.838 546.021 C 359.838 546.021 339.43 550.401 337.282 571.891 C 335.135 593.382 338.715 624.824 338.715 624.824 C 338.715 624.824 335.491 652.285 331.554 667.012 C 331.554 667.012 328.334 670.195 342.653 665.416 C 356.973 660.643 382.035 678.952 382.035 678.952 C 382.035 678.952 384.543 676.165 384.543 674.174 C 384.543 672.186 389.913 611.689 390.987 606.122 C 392.058 600.548 386.689 570.3 383.467 569.506 Z" fill="#e6e6e6" style=""/>
  <path d="M 379.293 532.58 C 380.171 532.037 381.163 531.745 382.169 531.728 C 383.178 531.713 384.166 531.383 385.016 530.78 C 386.403 529.601 386.507 527.316 387.522 525.733 C 388.989 523.442 391.92 523.166 394.448 523.273 C 395.995 523.348 397.658 523.451 398.961 522.52 C 400.299 521.565 400.904 519.767 401.356 518.075 C 401.889 516.072 402.234 513.621 400.913 512.133 C 399.996 511.101 398.549 510.901 397.529 509.994 C 396.976 509.503 389.687 507.535 382.839 505.763 C 375.792 503.943 368.626 508.267 366.157 515.831 C 364.577 520.662 363.22 525.203 363.361 526.179 C 364.029 530.873 367.762 534.601 368.021 539.344 C 368.519 536.684 370.185 534.481 372.458 533.479 C 372.739 533.33 373.055 533.287 373.359 533.361 C 373.733 533.49 373.951 533.899 374.185 534.248 C 374.797 535.158 376.725 536.53 377.818 535.887 C 378.791 535.313 378.065 533.506 379.293 532.58 Z" fill="#3f3d56" style=""/>
  <path d="M 386.001 618.367 C 385.364 619.069 385.351 620.206 385.968 620.922 L 396.294 632.801 C 396.926 633.526 397.97 633.539 398.612 632.824 L 430.11 597.965 C 430.845 597.152 430.72 595.791 429.848 595.163 L 417.463 586.193 C 416.823 585.729 415.983 585.819 415.439 586.416 Z" fill="#3f3d56" style=""/>
  <path d="M 430.327 595.691 C 430.266 595.804 430.191 595.897 430.11 595.988 L 398.688 631.502 C 398.042 632.22 396.999 632.21 396.364 631.482 L 385.823 619.112 C 385.751 619.027 385.686 618.938 385.629 618.846 C 385.266 619.537 385.409 620.42 385.968 620.922 L 396.294 632.801 C 396.926 633.526 397.97 633.539 398.612 632.824 L 430.11 597.965 C 430.658 597.355 430.745 596.41 430.327 595.691 Z" fill="#6c63ff" style=""/>
  <path d="M 427.409 596.121 L 426.127 595.211 C 426.587 596.125 425.989 597.246 425.049 597.236 C 424.806 597.232 424.569 597.146 424.369 596.995 L 416.078 590.658 C 415.303 590.064 415.393 588.763 416.242 588.315 C 416.293 588.288 416.348 588.261 416.399 588.243 L 415.739 587.773 C 415.563 587.649 415.33 587.678 415.182 587.845 L 387.284 618.326 C 387.107 618.524 387.112 618.846 387.292 619.033 L 397.428 630.011 C 397.602 630.193 397.878 630.189 398.045 629.998 L 427.485 596.888 C 427.685 596.663 427.652 596.289 427.409 596.121 Z" fill="#fff" style=""/>
  <polygon points="395.208 611.595 403.764 620.569 424.127 598.207 413.794 590.73 395.208 611.595" fill="#e6e6e6" style=""/>
  <path d="M 423.334 603.729 C 423.452 603.848 423.635 603.848 423.754 603.729 L 425.532 601.746 C 425.65 601.616 425.65 601.408 425.532 601.28 C 425.414 601.157 425.232 601.157 425.112 601.28 L 423.334 603.258 C 423.219 603.389 423.219 603.597 423.334 603.729 Z" fill="#3f3d56" style=""/>
  <path d="M 420.335 607.06 C 420.449 607.19 420.636 607.19 420.752 607.06 L 422.534 605.08 C 422.693 604.9 422.617 604.592 422.398 604.53 C 422.299 604.501 422.189 604.532 422.114 604.615 L 420.335 606.596 C 420.217 606.725 420.217 606.931 420.335 607.06 Z" fill="#3f3d56" style=""/>
  <circle cx="210.72159" cy="182.42611" r="3.3439" fill="#6c63ff" transform="matrix(0.597948, 0, 0, 0.664717, 269.403866, 498.035149)" style=""/>
  <path d="M 342.298 606.915 C 342.298 606.915 339.788 624.425 350.169 622.835 C 350.169 622.835 391.344 612.486 393.494 614.875 C 395.64 617.261 408.995 618.074 408.295 608.009 C 407.599 597.907 394.208 603.73 394.208 603.73 C 394.208 603.73 373.443 606.915 369.146 604.526 C 364.851 602.14 352.677 602.936 352.677 602.936 Z" fill="#a0616a" style=""/>
  <path d="M 356.973 551.592 C 356.973 551.592 340.863 553.586 340.863 579.453 L 340.863 612.486 L 360.552 603.334 C 360.552 603.334 368.785 581.84 368.072 575.87 C 367.356 569.901 367.714 552.393 356.973 551.592 Z" fill="#e6e6e6" style=""/>
  <path d="M 550.075 769.323 L 540.928 763.663 L 546.548 749.539 C 547.651 746.765 550.287 744.884 553.294 744.728 L 553.294 744.728 C 559.199 744.42 563.227 750.557 560.543 755.777 C 560.323 756.204 560.063 756.612 559.763 756.994 Z" fill="#feb8b8" style=""/>
  <polygon points="501.953 922.384 489.363 916.978 496.195 903.053 506.363 908.95 501.953 922.384" fill="#feb8b8" style=""/>
  <path d="M 497.065 944.646 L 482.576 930.018 C 479.7 927.131 479.712 922.491 482.61 919.621 L 489.906 912.401 C 491.036 911.269 492.947 911.553 493.696 912.958 C 495.492 916.415 497.937 918.277 501.105 918.372 C 503.003 918.428 503.302 918.359 503.798 920.175 L 503.189 933.857 L 505.695 936.68 C 507.638 938.869 507.655 942.137 505.736 944.35 L 505.736 944.35 C 503.488 946.934 499.49 947.069 497.065 944.646 Z" fill="#2f2e41" style=""/>
  <path d="M 507.194 911.387 L 494.044 905.16 L 504.906 837.241 L 451.803 841.62 C 435.01 843.009 421.151 828.142 424.555 811.808 C 425.548 806.864 428.293 802.433 432.295 799.32 L 484.898 805.546 L 518.975 810.186 C 525.984 811.138 531.646 816.315 533.165 823.149 L 533.165 823.149 C 533.757 825.808 533.684 828.571 532.952 831.195 Z" style="fill: rgb(99, 208, 255);"/>
  <circle cx="148.85999" cy="458" r="145" fill="#e6e6e6" transform="matrix(0.571749, 0, 0, 0.565989, 330.888301, 642.824088)" style=""/>
  <path d="M 541.5 760.268 L 554.648 766.493 L 533.728 800.518 C 531.855 803.565 528.317 805.202 524.754 804.674 L 524.754 804.674 C 521.36 804.169 518.555 801.785 517.533 798.541 L 494.164 754.292 C 490.785 747.894 493.934 740.022 500.813 737.648 L 500.813 737.648 C 507.138 735.46 514.042 738.849 516.112 745.156 L 527.206 778.945 Z" fill="#3f3d56" style=""/>
  <path d="M 483.988 743.671 C 488.281 744.264 492.693 742.862 496.274 740.446 C 499.856 738.033 502.687 734.665 505.085 731.091 C 509.133 725.044 512.056 718.324 513.707 711.257 C 516.492 714.567 520.894 716.084 525.153 715.198 C 531.972 713.681 536.055 705.806 534.729 699.017 C 533.401 692.228 527.772 686.843 521.352 684.117 C 514.93 681.394 507.774 680.946 500.786 680.962 C 496.177 680.967 491.482 681.185 487.156 682.749 C 482.825 684.309 478.864 687.428 477.324 691.727 C 476.362 694.423 476.393 697.407 475.299 700.054 C 473.309 704.855 468.149 707.477 463.302 709.465 C 458.461 711.455 453.196 713.476 450.339 717.831 C 447.116 722.746 448.047 729.608 451.599 734.296 C 455.155 738.986 460.861 741.704 466.669 742.84 C 472.48 743.975 478.462 743.696 484.38 743.409" fill="#2f2e41" style=""/>
  <polygon points="481.943 922.384 469.346 916.978 476.181 903.053 486.353 908.95 481.943 922.384" fill="#feb8b8" style=""/>
  <path d="M 477.055 944.646 L 462.565 930.018 C 459.687 927.131 459.702 922.491 462.601 919.621 L 469.896 912.401 C 471.025 911.269 472.936 911.553 473.684 912.958 C 475.479 916.415 477.925 918.277 481.094 918.372 C 482.992 918.428 483.292 918.359 483.788 920.175 L 483.177 933.857 L 485.683 936.68 C 487.63 938.869 487.644 942.137 485.724 944.35 L 485.724 944.35 C 483.475 946.934 479.477 947.069 477.055 944.646 Z" fill="#2f2e41" style=""/>
  <path d="M 485.468 914.78 L 472.318 908.558 L 483.183 840.638 L 430.075 845.016 C 413.285 846.404 399.426 831.541 402.827 815.203 C 403.821 810.263 406.565 805.832 410.57 802.717 L 463.169 808.942 L 497.252 813.582 C 504.257 814.534 509.918 819.711 511.44 826.547 L 511.44 826.547 C 512.029 829.206 511.957 831.966 511.222 834.592 Z" style="fill: rgb(99, 208, 255);"/>
  <circle cx="303.85999" cy="116" r="36.5" fill="#feb8b8" transform="matrix(0.571749, 0, 0, 0.565989, 330.888301, 642.824088)" style=""/>
  <path d="M 490.041 756.872 L 481.467 733.666 C 487.558 727.271 488.895 719.419 486.612 710.463 L 511.198 724.044 Z" fill="#feb8b8" style=""/>
  <path d="M 472.889 811.773 C 457.623 816.818 437.422 815.167 412.112 806.586 C 409.152 805.573 408.153 801.928 410.186 799.569 C 427.257 779.705 442.575 760.247 455.214 741.417 C 459.984 735.313 466.77 731.062 474.384 729.404 L 486.038 726.874 L 503.763 735.928 L 508.413 738.53 C 513.032 741.117 514.52 747.01 511.666 751.447 C 504.551 768.662 495.275 784.374 479.178 795.361 Z" fill="#3f3d56" style=""/>
  <path d="M 505.105 704.458 C 507.67 708.501 511.484 711.615 515.976 713.339 C 519.156 714.552 523.197 714.852 525.581 712.444 C 527.313 710.7 527.659 708.014 527.413 705.581 C 526.647 697.985 520.88 691.37 513.727 688.528 C 506.574 685.682 498.314 686.305 491.173 689.183 C 484.436 691.904 478.04 697.471 477.676 704.663 C 477.494 708.35 478.839 712.406 476.837 715.523 C 475.334 717.869 472.429 718.823 469.823 719.86 C 467.218 720.901 464.424 722.538 463.89 725.269 C 463.528 727.124 464.366 729.057 465.684 730.427 C 467.067 731.737 468.706 732.753 470.498 733.412 C 474.747 735.206 479.417 736.324 483.983 735.63 C 488.548 734.938 492.959 732.186 494.746 727.972 C 496.118 724.727 495.837 721.068 495.68 717.552 C 495.519 714.034 495.57 710.294 497.464 707.316 C 499.36 704.338 503.762 702.675 506.594 704.799" fill="#2f2e41" style=""/>
  <path d="M 454.309 763.947 C 454.309 763.947 470.888 804.698 474.891 806.961 C 478.892 809.227 478.892 803.573 478.892 803.573 Z" opacity="0.2" style=""/>
  <path d="M 584.449 750.66 L 483.815 766.866 C 482.787 767.03 481.817 766.339 481.649 765.322 L 477.585 740.609 C 477.421 739.591 478.12 738.631 479.15 738.466 L 579.782 722.261 C 580.813 722.094 581.782 722.786 581.951 723.804 L 586.012 748.518 C 586.179 749.533 585.482 750.494 584.449 750.66 Z" style="fill: rgb(99, 208, 255);"/>
  <circle cx="286.20572" cy="190.35871" r="13.8697" fill="#fff" transform="matrix(0.571749, 0, 0, 0.565989, 330.888301, 642.824088)" style=""/>
  <path d="M 511.754 742.487 C 510.749 742.651 510.298 743.825 510.94 744.608 C 511.24 744.97 511.712 745.148 512.184 745.075 L 573.675 735.168 C 574.683 735.007 575.136 733.828 574.49 733.051 C 574.192 732.686 573.72 732.507 573.253 732.584 Z" fill="#fff" style=""/>
  <path d="M 513.031 750.236 C 512.024 750.397 511.573 751.573 512.215 752.357 C 512.514 752.715 512.986 752.895 513.453 752.821 L 574.953 742.919 C 575.955 742.754 576.403 741.576 575.758 740.795 C 575.462 740.435 574.993 740.257 574.528 740.335 Z" fill="#fff" style=""/>
  <path d="M 511.198 778.945 L 502.048 773.286 L 507.67 759.157 C 508.772 756.385 511.409 754.508 514.414 754.35 L 514.414 754.35 C 520.323 754.046 524.35 760.178 521.666 765.398 C 521.445 765.827 521.184 766.234 520.882 766.616 Z" fill="#feb8b8" style=""/>
  <path d="M 502.048 769.89 L 515.199 776.115 L 494.279 810.139 C 492.404 813.188 488.868 814.828 485.305 814.294 L 485.305 814.294 C 481.907 813.791 479.105 811.407 478.082 808.161 L 454.714 763.91 C 451.336 757.519 454.481 749.646 461.364 747.266 L 461.364 747.266 C 467.691 745.085 474.59 748.472 476.662 754.779 L 487.756 788.565 Z" fill="#3f3d56" style=""/>
  <circle style="fill: rgb(227, 255, 252);" cx="131.242" cy="173.958" r="102.085" transform="matrix(0.752872, -0.000733, 0.000525, 0.643064, 843.689197, 491.993249)"/>
</svg>