<?xml version="1.0"?>
<svg xmlns="http://www.w3.org/2000/svg" id="Layer_1_1_" enable-background="new 0 0 64 64" height="512px" viewBox="0 0 64 64" width="512px"><g><path d="m49 51c1.6543 0 3-1.3457 3-3s-1.3457-3-3-3v-29c0-.30078-.13574-.58594-.36963-.77637l-16-13c-.36719-.29883-.89355-.29883-1.26074 0l-16 13c-.23389.19043-.36963.47559-.36963.77637v29c-1.6543 0-3 1.3457-3 3s1.3457 3 3 3h1v1.58594l-3.70703 3.70703c-.1875.1875-.29297.44141-.29297.70703v5h2v-4.58594l3.70703-3.70703c.1875-.1875.29297-.44141.29297-.70703v-2h8v3.58594l-2.70703 2.70703c-.1875.1875-.29297.44141-.29297.70703v4h2v-3.58594l2.70703-2.70703c.1875-.1875.29297-.44141.29297-.70703v-4h3v6h2v-6h8v3c0 .26562.10547.51953.29297.70703l3.70703 3.70703v3.58594h2v-4c0-.26562-.10547-.51953-.29297-.70703l-3.70703-3.70703v-2.58594h3v2c0 .26562.10547.51953.29297.70703l3.70703 3.70703v.58594h2v-1c0-.26562-.10547-.51953-.29297-.70703l-3.70703-3.70703v-1.58594zm-2.83337-35.20154-6.22375 3.11169-7.5918-2.84668c-.22656-.08398-.47559-.08398-.70215 0l-7.5918 2.84668-6.22375-3.11169 8.36736-6.79846h11.59851zm-21.16663 4.89472 6-2.24982v26.55664h-6zm8-2.24982 6 2.24982v24.30682h-6zm8 2.1748 6-3v27.38184h-6zm-9-16.33007 3.33777 2.71191h-6.67554zm-15 13.33007 6 3v24.38184h-6zm-3 30.38184c0-.55176.44873-1 1-1h1 32 1c.55127 0 1 .44824 1 1s-.44873 1-1 1h-34c-.55127 0-1-.44824-1-1z" data-original="#000000" class="active-path" data-old_color="#000000" fill="#1273EB"/><path d="m31 59h2v3h-2z" data-original="#000000" class="active-path" data-old_color="#000000" fill="#1273EB"/><path d="m38 55.58594v-2.58594h-2v3c0 .26562.10547.51953.29297.70703l2.70703 2.70703v2.58594h2v-3c0-.26562-.10547-.51953-.29297-.70703z" data-original="#000000" class="active-path" data-old_color="#000000" fill="#1273EB"/><path d="m50 60h2v2h-2z" data-original="#000000" class="active-path" data-old_color="#000000" fill="#1273EB"/><path d="m23 53h-2v.58594l-3.70703 3.70703c-.1875.1875-.29297.44141-.29297.70703v4h2v-3.58594l3.70703-3.70703c.1875-.1875.29297-.44141.29297-.70703z" data-original="#000000" class="active-path" data-old_color="#000000" fill="#1273EB"/></g> </svg>
