<?xml version="1.0"?>
<svg xmlns="http://www.w3.org/2000/svg" id="Layer_1" data-name="Layer 1" viewBox="0 0 512 512" width="512px" height="512px" class=""><g><path d="M467.114,222.784A33.078,33.078,0,0,0,434.708,249H390.357a133.872,133.872,0,0,0-34.888-83.386l31.446-31.391a32.91,32.91,0,1,0-9.742-10l-31.657,31.657A133.994,133.994,0,0,0,262,121.822V77.438a33.094,33.094,0,1,0-14-.428v44.916a134.029,134.029,0,0,0-82.429,34.762l-31.422-31.421a33.085,33.085,0,1,0-10.119,9.68l31.688,31.579A133.743,133.743,0,0,0,121.6,250H77.477a33.544,33.544,0,0,0-32.591-27.216,33.093,33.093,0,1,0,0,66.185A32.472,32.472,0,0,0,76.959,264h44.747a133.252,133.252,0,0,0,34.616,82.375l-31.237,31.292a33.351,33.351,0,1,0,9.742,10.113l31.424-31.424A134.007,134.007,0,0,0,249,390.577v44.182a33.106,33.106,0,1,0,14,0V390.577a134.026,134.026,0,0,0,83.333-34.74L377.6,387.105a33.118,33.118,0,1,0,9.988-9.811L356.2,345.79A133.529,133.529,0,0,0,390.357,263H434.81a33.093,33.093,0,1,0,32.3-40.216ZM391.77,93.211a19.105,19.105,0,1,1,27.02,27.018h0a19.106,19.106,0,1,1-27.02-27.019ZM120.23,120.229a19.106,19.106,0,1,1,0-27.018h0a19.1,19.1,0,0,1,0,27.018ZM44.886,275.106A19.106,19.106,0,1,1,63.993,256,19.128,19.128,0,0,1,44.886,275.106ZM120.23,418.789a19.105,19.105,0,1,1-27.02-27.018h0a19.065,19.065,0,0,1,26.283-.669,6.863,6.863,0,0,0,1.945,2,19.1,19.1,0,0,1-1.208,25.688Zm271.54-27.018a19.106,19.106,0,1,1,0,27.018h0a19.1,19.1,0,0,1,0-27.018ZM236.894,44.887A19.106,19.106,0,1,1,256,63.993,19.129,19.129,0,0,1,236.894,44.887Zm38.212,422.226a19.106,19.106,0,1,1-20.513-19.035,7.042,7.042,0,0,0,2.814,0A19.118,19.118,0,0,1,275.106,467.113ZM256,376.758A120.538,120.538,0,1,1,376.538,256.22,120.674,120.674,0,0,1,256,376.758ZM467.114,275.106A19.106,19.106,0,1,1,486.22,256,19.128,19.128,0,0,1,467.114,275.106Z" data-original="#000000" class="active-path" data-old_color="#000000" fill="#1273EB"/><path d="M339.5,203.749l-80-46.187a7,7,0,0,0-7,0l-80,46.187a7,7,0,0,0-3.5,6.063v92.376a7,7,0,0,0,3.5,6.063l80,46.187a7,7,0,0,0,7,0l80-46.187a7,7,0,0,0,3.5-6.063V209.812A7,7,0,0,0,339.5,203.749ZM256,171.707l25.21,14.554-65.995,38.1-25.21-14.555Zm-7,164.545-66-38.105V221.93l66,38.106Zm7-88.341-26.785-15.464,65.995-38.1L322,209.808Zm73,50.236-66,38.105V260.036l66-38.106Z" data-original="#000000" class="active-path" data-old_color="#000000" fill="#1273EB"/></g> </svg>
